{"glyphs":{"0":{"ha":1086,"x_min":-4,"x_max":1111,"o":"m 408 974 l 960 974 q 1004 970 985 974 q 1023 964 1013 967 q 1040 958 1034 960 q 1057 947 1050 954 q 1072 936 1065 941 q 1082 922 1077 929 q 1092 906 1088 914 q 1101 886 1097 897 q 1107 864 1105 875 q 1109 841 1108 853 q 1111 818 1111 829 q 1110 793 1111 806 q 1108 769 1109 781 q 1103 745 1105 757 q 1097 722 1101 732 l 972 252 q 964 227 968 240 q 956 203 960 214 q 946 179 952 191 q 935 157 940 167 q 920 132 928 145 q 903 109 911 119 q 884 87 894 98 q 867 68 875 76 q 849 52 859 60 q 830 39 840 45 q 809 27 819 33 q 789 18 799 22 q 769 9 780 14 q 749 4 758 5 q 727 1 738 1 q 707 0 716 0 l 145 0 q 122 1 134 0 q 100 4 110 1 q 79 10 90 5 q 61 20 69 15 q 43 33 52 26 q 30 46 35 39 q 18 64 24 54 q 7 84 12 73 q 2 102 4 92 q -1 123 0 113 q -3 146 -3 134 q -3 171 -4 159 q -1 193 -3 182 q 0 213 0 203 q 4 237 1 224 q 9 262 7 250 l 130 708 q 138 734 133 720 q 146 760 142 747 q 159 787 152 773 q 171 812 165 800 q 184 838 176 825 q 201 861 193 850 q 218 884 209 873 q 239 905 228 895 q 257 921 247 913 q 278 936 267 929 q 300 949 288 943 q 324 959 312 955 q 343 964 334 962 q 363 970 353 967 q 408 974 385 974 m 728 811 l 548 811 q 538 809 544 811 q 528 806 532 807 q 516 800 522 803 q 506 792 510 796 q 496 783 500 788 q 490 774 492 779 q 484 765 487 770 q 479 754 480 760 l 335 217 q 334 206 334 212 q 335 197 334 201 q 339 186 336 191 q 345 179 342 182 q 351 171 347 175 q 359 165 355 167 q 370 161 365 163 q 380 160 376 160 l 553 160 q 571 164 562 160 q 582 169 576 165 q 591 175 587 172 q 600 180 595 176 q 606 189 604 184 q 612 197 609 193 q 616 205 614 201 l 766 766 q 766 783 769 774 q 764 790 766 787 q 758 796 761 793 q 752 802 755 799 q 745 807 749 806 q 737 810 742 808 q 728 811 732 811 z "},"1":{"ha":761,"x_min":259,"x_max":856,"o":"m 856 974 l 595 3 l 259 3 l 439 677 l 315 677 l 361 849 l 776 974 l 856 974 z "},"2":{"ha":1050,"x_min":-49,"x_max":1089,"o":"m 231 974 l 932 974 q 951 973 941 974 q 970 971 960 972 q 989 966 979 968 q 1008 960 998 963 q 1024 953 1016 958 q 1039 944 1032 948 q 1053 932 1046 939 q 1065 918 1059 925 q 1074 905 1069 911 q 1080 890 1078 898 q 1086 873 1084 882 q 1089 854 1088 864 q 1088 838 1088 846 q 1088 821 1089 829 q 1085 803 1086 812 q 1081 784 1084 793 l 1012 525 q 1006 510 1009 518 q 1002 496 1004 502 q 996 482 1000 490 q 987 469 991 475 q 980 458 985 464 q 972 446 975 452 q 963 435 968 441 q 954 425 958 429 q 941 414 948 419 q 930 404 935 408 q 918 395 925 400 q 903 388 911 391 q 888 380 897 384 q 872 374 879 376 q 854 370 863 372 q 840 369 846 369 l 446 349 q 433 347 439 349 q 419 346 426 346 q 407 342 412 345 q 396 338 401 339 q 387 332 392 336 q 380 324 382 328 q 373 313 377 320 q 368 300 369 307 l 330 160 l 891 160 l 849 0 l -49 0 l 73 460 q 78 477 75 468 q 84 495 81 487 q 90 514 85 505 q 99 532 95 524 q 106 545 102 538 q 114 559 111 552 q 123 571 118 564 q 133 585 129 578 q 145 595 138 590 q 157 605 152 601 q 174 614 165 609 q 189 621 182 618 q 202 625 195 623 q 216 629 209 628 q 232 633 224 631 q 248 635 240 635 l 673 656 q 681 657 677 656 q 688 659 685 658 q 696 663 692 661 q 704 669 700 666 q 710 674 707 670 q 715 681 713 678 q 720 688 718 684 q 723 694 722 692 l 749 791 q 749 795 749 792 q 749 800 749 798 q 745 804 747 802 q 739 807 742 806 q 734 810 738 808 q 728 811 731 811 q 722 812 726 811 q 716 812 719 812 l 187 812 l 231 974 z "},"3":{"ha":1029,"x_min":-3,"x_max":1076,"o":"m 212 812 l 255 972 l 918 972 q 936 972 926 972 q 955 971 945 971 q 972 968 963 970 q 989 964 982 966 q 1007 959 998 962 q 1023 954 1016 956 q 1037 945 1029 949 q 1050 935 1044 940 q 1058 925 1054 930 q 1065 914 1062 920 q 1070 901 1067 907 q 1074 887 1073 894 q 1076 871 1076 880 q 1076 854 1076 863 q 1073 834 1074 845 q 1067 812 1072 823 l 1013 609 q 1005 586 1010 597 q 993 567 1000 575 q 977 549 986 557 q 956 534 967 540 q 940 524 949 529 q 921 515 930 519 q 899 507 910 511 q 876 498 888 502 q 898 491 888 495 q 917 481 907 487 q 932 469 925 476 q 943 453 940 461 q 950 435 947 445 q 954 415 954 425 q 954 392 955 404 q 948 368 952 380 l 890 149 q 885 133 888 141 q 879 118 882 125 q 871 103 876 111 q 864 90 867 95 q 854 77 860 83 q 845 65 849 71 q 833 54 840 60 q 821 43 826 47 q 808 33 815 38 q 793 24 800 28 q 778 16 785 20 q 764 11 770 12 q 749 6 757 8 q 735 3 742 4 q 720 1 728 1 q 707 0 712 0 l -3 0 l 39 161 l 522 161 q 529 162 525 161 q 534 164 533 163 q 542 168 538 165 q 548 174 545 171 q 554 179 551 175 q 560 186 557 183 q 564 192 562 189 q 566 198 566 195 l 614 382 q 616 389 616 385 q 616 395 616 392 q 612 399 614 396 q 609 403 610 401 q 604 406 606 404 q 600 410 601 408 q 593 412 597 411 q 586 412 590 412 l 248 412 l 292 572 l 627 572 q 633 573 629 572 q 639 574 637 574 q 647 576 643 575 q 654 581 651 578 q 660 585 656 582 q 665 590 663 587 q 669 595 667 591 q 673 601 671 598 l 720 781 q 721 786 722 783 q 719 792 720 789 q 717 798 719 795 q 713 803 715 800 q 708 806 711 804 q 704 810 705 808 q 698 812 701 811 q 690 812 694 812 l 212 812 z "},"4":{"ha":1150,"x_min":-57,"x_max":1092,"o":"m 1073 970 l 939 471 l 1092 471 l 1024 218 l 868 218 l 810 0 l 481 0 l 540 218 l -57 218 l 7 457 l 678 970 l 1073 970 m 692 796 l 262 476 l 606 476 l 692 796 z "},"5":{"ha":1069,"x_min":-4,"x_max":1137,"o":"m 1137 972 l 1093 812 l 529 812 l 468 621 l 865 621 q 901 618 884 621 q 933 610 918 616 q 951 603 943 608 q 966 593 959 598 q 979 581 972 587 q 990 567 986 574 q 998 553 994 560 q 1004 540 1002 547 q 1008 525 1006 533 q 1010 509 1010 517 q 1012 491 1012 500 q 1010 473 1012 481 q 1009 454 1010 464 q 1004 434 1008 444 l 936 179 q 930 159 933 170 q 922 140 926 148 q 913 123 918 132 q 903 106 907 114 q 890 86 898 95 q 875 71 883 77 q 858 55 867 62 q 841 42 849 47 q 825 33 834 38 q 808 24 817 28 q 791 17 800 20 q 773 12 783 14 q 755 7 765 9 q 738 4 746 5 q 719 2 728 3 q 701 1 709 1 l -4 1 l 37 159 l 560 159 q 568 161 564 159 q 575 164 572 163 q 583 172 579 167 q 590 180 587 176 q 597 190 594 184 q 601 199 600 195 q 604 210 602 205 q 608 218 606 214 l 659 410 q 661 421 661 415 q 662 431 662 427 q 659 439 661 435 q 656 446 658 444 q 652 452 655 449 q 647 456 650 454 q 639 458 643 457 q 631 458 635 458 l 99 458 l 244 972 l 1137 972 z "},"6":{"ha":1066,"x_min":-5,"x_max":1101,"o":"m 1101 972 l 1058 812 l 564 812 q 555 812 560 812 q 545 810 549 811 q 534 806 540 808 q 524 800 528 803 q 513 793 518 798 q 506 785 509 789 q 500 776 503 781 q 495 764 496 770 l 458 628 l 860 628 q 877 627 868 628 q 894 624 886 625 q 910 618 902 621 q 926 612 918 616 q 941 603 933 608 q 955 593 948 598 q 968 581 962 587 q 979 568 975 574 q 989 557 985 563 q 997 544 994 551 q 1004 530 1001 537 q 1008 517 1006 522 q 1010 502 1009 510 q 1012 487 1012 494 q 1010 472 1012 480 q 1008 457 1009 464 l 935 182 q 929 167 932 175 q 922 153 926 159 q 913 138 918 146 q 905 125 909 130 q 894 111 901 118 q 882 98 887 103 q 869 84 876 91 q 854 72 861 77 q 838 59 846 65 q 821 47 829 53 q 803 37 812 42 q 785 27 793 31 q 761 16 773 20 q 738 8 749 11 q 716 3 727 5 q 694 1 705 1 l 151 1 q 130 3 141 1 q 110 7 119 4 q 91 13 100 8 q 72 22 81 18 q 58 31 65 26 q 45 39 52 35 q 34 49 39 43 q 24 61 28 54 q 15 73 20 66 q 7 87 9 80 q 1 102 3 94 q -3 118 -1 110 q -5 135 -4 126 q -5 152 -5 144 q -5 170 -5 160 q -1 189 -4 179 l 155 779 q 161 796 157 787 q 170 814 164 806 q 180 833 174 823 q 193 850 186 842 q 205 867 198 859 q 221 884 213 876 q 238 901 229 892 q 255 916 247 909 q 271 928 262 921 q 289 940 281 935 q 327 960 309 952 q 341 964 334 962 q 355 968 349 967 q 370 971 362 970 q 384 972 377 972 l 1101 972 m 637 469 l 448 469 q 441 468 445 469 q 435 465 438 467 q 427 460 431 464 q 420 456 423 457 q 415 450 418 453 q 410 444 412 446 q 405 437 407 441 q 403 430 403 433 l 340 198 q 339 191 339 195 q 340 184 339 187 q 345 178 342 182 q 351 172 347 174 q 357 168 354 170 q 363 164 359 165 q 372 162 368 163 q 380 161 376 161 l 549 161 q 556 162 552 161 q 564 164 560 163 q 574 168 570 165 q 581 174 578 171 q 588 178 585 175 q 594 184 591 182 q 599 191 597 187 q 602 198 601 195 l 665 434 q 666 440 666 437 q 666 446 666 444 q 663 452 665 449 q 659 458 661 456 q 655 462 658 460 q 650 465 652 464 q 642 468 646 467 q 637 469 639 469 z "},"7":{"ha":1039,"x_min":56,"x_max":1108,"o":"m 1108 972 l 1076 808 q 1040 776 1058 792 q 1004 743 1021 760 q 981 722 993 732 q 959 701 970 711 q 937 679 948 690 q 916 658 926 667 q 890 632 903 646 q 864 605 876 618 q 840 578 853 591 q 817 552 827 564 q 787 519 802 536 q 761 488 773 503 q 734 456 747 472 q 708 423 722 439 q 669 371 689 397 q 631 319 648 345 q 610 288 621 304 q 590 259 600 273 q 570 228 581 244 q 551 198 560 212 q 534 171 543 184 q 518 142 526 157 q 502 113 510 127 q 487 85 494 99 q 475 64 481 76 q 464 42 469 53 q 454 20 460 31 q 444 0 448 9 l 56 0 q 68 22 61 9 q 83 45 76 34 q 97 68 90 56 q 111 92 104 80 q 151 152 130 122 q 194 213 172 182 q 214 241 203 227 q 235 270 225 255 q 257 298 245 285 q 279 327 269 312 q 296 349 288 338 q 315 370 305 361 q 332 391 323 380 q 351 414 342 403 q 374 441 362 427 q 397 469 385 456 q 422 496 408 483 q 446 524 435 510 q 471 551 458 537 q 495 576 483 564 q 519 604 506 590 q 544 629 533 617 q 570 656 557 643 q 597 682 583 670 q 624 708 610 694 q 650 734 637 722 q 669 753 659 743 q 689 772 680 762 q 709 791 699 781 q 728 808 720 800 l 190 808 l 235 972 l 1108 972 z "},"8":{"ha":1072,"x_min":-16,"x_max":1112,"o":"m 975 972 q 994 971 985 972 q 1013 968 1004 970 q 1031 962 1023 966 q 1048 955 1040 959 q 1061 948 1054 952 q 1073 940 1067 944 q 1082 930 1077 936 q 1090 918 1088 924 q 1104 895 1099 907 q 1109 882 1107 888 q 1112 869 1111 875 q 1112 854 1112 863 q 1112 840 1112 846 q 1111 823 1112 831 q 1107 806 1109 814 l 1065 650 q 1061 637 1063 644 q 1055 625 1058 631 q 1048 612 1053 618 q 1040 600 1044 605 q 1032 589 1038 594 q 1023 578 1027 583 q 1011 566 1017 571 q 1000 556 1005 560 q 987 547 994 552 q 972 538 981 543 q 958 530 966 534 q 944 524 951 526 q 934 519 940 522 q 921 514 928 515 q 909 510 916 511 q 897 507 902 509 q 907 505 902 506 q 917 502 911 503 q 926 497 921 499 q 935 494 932 495 q 945 488 940 491 q 952 483 949 484 q 960 476 956 480 q 967 468 964 472 q 975 458 971 464 q 982 446 979 452 q 987 433 985 441 q 990 420 990 426 q 992 407 991 414 q 993 393 993 400 q 991 379 993 387 q 989 365 990 372 l 937 172 q 931 153 935 163 q 924 136 928 144 q 913 119 918 127 q 903 102 909 110 q 891 87 898 95 q 879 73 884 79 q 866 60 873 66 q 852 49 859 54 q 839 39 846 43 q 825 30 831 34 q 809 22 817 26 q 795 15 802 18 q 775 8 785 11 q 757 4 765 5 q 738 1 747 1 q 720 0 728 0 l 114 0 q 96 1 106 0 q 80 4 87 1 q 64 9 72 5 q 47 18 56 14 q 37 24 42 20 q 27 33 33 28 q 18 42 23 37 q 9 52 14 47 q 3 64 7 57 q -3 77 0 72 q -8 90 -5 83 q -14 104 -11 98 q -14 119 -14 111 q -16 134 -15 127 q -15 149 -16 141 q -12 164 -14 157 l 39 358 q 45 375 41 366 q 53 392 49 384 q 64 409 57 400 q 77 425 71 418 q 87 436 81 430 q 99 448 94 442 q 113 458 106 453 q 126 468 121 464 q 140 476 133 472 q 153 483 146 480 q 168 490 160 487 q 182 496 175 494 q 212 505 197 502 q 243 510 228 509 q 225 513 233 511 q 209 518 217 515 q 195 524 202 519 q 182 529 189 528 q 171 534 176 530 q 160 541 165 538 q 150 548 155 544 q 142 556 145 552 q 125 576 132 566 q 117 598 119 587 q 116 624 115 610 q 121 652 117 637 l 160 803 q 166 819 163 811 q 172 836 170 827 q 181 851 176 844 q 191 865 186 859 q 201 881 195 873 q 213 895 208 888 q 226 908 218 901 q 240 921 233 916 q 254 932 247 926 q 269 941 262 937 q 283 951 275 947 q 298 959 292 956 q 313 964 305 962 q 328 968 321 967 q 345 971 336 970 q 359 972 353 972 l 975 972 m 623 426 l 444 426 q 433 424 438 426 q 423 420 427 422 q 413 414 418 418 q 406 406 408 410 q 399 397 403 401 q 392 388 395 392 q 389 378 391 382 q 385 369 387 373 l 343 213 q 341 204 342 209 q 339 195 340 199 q 340 186 339 191 q 342 178 340 182 q 346 170 343 174 q 353 165 349 167 q 361 161 355 163 q 373 160 368 160 l 551 160 q 560 161 555 160 q 568 163 566 161 q 577 167 572 164 q 585 172 582 170 q 594 181 590 176 q 600 190 598 186 q 606 201 604 195 q 610 212 609 206 l 654 374 q 656 385 655 380 q 656 393 656 389 q 656 402 656 397 q 654 410 655 407 q 648 416 651 414 q 642 422 646 419 q 633 425 639 423 q 623 426 628 426 m 549 812 q 538 810 544 812 q 528 807 533 808 q 519 802 524 806 q 510 793 514 798 q 503 785 506 789 q 496 776 499 780 q 491 765 494 770 q 487 755 488 760 l 456 640 q 454 629 454 633 q 453 620 453 624 q 454 611 453 616 q 456 604 454 606 q 460 596 457 600 q 468 591 464 593 q 490 587 476 587 l 665 587 q 673 588 669 587 q 682 590 678 589 q 692 595 688 591 q 700 601 696 598 q 707 608 703 604 q 715 617 711 613 q 720 627 718 621 q 724 639 723 633 l 755 757 q 758 766 757 761 q 758 774 758 770 q 757 783 758 779 q 754 792 755 788 q 751 800 754 796 q 745 806 749 803 q 736 810 742 808 q 724 812 731 812 l 549 812 z "},"9":{"ha":1069,"x_min":-4,"x_max":1105,"o":"m 726 812 l 543 812 q 538 812 541 812 q 532 810 534 811 q 524 804 528 807 q 517 799 519 802 q 511 793 514 796 q 506 787 509 789 q 501 780 503 784 q 499 774 499 776 l 435 538 q 435 532 435 536 q 437 525 435 528 q 439 518 437 522 q 444 513 441 514 q 448 508 445 510 q 454 505 452 506 q 462 501 458 502 q 469 500 465 500 l 640 500 q 647 501 643 500 q 654 503 651 502 q 663 507 659 505 q 671 513 667 510 q 679 518 675 514 q 686 525 682 522 q 691 532 689 528 q 693 538 693 536 l 757 776 q 758 783 758 779 q 757 789 758 787 q 753 795 755 792 q 749 802 751 799 q 745 805 747 803 q 739 808 742 807 q 732 811 736 810 q 726 812 728 812 m 954 972 q 971 971 962 972 q 989 968 981 970 q 1007 962 998 966 q 1024 954 1016 958 q 1036 947 1029 951 q 1047 939 1042 943 q 1059 929 1054 935 q 1069 918 1065 924 q 1079 905 1074 911 q 1088 892 1084 898 q 1095 878 1092 886 q 1101 863 1099 869 q 1105 848 1104 856 q 1105 831 1105 840 q 1105 815 1105 823 q 1103 799 1104 807 l 935 172 q 921 140 930 156 q 910 123 917 132 q 898 106 903 114 q 886 94 892 99 q 875 83 880 88 q 862 71 869 76 q 849 60 854 65 q 831 47 841 53 q 814 37 822 42 q 796 26 806 31 q 777 18 787 22 q 758 10 768 14 q 738 5 747 7 q 718 1 728 3 q 700 0 708 0 l -4 0 l 37 159 l 537 159 q 547 159 541 159 q 556 163 552 160 q 566 168 560 164 q 576 174 571 171 q 587 180 582 176 q 594 189 591 184 q 600 197 597 193 q 605 206 604 202 l 642 345 l 240 345 q 219 347 229 345 q 198 351 209 349 q 178 359 189 354 q 160 369 168 363 q 149 376 155 372 q 138 384 142 380 q 128 393 133 388 q 119 403 123 399 q 111 414 115 408 q 103 427 107 420 q 97 440 100 433 q 92 454 94 448 q 90 467 91 460 q 88 481 88 475 q 88 496 88 488 q 91 511 88 505 l 167 796 q 172 812 170 804 q 179 827 175 821 q 189 844 183 836 q 199 859 195 852 q 213 873 206 865 q 225 887 220 880 q 241 901 232 894 q 258 916 250 909 q 273 927 264 921 q 289 939 282 933 q 307 949 297 944 q 324 956 316 954 q 341 963 332 960 q 358 968 350 966 q 375 971 366 970 q 391 972 384 972 l 954 972 z "},"¦":{"ha":978,"x_min":-148,"x_max":1001,"o":"m -148 0 l 149 1112 l 1001 1112 l 703 0 l -148 0 m 903 1021 l 209 1021 l -39 92 l 654 92 l 903 1021 z "}," ":{"ha":694,"x_min":0,"x_max":0,"o":""},"A":{"ha":1194,"x_min":-132,"x_max":1008,"o":"m 898 970 l 1008 0 l 644 0 l 613 258 l 218 258 l 31 0 l -132 0 l 557 970 l 898 970 m 557 751 l 334 420 l 601 420 l 557 751 z "},"B":{"ha":1061,"x_min":-53,"x_max":1100,"o":"m 935 971 q 955 970 945 971 q 974 970 964 970 q 992 966 983 968 q 1009 962 1001 963 q 1028 956 1019 959 q 1044 948 1038 952 q 1058 938 1051 944 q 1070 926 1065 932 q 1080 913 1076 921 q 1086 901 1085 906 q 1093 886 1090 894 q 1097 871 1096 878 q 1099 854 1099 863 q 1099 838 1100 846 q 1097 821 1099 830 q 1095 804 1096 812 l 1046 627 q 1041 608 1044 617 q 1034 593 1038 600 q 1023 578 1029 586 q 1012 566 1017 571 q 1000 554 1006 559 q 987 545 994 549 q 974 536 982 541 q 959 529 966 532 q 948 525 955 528 q 935 521 941 522 q 922 517 929 518 q 909 514 916 515 q 888 510 898 511 q 868 509 878 509 q 849 508 859 509 q 831 507 840 507 q 850 504 841 506 q 868 500 860 502 q 886 495 878 498 q 903 491 895 492 q 927 483 916 488 q 947 472 939 477 q 955 467 951 469 q 963 461 959 464 q 969 454 966 458 q 975 448 972 450 q 983 435 979 442 q 986 420 986 427 q 986 404 986 412 q 983 387 986 395 l 925 167 q 917 143 921 155 q 909 122 913 132 q 897 102 903 111 q 883 85 890 94 q 870 71 878 79 q 854 58 863 64 q 838 46 846 53 q 822 35 830 39 q 806 27 814 31 q 791 22 798 23 q 774 16 783 19 q 757 11 765 12 q 736 6 747 8 q 716 4 726 4 q 696 2 707 3 q 678 1 686 1 l -53 1 l 205 971 l 935 971 m 503 811 l 442 582 l 656 582 q 665 583 661 582 q 671 586 669 583 q 681 590 677 587 q 688 595 685 593 q 694 602 690 598 q 701 609 699 606 q 709 624 708 617 l 750 774 q 750 781 750 777 q 749 788 750 785 q 746 793 747 791 q 742 799 745 796 q 736 803 739 800 q 731 807 734 806 q 725 810 728 808 q 719 811 722 811 l 503 811 m 399 423 l 328 160 l 548 160 q 556 161 552 160 q 563 164 560 163 q 571 170 567 165 q 578 176 575 174 q 585 184 582 180 q 591 193 589 189 q 595 201 593 197 q 598 210 597 206 l 646 387 q 646 393 646 389 q 646 400 646 397 q 642 406 644 403 q 639 411 640 408 q 633 415 636 412 q 627 419 629 418 q 621 422 625 420 q 614 423 617 423 l 399 423 z "},"C":{"ha":875,"x_min":-19,"x_max":951,"o":"m 951 975 l 909 815 l 537 815 q 519 811 529 815 q 509 805 514 808 q 499 799 503 802 q 483 783 490 791 q 477 774 480 779 q 475 765 475 769 l 326 209 q 326 193 323 201 q 328 184 326 189 q 334 176 331 179 q 342 170 338 174 q 349 165 346 167 q 357 162 353 163 q 366 161 362 161 l 746 161 l 703 0 l 130 0 q 108 1 119 0 q 87 4 96 1 q 67 10 77 5 q 47 19 57 15 q 32 28 39 23 q 19 41 24 34 q 7 55 12 46 q -1 72 1 64 q -8 87 -5 79 q -14 106 -11 96 q -18 125 -16 115 q -19 146 -19 136 q -18 166 -18 156 q -16 187 -18 176 q -13 210 -15 198 q -7 233 -11 221 l 126 735 q 133 760 129 747 q 141 781 137 772 q 151 802 145 791 q 161 823 157 812 q 176 846 168 834 q 191 867 184 857 q 207 886 198 876 q 224 903 216 895 q 240 917 232 910 q 255 930 248 924 q 272 941 263 936 q 289 951 281 947 q 311 961 300 956 q 334 968 323 966 q 357 973 345 971 q 380 975 369 975 l 951 975 z "},"D":{"ha":1043,"x_min":-58,"x_max":1074,"o":"m 201 972 l 903 972 q 923 972 913 972 q 941 970 933 971 q 961 966 952 968 q 979 962 970 963 q 1000 953 990 959 q 1020 941 1010 947 q 1038 926 1029 935 q 1051 909 1046 918 q 1060 892 1055 902 q 1066 873 1065 883 q 1072 852 1070 864 q 1074 829 1074 841 q 1073 808 1073 819 q 1072 788 1073 798 q 1068 765 1070 777 q 1062 741 1066 753 l 928 236 q 920 212 924 224 q 911 189 916 199 q 902 167 907 178 q 892 146 897 156 q 878 123 886 134 q 864 103 871 113 q 848 84 857 94 q 830 68 838 75 q 812 53 822 60 q 793 41 803 46 q 773 29 784 34 q 753 20 762 24 q 725 11 739 15 q 699 5 711 7 q 672 2 686 3 q 646 1 658 1 l -58 1 l 201 972 m 500 812 l 326 159 l 524 159 q 532 161 528 159 q 540 164 537 163 q 550 170 545 165 q 557 178 555 174 q 564 185 560 180 q 570 194 568 190 q 576 203 574 198 q 579 212 578 208 l 730 774 q 730 781 730 777 q 728 788 730 785 q 726 794 728 791 q 722 800 724 798 q 717 804 720 802 q 711 808 713 807 q 696 812 703 812 l 500 812 z "},"E":{"ha":871,"x_min":-58,"x_max":951,"o":"m 201 972 l 951 972 l 909 815 l 502 815 l 439 582 l 836 582 l 792 423 l 396 423 l 326 159 l 742 159 l 700 1 l -58 1 l 201 972 z "},"F":{"ha":861,"x_min":-58,"x_max":951,"o":"m 951 972 l 909 815 l 499 815 l 437 585 l 836 585 l 792 422 l 391 422 l 278 0 l -58 0 l 201 972 l 951 972 z "},"G":{"ha":1036,"x_min":-18,"x_max":1073,"o":"m 1073 972 l 1031 815 l 544 815 q 534 814 540 815 q 524 811 528 812 q 512 806 518 808 q 502 800 506 803 q 491 793 496 798 q 483 785 486 789 q 477 777 480 781 q 472 768 473 772 l 324 213 q 322 203 323 209 q 323 194 321 198 q 326 185 324 190 q 332 176 328 180 q 339 170 335 174 q 346 164 343 165 q 355 161 350 163 q 363 159 359 159 l 505 159 q 514 159 509 159 q 525 163 519 160 q 534 168 529 164 q 544 175 540 172 q 553 182 549 178 q 560 191 557 187 q 567 200 564 195 q 571 209 570 205 l 628 423 l 448 423 l 490 579 l 1012 579 l 857 1 l 132 1 q 106 3 118 1 q 84 7 94 4 q 64 13 73 8 q 46 22 54 18 q 30 34 38 27 q 15 47 22 41 q 5 64 9 56 q -4 81 0 73 q -9 98 -7 90 q -14 114 -12 106 q -16 132 -15 122 q -18 149 -18 141 q -16 172 -16 160 q -14 195 -15 184 q -10 218 -12 206 q -5 240 -8 229 l 123 724 q 131 749 126 736 q 140 774 136 762 q 151 799 145 787 q 163 821 157 811 q 174 841 167 830 q 189 861 182 852 q 203 880 195 871 q 218 897 212 890 q 236 914 227 906 q 254 929 245 922 q 275 941 264 935 q 294 954 285 948 q 315 961 304 958 q 335 967 326 964 q 356 970 346 968 q 377 972 366 972 l 1073 972 z "},"H":{"ha":1058,"x_min":-56,"x_max":1138,"o":"m 544 972 l 439 585 l 696 585 l 800 972 l 1138 972 l 878 1 l 540 1 l 652 423 l 396 423 l 283 1 l -56 1 l 203 972 l 544 972 z "},"I":{"ha":460,"x_min":-33,"x_max":568,"o":"m 227 970 l 568 972 l 308 0 l -33 0 l 227 970 z "},"J":{"ha":783,"x_min":-114,"x_max":876,"o":"m 876 972 l 677 229 q 670 205 674 217 q 662 182 666 193 q 650 158 656 170 q 639 136 644 146 q 625 115 632 125 q 610 98 617 106 q 593 81 602 90 q 575 65 583 72 q 557 53 567 60 q 537 41 547 46 q 515 29 528 34 q 492 20 503 24 q 464 12 479 16 q 433 7 449 8 q 398 3 416 4 q 362 1 380 1 l -114 1 l -71 161 l 245 161 q 265 163 255 161 q 282 168 275 165 q 311 187 298 176 q 321 199 316 193 q 328 212 326 205 q 334 225 331 217 q 338 239 336 233 l 534 972 l 876 972 z "},"K":{"ha":1150,"x_min":-58,"x_max":1104,"o":"m 201 972 l 541 972 l 425 537 l 888 972 l 1104 972 l 772 688 l 966 0 l 564 0 l 472 412 l 363 311 l 281 1 l -58 1 l 201 972 z "},"L":{"ha":871,"x_min":-45,"x_max":742,"o":"m 214 972 l 557 972 l 339 159 l 742 159 l 700 1 l -45 1 l 214 972 z "},"M":{"ha":1358,"x_min":-53,"x_max":1424,"o":"m 206 972 l 643 972 l 666 419 l 998 972 l 1424 972 l 1164 0 l 827 0 l 1035 776 l 574 1 l 339 1 l 300 768 l 94 1 l -53 1 l 206 972 z "},"N":{"ha":1089,"x_min":-56,"x_max":1168,"o":"m 203 974 l 647 974 l 803 179 l 1016 974 l 1168 974 l 907 3 l 464 3 l 307 812 l 90 3 l -56 3 l 203 974 z "},"O":{"ha":1076,"x_min":-14,"x_max":1101,"o":"m 408 974 l 939 974 q 985 970 963 974 q 1007 964 997 967 q 1025 956 1017 960 q 1044 946 1035 952 q 1061 935 1053 940 q 1074 918 1067 928 q 1085 898 1081 907 q 1093 878 1089 888 q 1097 854 1096 867 q 1101 827 1100 842 q 1100 798 1101 812 q 1097 776 1099 788 q 1093 751 1096 764 q 1088 725 1090 739 q 1081 697 1085 711 l 970 279 q 961 250 966 264 q 951 221 956 235 q 941 195 947 208 q 929 170 935 182 q 916 142 924 155 q 899 117 907 129 q 880 93 890 104 q 863 72 871 81 q 830 45 848 57 q 796 24 812 33 q 773 14 785 19 q 749 8 761 9 q 724 5 736 7 q 697 3 711 3 l 127 3 q 106 3 117 3 q 87 7 95 4 q 68 12 77 8 q 53 20 60 16 q 35 33 43 26 q 20 47 26 39 q 8 64 14 56 q 0 84 3 73 q -5 102 -3 92 q -9 121 -8 111 q -12 141 -11 130 q -12 163 -14 152 q -12 182 -12 172 q -9 203 -12 193 q -6 223 -8 213 q -3 243 -4 233 l 125 723 q 134 751 129 736 q 142 779 138 766 q 154 803 148 791 q 165 826 160 815 q 179 849 171 838 q 194 871 187 860 q 210 890 201 882 q 227 906 218 899 q 244 921 235 914 q 263 935 254 928 q 283 945 273 940 q 302 955 293 951 q 328 962 315 959 q 355 968 342 966 q 382 972 368 970 q 408 974 396 974 m 548 812 q 535 811 541 812 q 524 808 529 810 q 512 802 518 806 q 502 796 506 799 q 491 786 496 792 q 481 774 486 780 q 475 761 479 768 q 469 749 472 754 l 326 210 q 325 201 324 206 q 326 193 326 197 q 330 184 327 189 q 334 176 332 179 q 342 170 338 174 q 349 165 346 167 q 357 161 353 163 q 366 160 362 160 l 548 160 q 557 161 552 160 q 567 165 563 163 q 578 171 572 167 q 587 179 583 175 q 595 186 591 182 q 602 195 600 191 q 608 205 605 199 q 612 214 610 210 l 758 761 q 760 770 760 765 q 760 780 760 776 q 756 789 758 784 q 751 796 754 793 q 745 802 749 799 q 738 807 742 806 q 730 810 734 808 q 722 812 726 812 l 548 812 z "},"P":{"ha":1043,"x_min":-53,"x_max":1082,"o":"m 206 971 l 925 971 q 943 970 933 971 q 963 968 954 970 q 982 964 972 967 q 1001 960 991 962 q 1017 953 1009 958 q 1032 944 1025 948 q 1047 932 1040 939 q 1059 920 1054 925 q 1067 906 1063 913 q 1073 894 1072 899 q 1078 878 1076 887 q 1081 861 1080 869 q 1082 844 1082 853 q 1080 823 1082 834 q 1078 801 1080 812 q 1072 777 1076 789 l 1008 536 q 1000 513 1004 525 q 993 492 997 502 q 983 473 989 481 q 972 456 978 464 q 962 439 968 448 q 949 426 955 431 q 937 412 944 419 q 922 400 929 406 q 906 389 914 395 q 891 380 898 384 q 873 371 883 376 q 856 363 864 366 q 832 357 844 359 q 810 353 821 354 q 788 349 800 350 q 766 349 776 349 l 377 349 l 283 3 l -53 3 l 206 971 m 500 811 l 419 509 l 620 509 q 629 510 624 509 q 636 514 633 511 q 646 519 642 515 q 654 528 651 524 q 661 536 656 532 q 667 545 665 541 q 671 554 669 549 q 674 563 673 559 l 728 764 q 730 774 730 769 q 730 783 730 779 q 728 791 730 787 q 724 798 726 795 q 720 803 723 800 q 715 807 718 806 q 708 810 712 808 q 701 811 704 811 l 500 811 z "},"Q":{"ha":1074,"x_min":0,"x_max":1116,"o":"m 735 810 l 556 810 q 547 808 552 810 q 536 806 541 807 q 526 800 532 803 q 515 792 519 796 q 507 783 511 788 q 499 774 502 779 q 494 765 496 770 q 490 755 491 760 l 345 213 q 343 204 343 209 q 343 195 343 199 q 347 186 345 191 q 353 178 350 182 q 359 172 355 175 q 366 167 362 168 q 374 163 369 164 q 384 161 380 161 l 465 161 l 433 302 l 563 302 l 595 172 q 604 177 600 174 q 610 184 608 180 q 614 188 612 186 q 617 193 617 190 q 618 197 617 194 q 621 202 620 199 l 772 766 q 773 783 774 774 q 769 790 772 787 q 764 796 766 793 q 758 800 761 798 q 751 806 755 803 q 743 808 747 807 q 735 810 739 810 m 408 974 l 971 974 q 999 972 986 974 q 1024 967 1012 970 q 1045 958 1035 963 q 1063 947 1055 952 q 1078 932 1072 940 q 1090 916 1085 924 q 1100 898 1096 907 q 1107 878 1104 888 q 1112 861 1109 869 q 1114 845 1114 853 q 1115 827 1114 837 q 1116 810 1116 818 q 1114 787 1115 799 q 1112 764 1114 774 q 1107 741 1109 753 q 1103 719 1105 728 l 979 258 q 972 235 977 247 q 963 210 968 222 q 951 185 958 198 q 940 160 945 172 q 928 141 935 151 q 917 123 922 132 q 905 105 911 114 q 891 88 898 96 q 876 70 884 79 q 859 54 867 61 q 839 39 849 46 q 819 26 829 31 q 800 16 810 20 q 780 8 789 11 q 758 3 769 5 q 735 1 746 1 l 642 1 l 674 -122 l 536 -122 l 505 1 l 151 1 q 125 3 137 1 q 103 7 113 4 q 83 13 92 8 q 65 22 73 18 q 50 31 57 26 q 37 43 43 37 q 26 57 31 49 q 18 72 20 65 q 10 89 14 80 q 5 106 7 98 q 1 123 3 114 q 0 141 0 133 q 0 190 0 165 q 4 214 1 202 q 9 237 7 227 l 142 732 q 148 751 144 742 q 155 772 152 761 q 164 792 159 783 q 174 812 170 802 q 185 831 179 822 q 198 850 191 841 q 213 870 205 860 q 228 888 221 880 q 245 904 236 897 q 260 918 254 911 q 278 932 269 925 q 297 944 288 939 q 323 956 309 949 q 350 966 336 962 q 378 972 362 970 q 408 974 393 974 z "},"R":{"ha":1114,"x_min":-56,"x_max":1092,"o":"m 203 971 l 935 971 q 983 967 960 971 q 1023 958 1005 963 q 1053 940 1039 951 q 1076 916 1067 929 q 1082 901 1080 910 q 1088 884 1085 892 q 1090 864 1089 875 q 1092 844 1092 853 q 1087 808 1090 827 q 1078 766 1084 788 l 1025 567 q 1021 552 1023 560 q 1017 538 1019 544 q 1013 524 1016 532 q 1005 509 1009 515 q 998 494 1002 502 q 990 481 994 487 q 979 469 986 476 q 967 457 972 463 q 958 449 963 453 q 947 442 952 445 q 934 436 941 439 q 920 431 926 433 q 905 427 913 429 q 888 425 897 425 q 869 422 879 423 q 849 422 860 422 l 930 1 l 553 1 l 505 420 l 396 420 l 283 1 l -56 1 l 203 971 m 503 811 l 442 582 l 655 582 q 665 583 661 582 q 671 585 670 583 q 680 589 675 586 q 686 595 684 593 q 690 601 688 597 q 694 609 693 605 q 698 618 696 613 q 701 629 700 623 l 741 777 q 743 786 742 781 q 743 793 743 791 q 741 799 743 796 q 738 804 739 802 q 733 808 736 806 q 727 810 730 810 q 719 810 723 810 q 712 811 715 811 l 503 811 z "},"S":{"ha":963,"x_min":-38,"x_max":1010,"o":"m 1010 971 l 967 811 l 513 811 q 506 810 510 811 q 500 808 502 810 q 492 805 496 807 q 486 802 488 803 q 480 796 483 799 q 475 792 477 793 q 470 786 472 789 q 468 780 468 783 l 449 708 q 448 703 448 705 q 448 699 448 700 q 449 692 448 696 q 452 688 450 689 q 456 681 453 685 q 461 675 458 677 q 469 671 465 673 q 476 670 472 670 l 774 670 q 792 669 783 670 q 811 667 802 669 q 829 663 821 666 q 846 659 838 661 q 863 652 854 656 q 878 644 871 648 q 892 634 884 640 q 905 623 899 628 q 913 611 909 617 q 918 600 917 605 q 924 586 921 593 q 928 572 926 579 q 929 557 929 566 q 929 540 929 548 q 926 522 928 532 q 922 500 925 511 l 842 203 q 838 189 841 197 q 833 174 836 180 q 828 159 831 167 q 822 145 825 151 q 811 125 817 134 q 800 107 806 115 q 787 90 795 99 q 774 75 780 81 q 743 47 760 60 q 708 24 727 34 q 684 14 696 19 q 658 7 671 8 q 632 2 646 4 q 605 0 618 0 l -38 0 l 4 161 l 457 161 q 465 162 461 161 q 473 164 469 163 q 483 167 479 165 q 491 171 487 168 q 498 175 494 172 q 505 180 502 178 q 510 187 507 183 q 513 195 513 191 l 536 281 q 537 288 537 283 q 536 294 537 292 q 532 300 534 297 q 528 305 530 302 q 524 309 526 307 q 518 313 521 312 q 511 315 514 315 q 503 316 507 316 l 175 316 q 158 317 167 316 q 141 319 149 317 q 125 322 133 320 q 113 327 118 324 q 100 332 106 328 q 88 339 94 336 q 79 348 83 343 q 71 357 75 353 q 58 380 64 368 q 54 393 56 385 q 53 410 53 401 q 53 440 52 423 q 60 476 54 457 l 141 780 q 146 797 144 788 q 153 814 149 806 q 161 831 156 822 q 171 849 165 841 q 181 866 175 857 q 193 883 187 875 q 207 899 199 891 q 222 914 214 907 q 235 926 228 921 q 250 937 243 932 q 266 947 258 943 q 282 956 274 952 q 299 962 290 959 q 316 967 308 964 q 334 970 324 968 q 354 971 345 971 l 1010 971 z "},"T":{"ha":920,"x_min":113,"x_max":1006,"o":"m 156 974 l 1006 974 l 963 810 l 708 810 l 491 0 l 152 0 l 369 810 l 113 810 l 156 974 z "},"U":{"ha":1066,"x_min":-5,"x_max":1146,"o":"m 197 974 l 537 974 l 342 243 q 339 229 340 236 q 339 217 338 222 q 341 204 339 210 q 346 193 343 198 q 353 181 349 187 q 363 171 358 175 q 376 164 369 167 q 391 161 382 161 l 713 161 q 729 162 722 161 q 742 165 736 163 q 755 171 749 167 q 766 178 761 175 q 778 187 772 182 q 787 199 784 193 q 794 213 791 205 q 800 227 798 221 l 1000 974 l 1146 974 l 955 258 q 948 235 952 247 q 941 213 944 224 q 932 189 937 201 q 921 165 926 176 q 910 142 917 155 q 897 121 903 130 q 880 99 888 110 q 863 77 872 88 q 848 61 856 69 q 830 47 840 53 q 811 35 822 42 q 791 24 800 28 q 765 14 779 19 q 738 7 751 8 q 707 2 723 4 q 674 0 690 0 l 159 0 q 129 1 144 0 q 103 5 114 3 q 80 12 91 7 q 60 22 69 16 q 44 34 52 27 q 30 47 37 41 q 19 64 24 56 q 9 81 14 73 q 2 102 5 91 q -3 125 -1 114 q -4 149 -3 137 q -5 174 -5 161 q -3 198 -4 186 q 0 222 -3 210 q 3 248 0 235 q 8 271 5 260 l 197 974 z "},"V":{"ha":1107,"x_min":130,"x_max":1185,"o":"m 197 0 l 130 974 l 491 974 l 545 206 l 1023 974 l 1185 974 l 578 0 l 197 0 z "},"W":{"ha":1468,"x_min":96,"x_max":1529,"o":"m 96 0 l 126 974 l 467 974 l 441 336 l 753 974 l 1092 974 l 1069 346 l 1381 974 l 1529 974 l 1051 0 l 723 0 l 743 646 l 423 0 l 96 0 z "},"X":{"ha":1128,"x_min":-137,"x_max":1198,"o":"m 353 427 l 122 974 l 543 974 l 662 690 l 990 974 l 1198 974 l 718 562 l 945 0 l 530 0 l 412 296 l 62 0 l -137 0 l 353 427 z "},"Y":{"ha":1078,"x_min":115,"x_max":1158,"o":"m 311 377 l 115 974 l 515 974 l 650 574 l 983 974 l 1158 974 l 646 362 l 549 0 l 210 0 l 311 377 z "},"Z":{"ha":994,"x_min":-125,"x_max":1078,"o":"m 221 974 l 1078 974 l 399 161 l 783 161 l 739 0 l -125 0 l 552 810 l 178 810 l 221 974 z "},"a":{"ha":963,"x_min":-9,"x_max":963,"o":"m 947 469 l 822 3 l 532 3 l 532 79 q 529 71 532 75 q 525 65 526 66 q 519 58 522 62 q 514 53 515 54 q 507 45 511 49 q 500 39 503 41 q 494 33 498 37 q 487 27 490 28 q 469 16 479 20 q 450 8 460 11 q 432 5 442 7 q 412 3 422 3 l 110 3 q 68 7 85 3 q 50 12 58 8 q 34 19 42 15 q 21 28 27 23 q 9 39 15 33 q 2 53 5 45 q -4 69 -1 61 q -8 87 -7 77 q -9 109 -9 98 q -9 131 -9 119 q -7 153 -8 142 q -3 176 -5 164 q 1 199 0 189 q 7 222 4 210 q 12 243 9 233 q 17 263 14 252 q 23 283 20 274 q 30 304 26 293 q 37 327 34 316 q 45 348 41 338 q 56 369 50 358 q 66 389 60 378 q 79 408 73 400 q 94 427 85 418 q 111 442 103 435 q 132 457 121 450 q 153 468 142 464 q 194 480 172 476 q 239 484 216 484 l 575 484 q 585 486 579 484 q 595 490 591 487 q 606 496 601 491 q 617 505 612 500 q 623 510 620 506 q 629 518 627 514 q 634 526 632 522 q 637 533 636 530 q 637 549 640 541 q 635 557 636 553 q 631 563 633 560 q 625 568 628 566 q 618 574 623 571 q 604 578 612 578 l 156 578 l 193 718 l 817 718 q 843 716 830 718 q 867 713 856 715 q 886 707 876 711 q 905 699 897 703 q 921 688 913 694 q 935 674 929 681 q 945 659 940 667 q 952 642 949 650 q 958 625 956 633 q 962 608 960 616 q 963 589 963 598 q 963 570 963 579 q 962 544 963 557 q 958 518 960 530 q 953 493 955 506 q 947 469 951 480 m 586 346 l 426 346 q 414 344 420 346 q 404 340 408 342 q 393 334 399 338 q 381 327 387 331 q 372 318 377 323 q 365 309 368 313 q 358 298 361 304 q 354 289 355 293 l 327 187 q 326 180 326 184 q 326 174 326 176 q 328 165 327 170 q 330 159 328 161 q 336 152 332 156 q 343 146 339 148 q 351 142 346 144 q 358 141 355 141 l 490 141 q 496 142 492 141 q 505 145 500 142 q 515 151 510 146 q 524 157 519 155 q 530 163 526 159 q 534 170 533 167 q 540 178 537 174 q 543 184 543 182 l 586 346 z "},"b":{"ha":985,"x_min":-73,"x_max":954,"o":"m 515 974 l 446 715 q 537 715 491 715 q 628 715 583 715 q 719 715 673 715 q 810 715 765 715 q 834 714 823 715 q 852 712 845 713 q 866 709 860 711 q 875 707 872 708 q 882 704 879 705 q 887 703 886 703 q 887 701 887 701 q 886 700 887 700 q 900 692 892 697 q 914 682 907 688 q 924 670 920 677 q 935 658 929 663 q 948 626 943 643 q 954 590 954 609 q 954 570 954 581 q 951 549 954 559 q 949 528 951 540 q 943 503 947 515 l 864 208 q 856 183 860 195 q 848 160 852 171 q 838 139 844 149 q 827 121 833 129 q 812 99 819 110 q 798 80 804 88 q 779 62 788 71 q 761 49 770 54 q 745 37 754 42 q 727 27 735 31 q 709 18 718 23 q 690 12 700 14 q 668 5 678 8 q 651 3 658 3 q 638 1 644 1 q 629 0 632 0 q 622 0 625 0 q 617 0 618 0 q 445 0 532 0 q 273 0 358 0 q 99 0 186 0 q -73 0 12 0 l 186 974 l 515 974 m 591 575 l 448 575 q 433 571 439 575 q 422 565 427 568 q 415 559 418 562 q 408 552 411 556 q 401 544 404 548 q 397 535 399 540 q 393 526 395 530 l 301 184 q 301 170 298 176 q 304 161 302 165 q 308 156 307 157 q 313 150 309 153 q 317 145 316 146 q 334 141 326 141 l 477 141 q 484 142 480 141 q 491 145 488 142 q 501 150 496 146 q 509 156 506 153 q 515 163 511 159 q 519 170 518 167 q 528 186 526 178 l 620 528 q 621 534 621 530 q 621 543 621 538 q 618 551 620 547 q 616 559 617 556 q 612 565 614 562 q 606 570 609 568 q 600 573 604 571 q 591 575 595 575 z "},"c":{"ha":802,"x_min":-5,"x_max":859,"o":"m 859 713 l 822 574 l 494 574 q 482 572 488 574 q 471 568 476 570 q 459 562 465 566 q 448 555 453 559 q 437 546 442 551 q 427 537 431 541 q 421 526 425 532 q 418 517 418 521 l 331 194 q 330 184 330 190 q 331 175 330 179 q 335 165 332 170 q 340 157 338 160 q 349 150 345 153 q 358 145 354 146 q 368 142 362 142 q 378 141 373 141 l 705 141 l 667 0 l 138 0 q 112 1 125 0 q 90 5 99 3 q 68 12 79 7 q 50 20 58 16 q 37 32 43 26 q 24 45 30 38 q 14 59 19 50 q 5 76 9 68 q 2 90 4 81 q -1 106 0 98 q -4 138 -5 122 q -3 155 -4 146 q -1 172 -3 164 q 0 189 -1 180 q 3 206 1 198 l 83 503 q 89 522 85 513 q 96 543 92 532 q 106 563 100 552 q 118 583 113 574 q 131 603 123 593 q 144 623 138 613 q 161 641 152 632 q 178 658 170 650 q 195 670 186 663 q 212 682 203 677 q 231 693 221 688 q 251 703 241 699 q 267 707 258 704 q 283 711 275 709 q 301 713 292 712 q 319 713 311 713 l 859 713 z "},"d":{"ha":972,"x_min":-38,"x_max":1057,"o":"m 582 575 l 435 575 q 429 574 433 575 q 422 571 425 572 q 412 565 416 568 q 404 559 407 562 q 398 552 401 556 q 392 544 395 548 q 387 536 389 540 q 384 528 385 532 l 292 183 q 291 176 292 180 q 290 168 290 172 q 294 160 292 164 q 297 155 296 156 q 301 149 298 152 q 307 144 304 145 q 321 140 315 140 l 465 140 q 473 140 469 140 q 480 144 477 141 q 489 149 484 145 q 495 155 494 152 q 503 161 499 157 q 507 170 506 165 q 513 178 511 174 q 515 184 515 182 l 609 530 q 610 537 609 533 q 610 545 610 541 q 607 553 609 549 q 605 560 605 557 q 601 566 604 563 q 595 571 598 568 q 589 574 593 572 q 582 575 586 575 m 1057 972 l 796 0 l 102 0 q 76 1 87 0 q 58 1 65 1 q 45 4 50 3 q 35 7 39 5 q 30 10 33 8 q 27 14 27 12 q 24 16 26 15 q 22 18 23 18 q 8 26 15 22 q -4 38 1 31 q -14 50 -9 43 q -23 64 -19 57 q -28 77 -26 69 q -34 94 -31 85 q -37 110 -35 102 q -38 126 -38 118 q -38 143 -38 134 q -37 160 -38 152 q -35 177 -37 168 q -31 194 -33 186 l 53 511 q 60 535 56 524 q 68 557 64 547 q 79 578 73 568 q 90 598 84 589 q 102 616 95 608 q 115 632 109 625 q 128 647 121 639 q 142 661 136 655 q 160 673 151 666 q 178 684 170 680 q 197 694 187 689 q 216 701 208 699 q 239 709 228 705 q 256 713 250 712 q 269 716 263 715 q 279 718 275 718 q 286 717 282 718 q 289 716 289 716 q 292 715 290 716 q 293 715 293 715 q 384 715 338 715 q 475 715 430 715 q 566 715 519 715 q 656 715 612 715 l 726 972 l 1057 972 z "},"e":{"ha":970,"x_min":-9,"x_max":982,"o":"m 850 716 q 874 715 863 716 q 897 712 886 713 q 917 706 906 709 q 937 697 928 703 q 950 687 944 693 q 960 675 956 681 q 970 661 966 669 q 977 644 974 652 q 980 631 978 639 q 982 616 982 623 q 982 600 982 609 q 981 583 982 591 q 977 559 979 572 q 971 534 974 547 l 902 281 l 350 281 l 330 203 q 328 193 328 198 q 330 182 328 187 q 333 171 330 176 q 339 161 336 165 q 347 153 342 157 q 355 146 351 148 q 365 142 359 144 q 376 141 370 141 l 833 141 l 795 1 l 113 1 q 92 2 103 1 q 72 4 81 3 q 53 9 62 5 q 35 18 43 14 q 22 26 28 20 q 11 37 15 31 q 3 50 7 42 q -4 66 -1 58 q -8 79 -7 72 q -9 95 -9 87 q -9 113 -9 103 q -9 133 -9 123 q -7 147 -8 140 q -5 161 -7 155 q -1 178 -3 170 q 1 195 0 187 l 87 517 q 92 533 90 525 q 96 548 95 541 q 102 562 99 555 q 107 576 106 570 q 118 598 113 587 q 129 618 123 609 q 142 637 134 628 q 155 654 149 647 q 171 670 163 662 q 187 684 179 678 q 205 694 195 689 q 225 703 216 700 q 243 708 233 705 q 263 712 254 711 q 283 715 273 713 q 301 716 293 716 l 850 716 m 621 419 l 651 532 q 652 538 652 534 q 652 545 652 543 q 650 553 651 549 q 647 560 648 557 q 643 566 646 563 q 637 571 640 568 q 631 574 635 572 q 625 575 628 575 l 468 575 q 460 574 464 575 q 454 571 457 572 q 446 566 450 568 q 439 562 442 563 q 433 555 437 559 q 427 548 430 551 q 419 533 420 540 l 389 419 l 621 419 z "},"f":{"ha":777,"x_min":3,"x_max":871,"o":"m 871 971 l 834 834 l 597 834 q 587 833 591 834 q 581 833 583 833 q 574 831 578 833 q 568 829 571 830 q 561 823 564 826 q 556 817 557 819 q 553 810 555 814 q 549 803 551 806 l 526 718 l 788 718 l 751 579 l 490 579 l 335 3 l 3 3 l 157 579 l 22 579 l 58 716 l 194 716 l 214 791 q 218 804 216 796 q 222 818 221 812 q 228 831 224 823 q 236 845 232 838 q 245 862 240 853 q 255 879 251 871 q 268 896 260 887 q 282 911 275 905 q 295 923 288 917 q 309 935 302 929 q 326 945 317 940 q 343 955 335 951 q 362 962 353 959 q 381 967 372 964 q 401 970 391 968 q 425 971 412 971 l 871 971 z "},"g":{"ha":970,"x_min":-33,"x_max":1057,"o":"m 652 575 l 491 575 q 486 574 488 575 q 480 571 483 572 q 475 566 477 568 q 469 560 472 563 q 465 554 468 557 q 463 548 463 551 q 459 540 461 544 q 457 534 457 536 l 362 182 q 361 175 362 179 q 362 168 361 171 q 364 160 362 164 q 368 153 366 156 q 372 148 369 151 q 377 144 374 145 q 384 140 380 141 q 391 140 388 140 l 540 140 q 547 140 543 140 q 553 142 551 141 q 560 146 556 144 q 566 152 564 149 q 572 157 568 153 q 578 164 576 161 q 581 171 579 167 q 583 178 583 175 l 678 532 q 680 540 680 536 q 680 547 681 544 q 677 554 680 551 q 674 560 675 557 q 670 566 673 563 q 665 571 667 568 q 659 574 662 572 q 652 575 655 575 m 844 -69 q 839 -88 842 -79 q 831 -106 836 -98 q 822 -124 827 -115 q 811 -141 817 -133 q 801 -158 807 -149 q 789 -174 795 -167 q 776 -188 784 -180 q 761 -202 768 -195 q 747 -214 754 -208 q 731 -227 739 -221 q 717 -237 724 -232 q 703 -245 709 -241 q 683 -254 693 -250 q 665 -260 673 -258 q 646 -265 655 -263 q 628 -267 636 -267 l -33 -267 l 4 -129 l 438 -129 q 454 -127 446 -129 q 469 -123 463 -125 q 482 -116 476 -121 q 494 -106 488 -111 q 504 -96 499 -102 q 513 -84 509 -90 q 522 -60 519 -72 l 540 1 l 167 1 q 144 2 155 1 q 126 5 134 3 q 107 11 115 7 q 92 19 99 15 q 79 28 85 23 q 68 38 72 33 q 57 50 62 43 q 49 62 52 56 q 37 90 42 75 q 33 104 34 96 q 31 121 31 113 q 30 141 30 130 q 31 161 30 152 q 35 182 33 171 q 39 203 37 193 l 123 518 q 128 535 125 526 q 134 552 132 544 q 143 570 138 560 q 152 587 148 579 q 162 604 156 595 q 175 621 168 613 q 189 637 182 629 q 203 652 197 646 q 220 667 212 661 q 239 681 229 674 q 257 692 247 686 q 277 703 267 699 q 296 709 286 707 q 315 715 305 712 q 334 718 324 716 q 355 720 345 720 l 1057 720 l 844 -69 z "},"h":{"ha":994,"x_min":-68,"x_max":956,"o":"m -68 1 l 191 975 l 521 975 l 452 715 l 814 715 q 857 711 837 715 q 876 704 867 708 q 891 696 884 700 q 905 686 898 692 q 918 674 913 680 q 928 661 924 667 q 937 647 933 654 q 945 632 941 640 q 949 616 948 624 q 954 598 952 608 q 955 581 955 589 q 956 557 956 570 q 955 534 956 545 q 952 510 954 522 q 948 487 951 498 l 818 0 l 490 0 l 633 537 q 633 544 633 540 q 633 551 633 548 q 631 557 632 553 q 628 563 629 560 q 622 567 625 564 q 616 571 618 570 q 610 574 614 572 q 604 575 606 575 l 446 575 q 439 574 444 575 q 433 571 435 572 q 426 565 430 568 q 419 559 422 562 q 414 552 416 556 q 408 545 411 548 q 405 537 407 541 q 401 530 403 533 l 260 1 l -68 1 z "},"i":{"ha":427,"x_min":-49,"x_max":534,"o":"m 213 972 l 534 972 l 484 787 l 163 787 l 213 972 m 469 718 l 277 0 l -49 0 l 142 718 l 469 718 z "},"j":{"ha":442,"x_min":-381,"x_max":585,"o":"m 262 972 l 585 972 l 536 788 l 213 788 l 262 972 m 519 719 l 301 -96 q 297 -111 300 -103 q 292 -125 294 -118 q 286 -138 289 -130 q 279 -152 282 -145 q 269 -168 275 -160 q 259 -183 263 -176 q 245 -199 252 -191 q 231 -213 239 -206 q 214 -225 222 -218 q 195 -237 205 -232 q 175 -248 186 -243 q 152 -256 164 -254 q 138 -260 145 -258 q 123 -262 130 -262 q 109 -264 117 -263 q 92 -264 100 -264 l -381 -264 l -345 -127 l -85 -127 q -76 -125 -81 -127 q -65 -122 -71 -123 q -55 -116 -61 -119 q -45 -109 -49 -113 q -37 -99 -41 -104 q -30 -90 -33 -94 q -22 -79 -26 -84 q -18 -68 -19 -73 l 191 719 l 519 719 z "},"k":{"ha":1038,"x_min":-69,"x_max":941,"o":"m 382 467 l 732 713 l 941 713 l 700 543 l 859 0 l 467 0 l 401 335 l 334 282 l 258 0 l -69 0 l 190 972 l 518 972 l 382 467 z "},"l":{"ha":427,"x_min":-53,"x_max":537,"o":"m 537 972 l 277 0 l -53 0 l 206 972 l 537 972 z "},"m":{"ha":1407,"x_min":-38,"x_max":1389,"o":"m 152 715 l 452 715 l 438 663 q 447 674 442 669 q 456 684 452 680 q 467 692 461 688 q 477 700 472 697 q 488 705 481 703 q 499 711 494 708 q 509 713 503 712 q 519 715 515 715 l 838 715 q 860 713 850 715 q 876 707 869 711 q 889 697 883 703 q 899 686 895 692 q 905 677 902 682 q 909 667 907 671 q 911 657 910 662 q 913 648 913 652 q 914 642 914 644 q 914 637 914 639 q 914 635 914 635 q 914 637 914 635 q 921 650 917 643 q 929 665 925 658 q 937 677 932 670 q 947 688 943 684 q 958 699 952 693 q 970 708 964 705 q 983 714 977 712 q 998 716 990 716 l 1260 716 q 1286 714 1274 716 q 1309 711 1299 712 q 1328 703 1318 708 q 1344 693 1337 699 q 1358 681 1351 688 q 1369 667 1364 674 q 1377 652 1373 661 q 1383 635 1381 643 q 1387 620 1385 628 q 1388 604 1389 612 q 1388 586 1388 595 q 1388 568 1389 576 q 1386 546 1388 557 q 1382 524 1385 534 q 1377 501 1379 513 q 1373 480 1375 490 l 1245 1 l 945 1 l 1088 536 q 1089 545 1089 540 q 1089 552 1089 549 q 1087 558 1088 555 q 1085 564 1086 562 q 1080 568 1084 566 q 1076 571 1077 570 q 1069 573 1073 572 q 1063 574 1066 574 l 939 574 q 931 573 935 574 q 925 571 928 572 q 919 566 922 568 q 913 563 916 564 q 908 557 911 560 q 903 551 905 553 q 900 544 902 548 q 898 538 898 540 l 754 1 l 453 1 l 595 533 q 596 540 595 536 q 598 548 597 544 q 597 555 598 552 q 594 562 595 559 q 590 567 593 564 q 585 572 587 570 q 577 575 582 574 q 567 576 572 576 l 448 576 q 441 575 445 576 q 434 572 437 574 q 427 566 431 570 q 420 560 423 563 q 415 553 418 557 q 410 547 412 549 q 406 538 408 543 q 403 532 404 534 l 260 0 l -38 0 l 152 715 z "},"n":{"ha":993,"x_min":-37,"x_max":991,"o":"m 437 533 l 293 0 l -37 0 l 153 713 l 846 713 q 894 707 872 713 q 933 690 916 701 q 960 667 949 681 q 979 635 971 652 q 984 620 982 628 q 989 604 986 612 q 991 585 990 594 q 991 564 991 575 q 990 543 990 553 q 987 521 990 532 q 983 497 986 510 q 978 472 981 484 l 852 0 l 524 0 l 666 532 q 667 542 667 537 q 667 549 667 547 q 665 557 666 553 q 662 563 663 560 q 656 568 659 566 q 650 572 652 571 q 641 574 646 574 q 632 575 636 575 l 490 575 q 483 574 487 575 q 475 572 479 574 q 465 568 469 571 q 458 564 461 566 q 452 559 456 562 q 445 552 449 556 q 440 543 442 548 q 437 533 438 538 z "},"o":{"ha":981,"x_min":-14,"x_max":993,"o":"m 864 713 q 883 713 873 713 q 901 711 892 712 q 918 707 909 709 q 933 703 926 704 q 947 697 941 701 q 958 689 954 693 q 968 678 963 685 q 978 666 974 671 q 984 652 982 661 q 989 635 986 643 q 991 614 990 625 q 991 591 993 604 q 991 576 991 585 q 987 560 990 568 q 983 542 985 552 q 979 522 982 532 l 888 184 q 882 164 886 175 q 876 145 879 153 q 868 127 872 136 q 860 110 864 118 q 850 92 856 100 q 837 75 844 83 q 825 60 831 66 q 811 47 818 53 q 798 37 806 42 q 784 27 791 31 q 768 18 777 23 q 753 12 760 14 q 733 7 743 9 q 713 3 723 4 q 692 1 703 1 q 673 0 682 0 l 115 0 q 95 1 106 0 q 75 4 84 1 q 56 9 65 5 q 38 18 46 14 q 25 26 31 22 q 15 37 19 31 q 5 48 9 42 q -3 61 0 54 q -7 75 -4 66 q -11 91 -9 83 q -13 108 -12 99 q -12 127 -14 117 q -12 138 -12 133 q -11 151 -12 144 q -8 164 -9 156 q -4 179 -7 172 l 87 524 q 92 542 90 533 q 98 559 95 551 q 103 575 99 567 q 110 590 107 583 q 122 612 115 601 q 134 632 129 623 q 148 649 141 642 q 163 663 155 656 q 178 677 170 670 q 194 688 187 684 q 212 696 202 692 q 228 703 221 701 q 246 707 237 704 q 263 711 255 709 q 280 713 271 712 q 297 713 289 713 l 864 713 m 629 572 l 450 572 q 441 568 446 572 q 435 563 438 566 q 430 559 431 560 q 426 553 429 556 q 423 548 423 549 q 420 541 422 545 q 418 536 419 537 l 324 184 q 323 176 323 180 q 324 170 323 172 q 327 161 326 165 q 330 156 328 157 q 334 150 331 153 q 339 145 336 146 q 353 141 346 141 l 509 141 q 516 142 513 141 q 524 145 519 142 q 532 149 528 146 q 540 155 537 152 q 547 160 544 156 q 552 167 551 164 q 558 175 556 171 q 560 182 560 179 l 655 534 q 656 541 656 537 q 656 548 656 545 q 653 554 655 551 q 650 560 651 557 q 646 564 648 562 q 640 568 643 567 q 634 571 637 570 q 629 572 631 572 z "},"p":{"ha":982,"x_min":-73,"x_max":1023,"o":"m 886 715 q 905 713 895 715 q 922 711 914 712 q 941 705 932 708 q 958 699 951 703 q 981 683 970 692 q 998 663 991 674 q 1008 645 1004 655 q 1016 625 1013 635 q 1021 601 1020 614 q 1021 574 1023 587 q 1021 556 1021 566 q 1017 537 1020 547 q 1014 517 1016 528 q 1009 495 1012 506 l 935 217 q 928 196 932 206 q 922 176 925 186 q 913 156 918 165 q 905 138 909 146 q 892 118 899 129 q 879 98 886 107 q 865 79 872 88 q 849 64 857 71 q 834 50 842 57 q 819 38 826 43 q 802 28 811 33 q 785 19 793 23 q 762 11 773 15 q 739 5 750 7 q 717 1 728 3 q 694 0 705 0 l 324 0 l 252 -269 l -73 -269 l 189 715 l 886 715 m 663 574 l 510 574 q 503 572 507 574 q 496 570 499 571 q 490 564 494 568 q 483 559 486 560 q 477 552 480 556 q 472 545 473 548 q 467 537 469 541 q 465 530 465 533 l 370 178 q 370 172 370 175 q 370 165 370 168 q 373 159 372 163 q 376 153 374 155 q 380 149 377 151 q 387 145 384 146 q 392 142 388 142 q 399 141 396 141 l 549 141 q 556 142 552 141 q 562 144 560 142 q 570 147 566 145 q 576 152 574 149 q 583 159 579 155 q 589 165 586 163 q 597 180 594 174 l 692 536 q 692 543 692 538 q 692 549 693 547 q 690 555 692 552 q 686 562 688 559 q 682 566 685 563 q 675 570 680 568 q 671 572 674 571 q 663 574 667 574 z "},"q":{"ha":971,"x_min":28,"x_max":1057,"o":"m 1057 715 l 793 -267 l 465 -267 l 537 0 l 172 0 q 149 1 160 0 q 129 4 138 1 q 110 9 119 5 q 92 18 100 14 q 77 27 84 22 q 65 38 71 33 q 55 50 60 43 q 45 64 50 57 q 39 77 42 69 q 34 94 37 85 q 31 110 33 102 q 28 126 28 118 q 28 143 28 134 q 30 160 28 152 q 32 178 30 168 q 35 195 34 187 l 121 513 q 127 532 123 522 q 134 552 130 541 q 144 572 138 563 q 155 591 149 582 q 167 610 160 601 q 180 628 174 620 q 197 646 189 637 q 214 662 206 655 q 227 673 220 667 q 243 682 235 678 q 259 692 250 688 q 277 700 269 697 q 296 705 286 703 q 313 711 305 708 q 334 713 323 712 q 355 715 346 715 l 1057 715 m 651 574 l 503 574 q 496 573 500 574 q 491 571 492 572 q 484 566 487 568 q 477 562 480 563 q 469 555 473 559 q 463 547 465 551 q 457 538 460 543 q 453 529 454 533 l 361 182 q 359 175 359 179 q 359 168 359 171 q 362 160 361 164 q 365 155 363 156 q 370 149 366 152 q 374 145 373 146 q 381 142 377 142 q 388 141 385 141 l 538 141 q 553 145 547 141 q 562 151 557 146 q 570 157 567 155 q 575 162 572 159 q 579 168 578 165 q 583 174 581 170 q 585 180 585 178 l 681 536 q 681 543 681 538 q 680 549 681 547 q 677 555 680 552 q 674 562 675 559 q 669 566 673 563 q 663 570 666 568 q 658 572 662 571 q 651 574 654 574 z "},"r":{"ha":745,"x_min":-20,"x_max":804,"o":"m 309 0 l -20 0 l 171 715 l 500 715 l 484 651 q 494 662 488 656 q 507 671 500 667 q 513 675 510 673 q 519 681 517 678 q 528 685 524 682 q 534 689 532 688 q 543 693 538 690 q 552 699 548 696 q 562 703 557 700 q 571 707 567 705 q 581 709 575 708 q 590 711 586 711 q 599 713 594 712 q 608 713 604 713 l 804 713 l 751 515 l 578 515 q 553 513 566 515 q 529 510 540 511 q 506 503 517 507 q 486 495 495 499 q 476 490 481 492 q 467 486 471 487 q 458 479 463 483 q 450 471 454 475 q 441 462 445 467 q 435 453 437 457 q 429 441 431 448 q 425 430 426 435 l 309 0 z "},"s":{"ha":916,"x_min":-30,"x_max":928,"o":"m 928 713 l 894 582 l 456 582 q 452 581 454 582 q 446 581 449 581 q 439 578 444 579 q 433 575 435 576 q 427 572 430 574 q 423 568 425 570 q 418 563 420 566 q 416 559 416 560 l 406 519 q 406 515 406 517 q 408 511 406 513 q 412 508 410 510 q 415 505 414 506 q 420 502 418 503 q 425 500 423 500 q 432 500 429 500 q 437 499 435 499 l 758 499 q 773 498 765 499 q 788 496 781 498 q 802 493 795 495 q 815 490 810 491 q 828 484 822 487 q 840 476 834 480 q 849 467 844 472 q 859 457 854 463 q 864 447 861 453 q 869 435 867 441 q 873 422 871 430 q 875 408 875 415 q 876 393 875 401 q 875 377 876 385 q 872 359 873 369 q 867 339 871 350 l 823 172 q 817 153 821 163 q 810 136 814 144 q 800 119 806 127 q 791 102 795 110 q 780 87 787 95 q 768 75 773 80 q 755 62 762 68 q 742 50 747 56 q 727 40 735 45 q 712 31 719 35 q 696 22 704 27 q 680 15 688 18 q 659 8 670 11 q 639 4 648 5 q 618 1 628 1 q 600 0 608 0 l -30 0 l 4 129 l 471 129 q 476 130 472 129 q 483 132 480 130 q 489 134 486 133 q 495 138 492 136 q 500 142 498 140 q 505 146 503 144 q 509 151 507 148 q 511 157 510 155 l 521 197 q 522 201 522 198 q 521 206 522 203 q 519 210 521 208 q 515 214 517 213 q 511 218 514 216 q 506 220 507 220 q 501 222 505 221 q 495 222 498 222 l 174 222 q 156 223 165 222 q 137 225 146 224 q 118 230 127 227 q 100 237 109 233 q 90 243 95 239 q 81 251 85 247 q 73 260 76 255 q 66 270 69 264 q 61 279 64 274 q 58 290 58 285 q 56 302 57 296 q 54 315 54 309 q 54 326 54 320 q 56 338 54 332 q 58 350 57 343 q 61 363 60 357 l 113 553 q 119 572 115 563 q 125 587 122 581 q 135 604 130 595 q 145 618 140 612 q 157 631 151 624 q 170 644 164 639 q 182 656 175 650 q 197 666 190 662 q 213 676 205 671 q 228 685 221 681 q 245 692 236 689 q 262 699 254 696 q 282 704 271 701 q 304 709 293 707 q 343 713 326 713 l 928 713 z "},"t":{"ha":779,"x_min":30,"x_max":799,"o":"m 579 869 l 537 715 l 799 715 l 762 576 l 500 576 l 393 178 q 392 171 392 175 q 391 164 392 167 q 393 157 392 161 q 395 152 393 153 q 399 147 396 149 q 404 144 401 145 q 425 140 412 140 l 663 140 l 625 1 l 191 1 q 165 3 178 1 q 141 7 152 4 q 121 14 130 9 q 103 24 111 19 q 93 34 98 28 q 84 45 88 39 q 75 56 79 50 q 68 68 71 61 q 64 83 66 75 q 60 99 61 91 q 58 116 58 107 q 57 133 57 125 q 58 146 58 140 q 60 159 58 152 q 63 172 61 164 q 66 186 65 180 l 171 576 l 30 576 l 66 715 l 205 715 l 247 869 l 579 869 z "},"u":{"ha":993,"x_min":15,"x_max":1042,"o":"m 483 716 l 339 179 q 338 172 338 176 q 339 165 338 168 q 342 157 340 161 q 345 152 343 153 q 351 147 347 149 q 357 144 354 145 q 363 140 359 141 q 370 140 366 140 l 518 140 q 525 140 521 140 q 532 142 529 141 q 541 146 537 144 q 548 151 545 148 q 554 155 551 152 q 560 161 557 159 q 565 168 563 164 q 568 175 567 172 l 712 715 l 1042 715 l 850 0 l 157 0 q 136 1 146 0 q 115 4 125 1 q 97 9 106 5 q 81 18 88 14 q 66 27 73 22 q 54 39 60 33 q 44 53 49 45 q 35 68 39 61 q 26 83 30 75 q 22 100 23 92 q 17 119 19 110 q 15 138 15 129 q 15 157 15 148 q 16 176 15 167 q 23 216 18 197 l 157 716 l 483 716 z "},"v":{"ha":936,"x_min":83,"x_max":989,"o":"m 178 0 l 83 716 l 441 716 l 505 182 l 846 716 l 989 716 l 528 0 l 178 0 z "},"w":{"ha":1351,"x_min":84,"x_max":1382,"o":"m 84 0 l 98 713 l 429 713 l 426 259 l 654 713 l 1034 713 l 1024 256 l 1261 713 l 1382 713 l 1031 0 l 688 0 l 703 545 l 427 0 l 84 0 z "},"x":{"ha":1021,"x_min":-92,"x_max":1067,"o":"m 121 715 l 543 715 l 624 534 l 854 716 l 1067 716 l 677 423 l 878 0 l 450 0 l 363 191 l 100 0 l -92 0 l 315 304 l 121 715 z "},"y":{"ha":978,"x_min":-28,"x_max":1062,"o":"m 521 716 l 378 184 q 377 178 377 182 q 377 171 377 174 q 379 163 377 167 q 382 157 381 159 q 386 150 382 153 q 392 145 389 146 q 406 141 400 141 l 553 141 q 561 142 557 141 q 567 144 564 142 q 573 149 570 145 q 579 155 576 152 q 585 160 582 156 q 589 167 587 164 q 592 174 590 171 q 594 180 594 178 l 736 712 l 1062 712 l 845 -98 q 841 -111 844 -103 q 834 -126 838 -119 q 828 -141 831 -133 q 821 -156 825 -149 q 810 -170 817 -163 q 800 -184 804 -178 q 788 -197 795 -190 q 776 -210 781 -203 q 763 -222 770 -216 q 749 -232 755 -228 q 732 -242 741 -237 q 716 -251 724 -247 q 699 -257 708 -254 q 682 -262 690 -260 q 663 -264 673 -263 q 643 -266 652 -266 l -28 -266 l 7 -127 l 463 -127 q 474 -127 468 -127 q 484 -125 480 -126 q 494 -119 488 -122 q 503 -115 499 -117 q 509 -109 505 -113 q 514 -103 513 -106 q 519 -96 517 -100 q 522 -88 521 -92 l 547 0 l 193 0 q 169 1 180 0 q 148 5 157 3 q 129 12 138 7 q 111 22 119 16 q 96 34 103 27 q 84 47 90 41 q 72 63 77 54 q 64 81 66 72 q 58 95 61 87 q 56 111 56 103 q 52 128 53 119 q 50 145 50 137 q 50 163 50 153 q 52 182 50 172 q 56 201 54 191 q 60 221 57 210 l 193 716 l 521 716 z "},"z":{"ha":940,"x_min":-73,"x_max":987,"o":"m 987 713 l 460 144 l 838 144 l 799 0 l -73 0 l 468 575 l 113 575 l 149 713 l 987 713 z "},"!":{"ha":427,"x_min":-53,"x_max":537,"o":"m 208 972 l 537 972 l 433 582 l 331 313 l 64 313 l 98 564 l 208 972 m 346 256 l 277 0 l -53 0 l 15 256 l 346 256 z "},"#":{"ha":972,"x_min":99,"x_max":982,"o":"m 677 972 l 563 694 l 689 694 l 803 970 l 918 970 l 814 694 l 982 694 l 949 571 l 762 571 l 693 403 l 869 403 l 836 277 l 648 277 l 537 0 l 414 0 l 525 277 l 406 277 l 290 0 l 171 0 l 283 277 l 99 277 l 132 399 l 327 399 l 397 571 l 218 571 l 252 697 l 448 697 l 555 972 l 677 972 m 643 572 l 519 572 l 453 401 l 576 401 l 643 572 z "},"$":{"ha":1000,"x_min":-20,"x_max":1023,"o":"m 707 1031 l 669 890 l 1023 890 l 986 753 l 632 753 l 606 655 l 829 655 q 842 654 836 655 q 856 654 849 654 q 870 650 863 652 q 883 647 878 648 q 897 641 890 644 q 909 635 903 637 q 920 628 914 632 q 930 620 925 624 q 939 610 935 616 q 947 600 943 605 q 954 586 951 593 q 958 574 956 579 q 961 560 960 568 q 962 545 962 552 q 960 528 962 537 q 956 510 959 519 l 890 260 q 885 245 888 254 q 879 232 882 237 q 870 217 875 225 q 863 203 865 209 q 853 191 859 198 q 842 178 848 183 q 829 165 836 171 q 818 155 823 160 q 806 144 812 149 q 792 136 799 140 q 779 127 787 132 q 765 119 772 122 q 747 111 755 115 q 728 106 738 107 q 711 102 720 103 q 694 100 703 100 l 454 100 l 415 -45 l 308 -45 l 349 103 l -20 103 l 15 240 l 385 240 l 414 349 l 195 349 q 176 349 186 349 q 156 351 165 350 q 138 355 146 353 q 122 361 129 358 q 107 368 114 363 q 96 376 100 372 q 84 385 90 380 q 76 395 79 389 q 68 406 72 400 q 62 418 65 412 q 58 430 60 423 q 56 444 56 437 q 55 457 56 449 q 56 471 54 465 q 56 486 54 477 q 58 500 57 494 l 121 732 q 126 749 123 741 q 132 764 129 757 q 140 780 136 772 q 149 795 145 788 q 169 821 157 808 q 193 845 180 834 q 219 863 205 854 q 250 878 233 871 q 264 883 256 880 q 281 887 273 886 q 296 889 288 888 q 313 890 305 890 l 559 890 l 597 1031 l 707 1031 m 397 655 l 496 655 l 522 750 l 423 750 q 418 749 420 750 q 414 749 416 749 q 406 742 410 746 q 401 739 403 741 q 399 735 399 736 q 395 730 397 732 q 393 726 393 727 l 380 675 q 380 671 380 673 q 381 669 380 670 q 382 665 381 666 q 384 662 384 663 q 387 659 385 661 q 391 658 388 658 q 394 656 392 656 q 397 655 396 655 m 524 349 l 495 240 l 585 240 q 589 241 586 240 q 593 241 591 241 q 599 244 595 243 q 604 247 602 245 q 608 250 605 248 q 612 255 610 252 q 614 259 613 256 q 617 263 616 262 l 633 326 q 633 329 633 327 q 633 332 633 331 q 632 336 633 334 q 629 339 631 338 q 626 342 628 340 q 621 346 624 345 q 615 348 618 347 q 609 349 612 349 l 524 349 z "},"%":{"ha":1411,"x_min":73,"x_max":1321,"o":"m 292 974 l 583 974 q 595 973 589 974 q 605 971 601 972 q 617 968 612 970 q 625 964 623 966 q 633 959 629 962 q 640 954 637 956 q 647 947 643 951 q 652 939 651 943 q 657 927 655 933 q 661 916 659 921 q 661 904 661 910 q 663 891 662 898 q 662 878 662 884 q 661 867 662 872 q 658 853 659 860 q 655 841 656 846 l 589 594 q 580 566 585 579 q 570 544 575 553 q 562 530 566 537 q 553 518 557 524 q 543 506 548 511 q 534 496 538 500 q 514 481 525 488 q 492 469 503 473 q 471 463 483 465 q 448 460 460 460 l 152 460 q 141 460 146 460 q 130 463 136 461 q 119 466 125 464 q 110 471 114 468 q 100 477 104 473 q 94 486 96 481 q 86 494 90 490 q 80 505 83 499 q 79 514 80 509 q 76 525 77 519 q 75 538 76 530 q 73 551 75 545 q 75 562 75 556 q 77 572 76 567 q 80 585 79 578 q 83 598 81 593 l 145 834 q 151 847 148 840 q 155 861 153 854 q 159 874 156 867 q 167 888 163 882 q 174 901 170 894 q 182 914 178 907 q 191 927 186 921 q 202 937 197 933 q 212 946 208 941 q 222 954 217 951 q 235 960 228 958 q 247 966 241 963 q 258 969 252 967 q 267 971 263 971 q 279 973 273 972 q 292 974 285 974 m 460 888 l 365 888 q 360 888 363 888 q 355 886 357 887 q 349 882 353 884 q 343 878 346 879 q 338 873 340 875 q 334 869 336 871 q 331 863 332 867 q 328 859 330 860 l 252 575 q 252 570 252 574 q 252 564 252 566 q 255 559 254 562 q 258 555 256 556 q 262 551 259 552 q 267 548 266 549 q 272 546 269 547 q 277 545 275 545 l 368 545 q 373 546 370 545 q 378 547 376 547 q 383 549 380 548 q 388 552 387 551 q 393 555 391 553 q 396 560 395 557 q 399 564 397 562 q 401 568 400 566 l 480 864 q 481 867 481 865 q 480 872 480 869 q 478 876 479 873 q 476 880 477 879 q 473 884 475 882 q 468 886 471 886 q 465 888 467 887 q 460 888 463 888 m 951 503 l 1241 503 q 1254 503 1248 503 q 1265 502 1260 502 q 1275 498 1270 500 q 1283 495 1280 496 q 1293 489 1289 492 q 1299 483 1297 486 q 1306 476 1302 480 q 1312 468 1310 472 q 1316 458 1314 464 q 1320 446 1318 452 q 1320 434 1320 441 q 1321 422 1321 427 q 1321 408 1321 415 q 1320 396 1321 401 q 1317 383 1318 389 q 1314 370 1316 377 l 1248 123 q 1239 97 1244 110 q 1227 73 1234 84 q 1221 60 1225 66 q 1213 47 1217 53 q 1202 36 1208 42 q 1192 26 1196 30 q 1173 11 1184 18 q 1152 0 1162 4 q 1130 -5 1141 -3 q 1108 -7 1119 -7 l 812 -7 q 801 -6 807 -7 q 789 -4 795 -5 q 777 -1 783 -3 q 768 1 772 0 q 759 7 764 3 q 751 15 754 11 q 745 24 747 19 q 741 35 742 30 q 736 45 738 39 q 735 56 735 50 q 733 67 734 61 q 732 80 732 73 q 734 91 734 85 q 736 103 735 96 q 739 115 738 109 q 742 127 741 121 l 804 363 q 810 376 807 369 q 814 391 812 384 q 819 405 815 397 q 825 419 822 412 q 833 431 829 425 q 841 445 838 438 q 850 456 845 450 q 861 468 856 463 q 871 476 865 472 q 882 483 876 480 q 894 490 887 487 q 907 496 901 494 q 917 499 911 498 q 926 500 922 500 q 939 503 932 502 q 951 503 945 503 m 1119 418 q 1124 417 1122 418 q 1128 415 1126 416 q 1131 414 1130 415 q 1135 411 1133 412 q 1138 406 1137 408 q 1139 403 1139 404 q 1141 398 1141 400 q 1139 395 1141 396 l 1061 99 q 1059 94 1061 96 q 1055 90 1057 91 q 1052 86 1054 88 q 1047 83 1050 84 q 1041 79 1044 80 q 1036 76 1038 77 q 1031 75 1034 76 q 1027 75 1029 75 l 935 75 q 930 75 933 75 q 925 77 926 76 q 921 80 924 79 q 917 84 918 81 q 913 88 916 85 q 911 94 911 91 q 911 98 911 95 q 911 104 911 102 l 987 388 q 990 393 989 389 q 993 399 991 396 q 997 403 994 400 q 1002 408 1000 406 q 1008 412 1005 410 q 1015 415 1012 414 q 1019 417 1016 416 q 1024 418 1023 418 l 1119 418 m 1183 972 l 414 0 l 216 0 l 983 972 l 1183 972 z "},"&":{"ha":1158,"x_min":-19,"x_max":1024,"o":"m 899 844 q 893 825 897 836 q 886 806 890 815 q 876 783 882 795 q 863 760 869 772 q 852 737 859 749 q 841 716 846 726 q 825 693 833 705 q 811 670 818 681 q 795 650 803 661 q 780 628 788 639 q 764 607 772 617 q 747 587 755 597 q 729 568 739 576 q 711 551 719 559 q 692 536 701 543 q 674 525 682 529 l 582 651 q 600 667 590 658 q 614 684 609 675 q 629 703 623 693 q 642 723 636 713 q 649 743 646 732 q 655 764 652 754 q 657 783 658 773 q 654 800 656 792 q 647 814 652 808 q 636 825 642 821 q 622 832 629 829 q 606 836 614 836 q 597 835 602 836 q 587 834 591 834 q 576 831 582 833 q 566 827 570 829 q 555 822 560 825 q 544 817 549 819 q 535 809 540 814 q 528 800 530 804 q 525 795 528 798 q 521 789 522 792 q 515 782 518 787 q 511 773 513 777 q 506 762 509 769 q 502 750 503 755 q 500 735 500 743 q 500 719 500 727 q 504 703 500 712 q 510 685 507 694 q 522 665 515 675 q 538 643 529 654 l 760 368 l 921 507 l 1010 384 l 863 248 l 914 186 l 1024 189 l 974 -1 l 731 -1 l 667 73 q 661 67 665 71 q 654 62 656 64 q 647 57 651 60 q 642 53 643 54 q 635 48 639 50 q 629 45 632 46 q 622 39 627 42 q 614 34 617 35 q 592 20 604 27 q 570 9 581 14 q 547 3 559 5 q 522 0 534 0 l 126 0 q 109 1 118 0 q 91 5 100 3 q 74 12 83 7 q 57 20 65 16 q 44 28 50 23 q 33 37 38 33 q 23 46 28 41 q 12 57 18 52 q 4 71 8 62 q -3 85 0 79 q -10 100 -7 92 q -15 115 -14 109 q -19 148 -19 132 q -18 164 -19 156 q -15 180 -18 172 l 46 414 q 54 436 49 425 q 64 458 58 448 q 75 480 68 469 q 91 500 83 491 q 103 515 96 507 q 117 528 110 522 q 132 540 123 533 q 148 551 141 547 q 168 560 157 556 q 189 567 178 564 q 211 571 199 570 q 233 572 222 572 l 308 574 l 252 704 q 249 719 251 711 q 248 734 247 727 q 249 750 248 742 q 251 765 250 758 q 255 781 254 773 q 258 796 256 789 q 263 811 260 804 q 267 825 266 818 q 276 848 270 837 q 288 871 282 860 q 302 891 294 882 q 317 909 309 901 q 334 922 326 916 q 353 936 343 929 q 373 947 362 941 q 395 956 384 952 q 416 963 404 960 q 438 968 427 966 q 463 971 450 970 q 488 972 476 972 l 709 972 q 727 972 718 972 q 745 972 736 972 q 762 971 753 972 q 780 970 772 970 q 801 966 791 968 q 821 963 811 964 q 839 958 830 962 q 854 949 848 954 q 870 941 863 945 q 883 930 878 936 q 893 917 888 924 q 899 903 898 910 q 902 890 901 898 q 903 878 903 883 q 903 862 905 871 q 899 844 901 853 m 391 414 q 377 406 384 410 q 365 397 370 401 q 351 388 358 393 q 339 378 345 382 q 323 366 331 373 q 311 354 316 359 q 298 340 305 349 q 286 326 292 332 q 274 302 279 315 q 267 277 269 289 q 268 249 264 263 q 279 221 271 235 q 284 214 281 218 q 290 208 288 210 q 298 199 293 203 q 308 193 302 195 q 318 184 313 189 q 328 179 323 180 q 340 174 334 176 q 350 170 346 171 q 357 169 353 170 q 368 168 362 168 q 382 170 374 168 q 396 171 389 171 q 414 174 404 172 q 431 176 423 175 q 450 181 439 178 q 469 187 460 184 q 491 193 480 189 q 511 201 502 197 q 530 210 521 205 q 548 220 540 214 l 391 414 z "},"'":{"ha":206,"x_min":3,"x_max":252,"o":"m 98 972 l 252 972 l 187 730 l 129 562 l 3 562 l 28 718 l 98 972 z "},"(":{"ha":570,"x_min":-1,"x_max":693,"o":"m 693 974 l 654 827 l 525 827 q 513 825 519 827 q 502 822 507 823 q 490 814 496 819 q 479 806 484 810 q 467 796 473 802 q 458 785 461 791 q 452 773 454 779 q 446 762 449 768 l 258 57 q 256 46 256 52 q 258 35 256 41 q 262 24 259 30 q 269 14 264 18 q 275 5 271 9 q 285 0 279 1 q 296 -3 290 -1 q 305 -5 301 -5 l 431 -5 l 392 -152 l 172 -152 q 149 -150 160 -152 q 126 -145 137 -148 q 104 -136 115 -141 q 83 -125 92 -130 q 66 -115 75 -121 q 52 -103 58 -109 q 39 -89 45 -96 q 27 -75 33 -81 q 18 -60 23 -68 q 11 -46 14 -53 q 4 -31 7 -39 q 0 -16 1 -23 q -1 -1 0 -8 q -1 14 -1 7 q -1 30 -1 22 q 0 46 -1 38 l 191 762 q 197 780 194 770 q 206 799 201 789 q 217 818 210 808 q 231 836 224 827 q 245 854 237 845 q 259 871 252 863 q 277 888 267 879 q 294 905 286 897 q 314 918 304 911 q 334 932 324 925 q 353 943 343 937 q 373 954 363 949 q 393 962 382 958 q 412 968 404 966 q 432 972 422 970 q 452 974 442 974 l 693 974 z "},"*":{"ha":795,"x_min":149,"x_max":783,"o":"m 614 974 l 566 793 l 746 883 l 783 764 l 605 674 l 734 585 l 633 465 l 502 553 l 454 376 l 315 376 l 362 555 l 186 465 l 149 586 l 328 675 l 197 764 l 297 882 l 429 793 l 477 974 l 614 974 z "},"\\":{"ha":461,"x_min":72,"x_max":309,"o":"m 72 974 l 220 974 l 309 0 l 159 0 l 72 974 z "},":":{"ha":452,"x_min":8,"x_max":525,"o":"m 195 696 l 525 696 l 457 442 l 127 442 l 195 696 m 76 254 l 406 254 l 338 0 l 8 0 l 76 254 z "},",":{"ha":452,"x_min":62,"x_max":494,"o":"m 164 254 l 494 254 l 426 0 l 203 -208 l 62 -208 l 217 0 l 96 0 l 164 254 z "},"=":{"ha":810,"x_min":-5,"x_max":834,"o":"m 118 590 q 208 590 163 590 q 298 590 254 590 q 387 590 343 590 q 476 590 431 590 q 564 590 519 590 q 652 590 608 590 q 743 590 697 590 q 834 590 788 590 l 795 448 q 616 448 705 448 q 437 448 526 448 q 258 448 349 448 q 79 448 168 448 l 118 590 m 31 270 q 123 270 77 270 q 212 270 168 270 q 301 270 256 270 q 389 270 346 270 q 478 270 434 270 q 566 270 522 270 q 656 270 610 270 q 747 270 703 270 l 709 129 q 531 129 621 129 q 351 129 441 129 q 173 129 263 129 q -5 129 83 129 l 31 270 z "},">":{"ha":784,"x_min":-20,"x_max":747,"o":"m 175 723 l 480 723 l 747 358 l 283 -5 l -20 -5 l 18 142 l 263 142 l 533 355 l 374 572 l 134 572 l 175 723 z "},"<":{"ha":784,"x_min":76,"x_max":842,"o":"m 842 723 l 802 572 l 562 572 l 286 355 l 442 142 l 689 142 l 650 -5 l 343 -5 l 76 358 l 538 723 l 842 723 z "},".":{"ha":458,"x_min":73,"x_max":471,"o":"m 141 255 l 471 255 l 403 0 l 73 0 l 141 255 z "},"|":{"ha":235,"x_min":-50,"x_max":354,"o":"m 209 974 l 354 974 l 94 0 l -50 0 l 209 974 z "},"+":{"ha":810,"x_min":37,"x_max":791,"o":"m 581 719 l 503 433 l 791 433 l 753 290 l 465 290 l 388 4 l 247 4 l 324 290 l 37 290 l 75 433 l 362 433 l 438 719 l 581 719 z "},"?":{"ha":959,"x_min":91,"x_max":1004,"o":"m 178 974 l 864 974 q 894 970 882 974 q 909 964 902 967 q 924 959 917 962 q 937 951 930 956 q 949 943 944 947 q 961 931 955 937 q 971 920 967 925 q 981 906 977 913 q 987 894 985 899 q 994 880 991 887 q 1000 865 997 872 q 1002 850 1001 859 q 1004 836 1004 842 q 1002 819 1004 827 q 1000 804 1001 811 l 949 618 q 945 604 948 612 q 940 591 943 597 q 931 576 936 585 q 922 563 926 568 q 913 548 918 556 q 901 534 907 540 q 888 522 895 529 q 875 509 880 514 q 861 496 868 502 q 848 487 854 491 q 833 478 841 483 q 818 469 826 473 q 803 463 811 467 q 788 458 795 460 q 774 455 781 456 q 761 454 766 454 l 617 454 q 608 453 614 454 q 597 450 602 452 q 583 445 590 448 q 572 441 576 442 q 562 434 567 438 q 552 426 556 430 q 545 417 548 422 q 540 407 541 412 l 517 319 l 176 319 l 214 461 q 218 475 216 467 q 224 488 221 483 q 231 502 227 494 q 240 515 236 510 q 248 528 243 521 q 259 541 254 534 q 271 553 264 547 q 282 566 277 560 q 296 577 289 571 q 309 587 302 583 q 322 596 315 591 q 335 605 330 601 q 349 610 342 608 q 362 614 355 613 q 376 617 369 616 q 389 618 384 618 l 559 618 q 568 619 563 618 q 578 623 572 620 q 587 627 582 624 q 598 632 593 629 q 607 637 602 633 q 614 644 612 642 q 621 653 617 648 q 625 662 624 658 l 661 796 q 661 804 662 800 q 659 811 661 808 q 654 818 658 815 q 647 823 651 821 q 640 827 644 825 q 631 831 635 830 q 622 833 627 833 q 613 834 617 834 l 141 834 l 178 974 m 159 254 l 488 254 l 420 0 l 91 0 l 159 254 z "},"\"":{"ha":463,"x_min":3,"x_max":496,"o":"m 98 972 l 252 972 l 187 730 l 129 562 l 3 562 l 28 718 l 98 972 m 340 972 l 496 972 l 431 730 l 372 562 l 245 562 l 271 718 l 340 972 z "},";":{"ha":452,"x_min":4,"x_max":552,"o":"m 222 696 l 552 696 l 484 442 l 155 442 l 222 696 m 104 254 l 434 254 l 366 0 l 145 -208 l 4 -208 l 157 0 l 37 0 l 104 254 z "},"/":{"ha":461,"x_min":-187,"x_max":570,"o":"m 570 974 l -38 0 l -187 0 l 420 974 l 570 974 z "},"[":{"ha":578,"x_min":-42,"x_max":700,"o":"m 700 972 l 661 823 l 469 823 l 247 -1 l 441 -1 l 400 -152 l -42 -152 l 256 972 l 700 972 z "},"]":{"ha":578,"x_min":-43,"x_max":701,"o":"m 259 972 l 701 972 l 400 -152 l -43 -152 l -3 -1 l 187 0 l 410 823 l 220 823 l 259 972 z "},")":{"ha":570,"x_min":-52,"x_max":642,"o":"m 248 974 l 490 974 q 509 972 499 974 q 525 968 518 970 q 543 962 534 966 q 557 954 551 958 q 572 944 564 949 q 586 933 581 939 q 600 920 593 928 q 610 905 606 911 q 619 888 614 897 q 628 872 624 880 q 635 854 632 864 q 639 836 637 845 q 641 818 640 827 q 642 799 642 808 q 640 780 640 789 q 637 762 639 770 l 445 46 q 433 15 441 30 q 412 -16 425 0 q 399 -31 406 -23 q 385 -46 392 -39 q 369 -60 377 -53 q 353 -75 361 -68 q 333 -88 343 -81 q 313 -102 323 -95 q 292 -114 302 -107 q 271 -125 281 -121 q 244 -136 258 -130 q 217 -144 231 -141 q 191 -150 205 -148 q 165 -152 178 -152 l -52 -152 l -12 -5 l 111 -5 q 123 -3 117 -5 q 136 0 130 -1 q 149 5 142 1 q 161 14 156 9 q 171 23 165 18 q 180 34 176 28 q 188 45 184 39 q 193 57 191 52 l 381 762 q 383 773 384 768 q 382 784 382 779 q 379 795 381 789 q 374 806 377 802 q 367 814 372 810 q 358 821 362 818 q 349 825 354 823 q 338 827 343 827 l 209 827 l 248 974 z "},"-":{"ha":810,"x_min":37,"x_max":791,"o":"m 75 433 q 166 433 121 433 q 255 433 212 433 q 345 433 300 433 q 433 433 389 433 q 521 433 476 433 q 609 433 566 433 q 699 433 654 433 q 791 433 745 433 l 753 290 q 574 290 663 290 q 395 290 484 290 q 216 290 305 290 q 37 290 126 290 l 75 433 z "},"@":{"ha":1124,"x_min":61,"x_max":1099,"o":"m 772 736 q 795 734 784 736 q 818 726 807 731 q 838 712 829 720 q 856 694 848 704 q 869 674 864 685 q 878 652 875 663 q 882 628 882 640 q 879 604 882 616 l 833 434 q 831 426 831 430 q 831 419 831 422 q 833 412 831 415 q 836 407 834 408 q 840 403 837 404 q 845 401 842 401 q 850 401 846 401 q 857 404 854 401 q 875 418 865 410 q 894 437 884 426 q 911 459 902 448 q 926 483 920 471 q 940 509 933 495 q 952 536 947 522 q 971 589 964 564 q 978 620 975 604 q 981 651 981 636 q 980 682 981 666 q 977 712 979 697 q 970 741 975 726 q 960 769 966 755 q 948 795 955 783 q 933 821 941 808 q 911 846 922 834 q 887 869 901 859 q 860 890 875 880 q 830 909 845 901 q 797 924 814 917 q 761 936 780 932 q 723 943 743 940 q 684 947 703 947 q 650 945 667 947 q 616 941 632 943 q 583 935 600 939 q 552 925 567 930 q 522 911 537 918 q 492 897 506 905 q 463 879 477 888 q 434 859 448 869 q 390 821 411 841 q 350 780 369 802 q 311 735 330 758 q 279 689 293 712 q 250 640 263 665 q 225 591 236 616 q 206 543 216 567 q 191 496 197 518 q 176 414 179 454 q 176 339 172 374 q 191 272 179 304 q 220 214 202 240 q 262 166 237 187 q 320 132 288 145 q 391 108 353 117 q 475 99 430 99 q 495 99 486 99 q 514 99 505 99 q 535 100 525 99 q 555 103 545 102 q 576 108 566 104 q 595 115 587 111 q 617 125 606 119 q 639 138 628 132 l 735 138 q 722 119 730 129 q 708 102 715 110 q 692 86 700 94 q 674 73 684 79 q 655 60 666 66 q 635 49 644 54 q 614 39 625 43 q 593 30 604 34 q 572 22 583 26 q 552 16 562 18 q 530 12 541 14 q 510 8 519 9 q 490 5 500 7 q 469 4 479 4 q 452 3 461 4 q 434 3 442 3 q 391 7 412 4 q 347 14 369 9 q 306 24 327 18 q 267 37 285 30 q 230 55 248 45 q 195 76 212 65 q 163 101 179 87 q 134 130 148 115 q 111 163 122 145 q 91 201 100 182 q 77 243 83 221 q 66 290 71 266 q 62 342 62 315 q 64 399 61 370 q 73 459 66 427 q 88 526 79 491 q 103 574 94 549 q 122 621 113 598 q 147 668 133 644 q 176 715 161 692 q 209 760 191 736 q 245 803 227 783 q 286 845 264 825 q 330 884 308 865 q 374 918 351 902 q 419 948 396 933 q 467 975 442 962 q 517 998 491 987 q 568 1017 541 1009 q 621 1031 595 1025 q 676 1040 648 1036 q 732 1043 704 1043 q 772 1041 751 1043 q 812 1035 793 1039 q 850 1024 831 1031 q 888 1010 869 1017 q 924 992 906 1002 q 956 971 941 982 q 986 945 971 959 q 1015 917 1001 930 q 1040 884 1028 902 q 1062 846 1053 865 q 1078 805 1070 827 q 1090 761 1086 783 q 1097 713 1095 738 q 1097 663 1099 689 q 1091 610 1096 637 q 1080 553 1086 582 q 1066 512 1074 532 q 1048 475 1058 492 q 1029 441 1040 457 q 1006 411 1019 425 q 981 385 994 396 q 954 362 967 373 q 924 342 940 351 q 894 326 909 332 q 862 312 879 319 q 830 301 845 305 q 797 291 814 296 q 764 285 780 286 q 731 279 747 282 q 699 275 715 277 q 668 273 684 274 q 639 273 652 273 l 490 273 l 336 273 q 319 275 328 273 q 304 283 311 278 q 289 296 296 289 q 278 311 282 302 q 271 328 274 319 q 266 346 267 336 q 264 366 264 355 q 267 385 264 376 l 327 610 q 335 633 330 621 q 347 654 340 644 q 363 674 354 663 q 382 694 373 685 q 403 711 392 704 q 425 724 414 719 q 446 733 435 730 q 467 736 457 736 l 623 736 l 772 736 m 586 647 q 581 646 585 647 q 575 644 578 646 q 568 641 571 643 q 563 637 564 639 q 557 631 560 635 q 551 627 553 628 q 547 621 548 624 q 544 616 545 617 l 484 391 q 484 385 483 388 q 484 381 484 382 q 486 376 484 378 q 490 373 488 374 q 494 370 491 372 q 499 366 498 368 q 504 364 500 365 q 509 363 507 363 l 568 363 q 574 364 571 363 q 581 366 578 365 q 586 370 583 368 q 591 373 589 372 q 597 377 594 374 q 601 382 600 380 q 604 387 602 384 q 606 392 606 389 l 667 617 q 667 622 667 618 q 667 628 667 625 q 665 632 666 629 q 662 637 665 635 q 658 641 661 639 q 654 644 655 643 q 649 646 652 646 q 643 647 646 647 l 586 647 z "},"^":{"ha":827,"x_min":-22,"x_max":718,"o":"m 555 972 l 718 444 l 578 444 l 446 811 l 123 445 l -22 445 l 422 972 l 555 972 z "},"_":{"ha":731,"x_min":-8,"x_max":707,"o":"m 9 -111 l 707 -111 l 686 -187 l -8 -187 l 9 -111 z "},"`":{"ha":418,"x_min":-22,"x_max":369,"o":"m -22 1031 l 206 1031 l 369 808 l 153 808 l -22 1031 z "},"{":{"ha":606,"x_min":14,"x_max":728,"o":"m 728 974 l 689 827 l 560 827 q 549 825 555 827 q 537 822 543 823 q 524 814 530 819 q 513 806 518 810 q 502 796 507 802 q 494 785 496 791 q 486 773 490 779 q 481 762 483 768 l 427 559 l 269 419 l 353 281 l 293 57 q 292 45 292 52 q 293 34 292 39 q 296 22 294 27 q 302 14 298 18 q 309 5 305 9 q 319 0 313 1 q 330 -3 324 -1 q 340 -5 335 -5 l 467 -5 l 427 -152 l 208 -152 q 184 -150 195 -152 q 161 -145 172 -148 q 139 -136 151 -141 q 117 -125 127 -130 q 100 -115 109 -121 q 85 -103 92 -109 q 73 -89 79 -96 q 62 -75 66 -81 q 54 -60 58 -68 q 45 -46 49 -53 q 39 -31 42 -39 q 34 -16 37 -23 q 31 -2 33 -9 q 31 14 30 5 q 32 30 31 22 q 35 46 33 38 l 98 281 l 14 419 l 172 559 l 227 762 q 233 780 229 770 q 241 799 236 789 q 252 818 245 808 q 264 836 258 827 q 279 854 271 845 q 294 871 286 863 q 312 888 302 879 q 331 905 321 897 q 349 918 339 911 q 368 932 358 925 q 388 943 377 937 q 408 954 399 949 q 429 962 418 958 q 448 968 439 966 q 467 972 457 970 q 487 974 477 974 l 728 974 z "},"}":{"ha":606,"x_min":-138,"x_max":581,"o":"m 161 974 l 403 974 q 420 972 411 974 q 438 968 430 970 q 456 962 448 966 q 471 954 464 958 q 486 944 477 949 q 499 933 494 939 q 512 920 506 928 q 524 905 518 911 q 532 888 528 897 q 540 872 536 880 q 547 854 544 864 q 551 836 549 845 q 553 818 552 827 q 555 799 555 808 q 553 780 553 789 q 551 762 552 770 l 495 559 l 581 419 l 420 281 l 358 46 q 346 14 354 30 q 335 -2 340 5 q 323 -16 330 -9 q 312 -31 319 -23 q 298 -46 305 -39 q 282 -60 290 -53 q 266 -75 274 -68 q 246 -88 256 -81 q 227 -102 236 -95 q 205 -114 216 -107 q 183 -125 194 -121 q 157 -136 171 -130 q 129 -144 142 -141 q 103 -150 117 -148 q 79 -152 90 -152 l -138 -152 l -99 -5 l 24 -5 q 35 -3 28 -5 q 47 0 42 -1 q 61 5 54 1 q 73 14 68 9 q 83 22 77 18 q 94 34 90 27 q 101 45 98 39 q 106 57 104 52 l 165 281 l 326 419 l 240 559 l 294 762 q 296 773 297 768 q 296 784 296 779 q 292 795 294 789 q 286 806 289 802 q 279 814 283 810 q 271 821 275 818 q 262 825 267 823 q 251 827 256 827 l 122 827 l 161 974 z "},"~":{"ha":753,"x_min":118,"x_max":718,"o":"m 718 358 q 684 323 700 339 q 655 296 667 307 q 631 275 643 285 q 609 259 618 264 q 589 248 600 252 q 570 243 579 244 q 549 239 560 240 q 525 237 537 237 q 508 238 517 237 q 492 241 499 239 q 476 246 484 243 q 461 252 468 250 q 446 259 454 255 q 430 267 437 263 q 415 276 423 271 q 399 285 407 281 q 384 294 392 289 q 369 302 376 298 q 353 311 362 307 q 338 319 345 316 q 322 324 331 321 q 305 330 313 327 q 288 333 297 331 q 269 335 278 335 q 258 334 263 335 q 245 331 252 332 q 233 325 240 328 q 220 319 225 321 q 208 310 214 315 q 195 301 201 305 q 185 292 191 297 q 174 282 179 286 l 118 355 q 140 387 129 372 q 163 412 152 401 q 187 433 175 423 q 212 450 199 444 q 236 463 224 457 q 259 472 248 469 q 285 477 271 475 q 311 480 298 480 q 327 479 319 480 q 343 476 335 477 q 359 471 351 473 q 374 467 368 468 q 391 460 382 464 q 407 453 399 456 q 422 444 414 449 q 437 435 430 439 q 452 427 444 431 q 468 419 461 423 q 483 410 475 415 q 499 403 491 406 q 515 396 506 400 q 530 391 524 392 q 548 386 538 388 q 564 382 557 384 q 577 382 571 382 q 589 385 583 382 q 602 391 595 387 q 613 397 609 395 q 626 406 620 401 q 637 415 632 411 q 649 425 643 419 q 661 434 655 430 l 718 358 z "},"…":{"ha":1401,"x_min":34,"x_max":1369,"o":"m 102 255 l 433 255 l 365 0 l 34 0 l 102 255 m 1038 255 l 1369 255 l 1301 0 l 970 0 l 1038 255 m 570 255 l 901 255 l 833 0 l 502 0 l 570 255 z "},"†":{"ha":895,"x_min":95,"x_max":928,"o":"m 777 974 l 686 635 l 928 635 l 882 461 l 640 461 l 446 -263 l 144 -263 l 338 461 l 95 461 l 141 635 l 388 635 l 479 974 l 777 974 z "},"‡":{"ha":899,"x_min":-19,"x_max":951,"o":"m 777 974 l 709 719 l 951 719 l 905 547 l 663 547 l 574 212 l 819 212 l 770 34 l 525 34 l 446 -263 l 144 -263 l 222 34 l -19 34 l 28 212 l 271 212 l 361 547 l 118 547 l 164 719 l 411 719 l 479 974 l 777 974 z "},"ˆ":{"ha":553,"x_min":-68,"x_max":498,"o":"m 133 808 l -68 808 l 153 1027 l 391 1027 l 498 808 l 283 808 l 244 920 l 133 808 z "},"Œ":{"ha":1435,"x_min":-16,"x_max":1484,"o":"m 1484 974 l 1440 811 l 1080 811 l 1019 585 l 1367 585 l 1325 426 l 977 426 l 906 163 l 1280 163 l 1237 0 l 163 0 q 142 1 152 0 q 122 4 132 1 q 100 9 111 5 q 80 16 90 12 q 64 24 73 19 q 49 33 56 28 q 35 44 42 38 q 22 57 28 50 q 9 71 15 62 q 0 88 4 80 q -6 108 -3 98 q -12 129 -9 118 q -15 151 -14 140 q -15 175 -16 163 q -12 201 -14 187 q -5 229 -9 214 l 129 736 q 138 764 133 750 q 149 791 144 779 q 162 816 155 803 q 176 838 170 829 q 193 860 184 849 q 209 879 201 871 q 229 897 218 888 q 248 913 239 906 q 266 925 256 918 q 283 936 275 932 q 303 946 293 941 q 321 955 313 951 q 346 962 334 959 q 370 968 358 966 q 395 972 382 970 q 418 974 407 974 l 1484 974 m 741 812 l 529 812 q 521 810 525 812 q 513 807 517 808 q 504 802 509 806 q 495 793 499 798 q 488 785 491 789 q 481 776 484 780 q 476 766 479 772 q 472 757 473 761 l 328 217 q 326 208 327 213 q 327 198 326 202 q 330 188 327 193 q 334 179 332 183 q 339 171 336 175 q 345 165 342 167 q 353 161 349 163 q 361 160 357 160 l 566 160 l 741 812 z "},"‘":{"ha":429,"x_min":16,"x_max":448,"o":"m 346 529 l 16 529 l 84 784 l 307 993 l 448 993 l 294 784 l 414 784 l 346 529 z "},"’":{"ha":429,"x_min":41,"x_max":471,"o":"m 141 993 l 471 993 l 403 739 l 180 529 l 41 529 l 194 739 l 73 739 l 141 993 z "},"“":{"ha":850,"x_min":16,"x_max":850,"o":"m 346 529 l 16 529 l 84 784 l 307 993 l 448 993 l 294 784 l 414 784 l 346 529 m 749 529 l 419 529 l 487 784 l 709 993 l 850 993 l 697 784 l 817 784 l 749 529 z "},"”":{"ha":850,"x_min":41,"x_max":873,"o":"m 544 993 l 873 993 l 806 739 l 583 529 l 444 529 l 597 739 l 476 739 l 544 993 m 141 993 l 471 993 l 403 739 l 180 529 l 41 529 l 194 739 l 73 739 l 141 993 z "},"•":{"ha":601,"x_min":113,"x_max":581,"o":"m 288 262 q 243 267 264 262 q 205 279 222 271 q 172 300 187 288 q 144 327 156 312 q 126 360 134 342 q 117 399 118 378 q 114 442 113 419 q 121 487 115 465 q 137 531 126 509 q 161 574 148 553 q 194 612 176 594 q 229 646 212 631 q 271 673 250 661 q 315 694 292 686 q 361 707 338 703 q 407 712 385 712 q 451 707 430 712 q 490 694 472 703 q 523 673 507 686 q 548 646 538 661 q 568 613 560 631 q 578 575 575 595 q 579 532 581 555 q 572 487 578 509 q 556 443 567 465 q 532 400 545 420 q 500 361 518 380 q 463 327 483 342 q 424 300 445 312 q 380 279 403 288 q 333 267 357 271 q 288 262 309 262 z "},"–":{"ha":718,"x_min":-4,"x_max":703,"o":"m 33 433 q 119 433 76 433 q 202 433 161 433 q 285 433 243 433 q 368 433 327 433 q 450 433 408 433 q 533 433 492 433 q 617 433 574 433 q 703 433 661 433 l 665 290 q 496 290 581 290 q 330 290 412 290 q 161 290 245 290 q -4 290 77 290 l 33 433 z "},"—":{"ha":1407,"x_min":-4,"x_max":1359,"o":"m 33 433 q 202 433 118 433 q 368 433 286 433 q 532 433 449 433 q 696 433 614 433 q 860 433 777 433 q 1024 433 943 433 q 1191 433 1107 433 q 1359 433 1275 433 l 1321 290 q 989 290 1156 290 q 658 290 823 290 q 327 290 494 290 q -4 290 160 290 l 33 433 z "},"˜":{"ha":549,"x_min":-50,"x_max":552,"o":"m 374 963 q 393 966 384 963 q 410 978 401 970 q 426 997 418 986 q 441 1020 434 1008 l 552 1020 q 545 1002 549 1012 q 537 985 540 993 q 530 966 534 975 q 521 948 525 956 q 511 931 517 940 q 502 914 506 922 q 492 898 498 906 q 480 883 487 890 q 467 869 475 876 q 453 856 460 861 q 419 836 437 844 q 378 823 400 827 q 355 819 368 821 q 330 818 343 818 q 317 819 324 818 q 304 819 311 819 q 290 822 297 821 q 275 825 282 823 q 261 828 269 826 q 247 833 254 830 q 234 838 240 834 q 221 844 228 841 q 208 848 216 845 q 195 853 201 852 q 184 857 190 854 q 174 863 178 860 q 163 866 168 864 q 153 869 157 868 q 144 872 149 871 q 136 873 140 873 q 125 872 130 873 q 114 868 119 871 q 104 861 110 865 q 94 852 98 856 q 83 840 88 846 q 73 829 77 834 q 66 817 71 823 q 61 806 62 811 l -50 806 q -45 823 -47 814 q -38 840 -42 831 q -28 859 -34 849 q -19 876 -23 868 q -7 894 -14 884 q 3 911 -1 903 q 16 930 9 921 q 30 945 23 939 q 47 961 38 954 q 62 975 56 968 q 80 987 71 981 q 98 998 90 994 q 117 1008 107 1004 q 136 1015 127 1012 q 155 1018 144 1016 q 175 1020 165 1020 q 229 1012 203 1020 q 256 1003 243 1008 q 282 994 269 998 q 307 983 294 989 q 330 974 319 978 q 352 966 340 970 q 374 963 363 963 z "},"™":{"ha":1416,"x_min":85,"x_max":1428,"o":"m 692 975 l 956 975 l 970 640 l 1171 975 l 1428 975 l 1271 387 l 1069 387 l 1195 856 l 914 388 l 773 388 l 749 850 l 624 388 l 534 388 l 692 975 m 111 975 l 623 975 l 597 878 l 444 878 l 312 389 l 107 389 l 239 878 l 85 878 l 111 975 z "},"œ":{"ha":1421,"x_min":-12,"x_max":1405,"o":"m 1394 507 l 1335 281 l 850 281 l 827 197 q 826 189 826 193 q 826 182 826 184 q 827 174 826 178 q 830 167 829 170 q 837 157 833 161 q 846 149 841 152 q 857 143 850 145 q 869 141 864 141 l 1265 141 l 1227 0 l 110 0 q 94 1 102 0 q 79 1 87 1 q 65 5 72 3 q 53 9 58 7 q 39 16 45 11 q 26 24 33 20 q 15 35 20 28 q 5 47 9 42 q -1 59 1 53 q -7 72 -4 65 q -9 87 -8 79 q -11 103 -11 95 q -12 120 -11 111 q -11 137 -12 129 q -7 156 -9 146 q -3 176 -5 165 l 91 532 q 97 551 94 541 q 103 571 100 562 q 112 591 107 581 q 121 609 117 601 q 132 625 126 617 q 142 640 137 633 q 155 655 148 648 q 168 669 161 662 q 181 679 174 674 q 195 688 189 684 q 210 696 202 692 q 227 703 218 700 q 242 707 233 704 q 260 711 251 709 q 279 713 269 712 q 297 715 289 715 l 1272 715 q 1291 713 1282 715 q 1309 711 1301 712 q 1325 705 1317 708 q 1340 700 1333 703 q 1354 691 1348 696 q 1366 681 1360 686 q 1377 669 1371 675 q 1386 656 1382 662 q 1394 641 1390 650 q 1398 623 1397 632 q 1403 603 1401 613 q 1405 582 1405 593 q 1405 564 1405 574 q 1402 547 1405 555 q 1399 528 1401 537 q 1394 507 1397 518 m 464 574 q 455 573 460 574 q 448 571 450 572 q 439 567 444 570 q 431 562 434 564 q 425 555 429 559 q 420 549 422 552 q 415 542 418 547 q 411 533 412 537 l 317 180 q 316 172 316 176 q 316 165 316 168 q 319 157 317 161 q 321 152 320 153 q 326 147 323 149 q 332 144 330 145 q 340 142 336 142 q 347 141 343 141 l 452 141 q 460 142 456 141 q 468 144 464 142 q 475 147 471 145 q 483 152 480 149 q 489 157 486 153 q 495 164 492 161 q 498 172 496 168 q 502 180 500 176 l 597 533 q 597 542 597 537 q 598 549 598 547 q 596 555 598 552 q 593 562 594 559 q 587 567 590 564 q 582 571 585 570 q 575 573 579 572 q 568 574 571 574 l 464 574 m 884 419 l 1061 419 l 1090 532 q 1092 538 1092 534 q 1092 547 1092 543 q 1089 555 1090 551 q 1085 562 1088 559 q 1081 567 1084 564 q 1076 572 1078 570 q 1062 576 1070 576 l 966 576 q 959 575 963 576 q 951 572 955 574 q 942 566 947 570 q 935 560 937 563 q 928 553 932 557 q 922 545 924 549 q 918 537 920 541 q 914 529 916 533 l 884 419 z "},"Ÿ":{"ha":1078,"x_min":84,"x_max":1127,"o":"m 279 377 l 84 974 l 484 974 l 617 574 l 952 974 l 1127 974 l 614 362 l 517 0 l 178 0 l 279 377 m 498 1213 l 732 1213 l 680 1016 l 445 1016 l 498 1213 m 821 1213 l 1055 1213 l 1002 1016 l 768 1016 l 821 1213 z "},"¡":{"ha":427,"x_min":-52,"x_max":537,"o":"m -52 0 l 56 408 l 156 659 l 423 659 l 381 389 l 277 0 l -52 0 m 468 715 l 137 715 l 206 972 l 537 972 l 468 715 z "},"¢":{"ha":716,"x_min":37,"x_max":764,"o":"m 764 791 l 731 673 l 456 673 q 447 671 452 673 q 437 669 442 670 q 427 663 433 666 q 418 658 422 661 q 410 651 414 655 q 401 643 406 647 q 396 634 399 639 q 392 625 393 629 l 320 355 q 319 347 319 351 q 320 339 320 342 q 324 331 321 335 q 328 324 327 327 q 336 318 332 321 q 342 313 339 315 q 351 310 346 311 q 361 309 357 309 l 635 309 l 602 191 l 374 191 l 332 34 l 213 34 l 256 191 l 159 191 q 137 192 148 191 q 118 195 126 193 q 100 201 109 197 q 85 210 92 206 q 73 219 79 214 q 64 229 68 224 q 54 242 58 235 q 47 255 50 250 q 43 267 45 260 q 41 281 41 274 q 38 294 39 286 q 37 308 37 302 q 39 323 38 315 q 41 336 39 331 q 43 351 42 343 q 45 365 43 358 l 113 614 q 117 631 114 623 q 123 647 121 639 q 132 665 126 655 q 141 682 137 674 q 151 699 145 690 q 164 715 157 707 q 177 730 170 723 q 193 745 184 738 q 205 755 198 750 q 221 765 213 761 q 236 774 228 769 q 254 781 244 779 q 267 785 260 783 q 281 788 274 787 q 295 790 288 789 q 311 791 302 791 l 418 791 l 457 943 l 576 943 l 536 791 l 764 791 z "},"£":{"ha":907,"x_min":-45,"x_max":917,"o":"m 170 804 q 174 819 171 811 q 178 834 176 827 q 185 849 182 841 q 191 864 189 857 q 200 879 195 871 q 209 892 205 887 q 219 905 213 898 q 231 918 225 911 q 243 930 236 924 q 258 940 251 936 q 275 950 266 945 q 293 958 283 955 q 312 963 302 960 q 332 968 321 966 q 356 971 343 970 q 381 972 369 972 l 811 972 q 824 971 817 972 q 837 968 831 970 q 848 963 842 966 q 860 958 854 960 q 871 949 865 954 q 880 940 876 944 q 890 928 886 935 q 897 917 894 922 q 903 903 899 910 q 907 890 906 895 q 912 876 910 883 q 914 863 914 868 q 916 848 916 856 q 916 833 917 840 q 914 819 916 826 q 911 804 913 811 l 883 700 l 631 700 l 650 769 q 650 774 650 770 q 650 781 650 779 q 647 787 648 784 q 643 793 646 791 q 637 800 640 796 q 629 806 633 803 q 619 809 624 807 q 609 811 614 811 l 564 811 q 555 810 560 811 q 544 808 549 810 q 533 803 538 806 q 524 798 528 800 q 517 791 521 795 q 511 785 513 788 q 507 777 509 781 q 503 769 505 773 l 444 547 l 513 547 l 480 427 l 411 427 l 339 159 l 777 159 l 735 1 l -45 1 l 66 423 l -3 423 l 30 547 l 100 547 l 170 804 z "},"¥":{"ha":1100,"x_min":53,"x_max":1179,"o":"m 87 395 l 324 395 l 286 513 l 117 513 l 151 640 l 244 639 l 133 974 l 534 974 l 670 574 l 1004 974 l 1179 974 l 897 637 l 996 639 l 962 511 l 791 511 l 692 393 l 930 393 l 898 270 l 640 270 l 568 0 l 229 0 l 301 270 l 53 270 l 87 395 z "},"§":{"ha":880,"x_min":-38,"x_max":970,"o":"m 970 974 l 932 834 l 480 834 q 474 833 477 834 q 468 833 471 833 q 459 829 464 831 q 450 826 454 827 q 446 822 449 825 q 439 818 442 819 q 435 812 437 815 q 431 806 433 808 l 415 742 q 414 734 414 738 q 414 727 414 730 q 416 720 415 724 q 419 715 418 716 q 424 711 420 712 q 429 708 427 709 q 435 706 431 707 q 441 705 438 705 l 774 705 q 789 705 781 705 q 804 703 796 704 q 820 699 812 701 q 834 696 827 697 q 847 690 841 693 q 859 682 853 686 q 870 673 864 678 q 880 663 876 669 q 892 644 887 655 q 899 620 897 632 q 894 556 903 593 l 844 370 q 840 356 842 363 q 836 342 837 349 q 829 327 833 335 q 823 313 826 319 q 816 299 821 307 q 808 286 811 292 q 799 272 804 279 q 787 259 793 264 q 772 245 780 252 q 754 233 764 239 q 734 221 746 228 q 712 210 723 214 q 731 197 723 205 q 745 182 739 189 q 756 165 751 174 q 764 148 761 156 q 769 130 768 140 q 769 111 770 121 q 768 90 769 100 q 764 71 766 80 l 718 -99 q 706 -134 713 -117 q 688 -167 699 -152 q 665 -195 678 -182 q 642 -220 652 -209 q 614 -239 628 -231 q 586 -255 600 -248 q 556 -264 571 -260 q 526 -267 541 -267 l -38 -267 l 0 -127 l 448 -127 q 453 -127 449 -127 q 460 -125 457 -126 q 469 -122 465 -123 q 476 -119 473 -121 q 482 -114 479 -117 q 488 -110 486 -111 q 493 -104 491 -107 q 495 -99 495 -100 l 521 -3 q 522 1 522 0 q 521 5 522 3 q 517 9 519 7 q 514 15 515 12 q 511 19 513 16 q 506 22 509 22 q 498 24 502 23 q 494 24 495 24 l 157 24 q 128 28 142 24 q 100 37 114 31 q 75 52 87 42 q 56 72 64 61 q 37 121 41 92 q 35 151 34 134 q 41 187 37 168 l 95 391 q 104 414 99 401 q 115 438 109 426 q 132 462 122 450 q 151 484 141 473 q 168 499 159 492 q 186 511 176 506 q 208 521 195 517 q 231 528 220 525 q 216 532 224 529 q 201 540 208 536 q 188 549 194 544 q 178 559 182 553 q 167 574 171 566 q 160 593 163 583 q 157 612 157 602 q 160 632 157 621 l 213 829 q 223 857 217 842 q 239 883 229 871 q 257 906 247 895 q 278 926 267 917 q 293 937 285 932 q 308 947 301 943 q 325 955 316 951 q 340 962 334 959 q 357 967 349 964 q 373 971 366 970 q 388 973 380 972 q 403 974 396 974 l 970 974 m 370 444 q 363 443 368 444 q 357 441 359 442 q 350 437 354 439 q 343 434 346 435 q 337 428 340 431 q 332 422 334 425 q 328 415 330 419 q 326 407 326 411 l 302 323 q 301 315 301 319 q 301 309 301 311 q 303 302 301 307 q 307 297 305 298 q 310 292 308 294 q 315 289 312 290 q 321 287 317 288 q 328 286 326 286 l 560 286 q 568 287 564 286 q 575 289 572 288 q 583 292 579 290 q 589 296 586 293 q 595 301 591 297 q 600 308 598 305 q 603 315 601 311 q 606 323 605 319 l 629 407 q 630 414 629 411 q 629 420 631 418 q 629 427 629 423 q 627 433 628 430 q 622 437 625 434 q 616 441 618 439 q 610 443 613 442 q 602 444 606 444 l 370 444 z "},"¨":{"ha":545,"x_min":-61,"x_max":545,"o":"m 494 815 l 254 815 l 307 1012 l 545 1012 l 494 815 m 175 815 l -61 815 l -9 1012 l 227 1012 l 175 815 z "},"©":{"ha":1070,"x_min":71,"x_max":1038,"o":"m 777 722 l 757 644 l 581 644 q 576 644 578 644 q 572 643 574 643 q 567 640 570 642 q 563 637 564 639 q 557 633 560 635 q 555 629 555 631 q 552 625 553 627 q 549 621 551 623 l 479 357 q 479 352 479 354 q 479 349 479 350 q 481 344 480 346 q 484 340 483 342 q 486 338 484 339 q 490 336 488 336 q 494 334 491 335 q 499 334 496 334 l 681 334 l 659 256 l 387 256 q 367 259 377 256 q 347 266 357 262 q 341 271 345 267 q 334 277 338 274 q 323 292 327 283 q 320 298 321 294 q 317 307 319 302 q 315 316 316 311 q 315 327 315 321 q 315 336 315 331 q 316 346 315 342 q 318 357 317 351 q 320 369 319 362 l 385 608 q 393 628 388 617 q 403 650 397 639 q 409 661 406 655 q 415 670 412 666 q 422 679 418 674 q 431 688 427 684 q 446 699 438 693 q 463 709 454 705 q 505 722 484 722 l 777 722 m 465 157 q 498 159 481 157 q 533 164 515 161 q 567 172 551 167 q 600 183 583 176 q 631 197 614 189 q 663 214 648 206 q 694 233 678 222 q 724 255 711 244 q 752 277 738 264 q 777 302 766 290 q 801 330 789 316 q 823 359 812 345 q 842 389 833 373 q 860 422 852 406 q 873 455 867 438 q 884 488 880 472 q 891 522 888 505 q 895 555 894 538 q 896 587 897 571 q 894 617 895 602 q 886 646 891 632 q 876 673 882 661 q 865 699 872 686 q 849 722 857 711 q 831 743 841 732 q 811 762 821 754 q 789 780 800 772 q 764 793 777 788 q 736 804 751 799 q 707 812 722 810 q 675 817 692 815 q 642 819 658 819 q 608 817 625 819 q 574 812 590 815 q 539 804 556 810 q 506 793 522 799 q 473 780 490 788 q 442 764 457 772 q 412 743 427 754 q 381 722 396 732 q 355 699 369 711 q 330 674 340 686 q 304 646 316 661 q 282 617 293 632 q 264 587 273 602 q 247 555 255 571 q 233 522 240 538 q 222 488 227 505 q 216 455 218 472 q 212 422 213 438 q 211 389 210 406 q 214 359 212 373 q 220 330 216 345 q 229 304 224 316 q 242 277 235 290 q 256 255 250 264 q 275 233 264 244 q 294 214 285 222 q 318 198 305 206 q 343 184 331 190 q 370 172 355 178 q 399 164 384 167 q 431 159 414 161 q 465 157 448 157 m 429 27 q 383 30 406 27 q 339 37 361 33 q 297 48 317 41 q 258 64 277 56 q 223 83 240 72 q 190 106 206 94 q 161 133 175 118 q 137 163 148 148 q 115 196 125 179 q 98 232 106 213 q 85 270 91 250 q 76 311 79 290 q 72 354 73 331 q 72 399 71 377 q 78 445 75 420 q 88 492 81 469 q 103 539 94 515 q 122 586 113 563 q 146 630 133 608 q 172 673 160 652 q 203 713 187 693 q 237 751 220 732 q 274 787 255 769 q 313 821 293 806 q 353 851 332 837 q 396 878 374 865 q 441 901 418 890 q 487 921 465 913 q 534 937 510 929 q 582 948 559 944 q 629 955 605 952 q 678 958 654 958 q 725 955 703 958 q 769 948 747 952 q 811 937 791 944 q 849 921 831 929 q 885 902 868 913 q 917 879 902 891 q 946 852 932 867 q 971 821 960 837 q 991 788 982 806 q 1008 753 1001 770 q 1022 714 1016 734 q 1031 674 1028 694 q 1036 631 1035 654 q 1035 586 1038 608 q 1029 539 1034 563 q 1020 492 1025 515 q 1004 445 1013 469 q 985 399 996 420 q 962 355 975 377 q 935 312 948 332 q 904 271 921 292 q 871 233 887 251 q 833 197 853 214 q 795 163 814 179 q 753 134 774 148 q 711 107 732 119 q 666 83 689 95 q 620 64 643 72 q 574 48 598 56 q 526 37 549 41 q 478 30 503 33 q 429 27 453 27 z "},"®":{"ha":1070,"x_min":71,"x_max":1038,"o":"m 429 27 q 383 30 406 27 q 339 37 361 33 q 297 48 317 41 q 258 64 277 56 q 223 83 240 72 q 190 106 206 94 q 161 133 175 118 q 137 163 148 148 q 115 196 125 179 q 98 232 106 213 q 85 270 91 250 q 76 311 79 290 q 72 354 73 331 q 72 399 71 377 q 78 445 75 420 q 88 492 81 469 q 103 539 94 515 q 122 586 113 563 q 146 630 133 608 q 172 673 160 652 q 203 713 187 693 q 237 751 220 732 q 274 787 255 769 q 313 821 293 806 q 353 851 332 837 q 396 878 374 865 q 441 901 418 890 q 488 921 465 913 q 534 937 510 929 q 582 948 559 944 q 629 955 605 952 q 678 958 654 958 q 725 955 703 958 q 769 948 747 952 q 811 937 791 944 q 849 921 831 929 q 885 902 868 913 q 917 879 902 891 q 946 852 932 867 q 971 821 960 837 q 991 788 982 806 q 1008 753 1001 770 q 1022 714 1016 734 q 1031 674 1028 694 q 1036 631 1034 654 q 1035 586 1038 608 q 1029 539 1034 563 q 1020 492 1025 515 q 1004 445 1013 469 q 985 399 996 420 q 962 355 975 377 q 935 312 948 332 q 904 271 921 292 q 871 233 887 251 q 833 197 853 214 q 795 163 814 179 q 753 134 774 148 q 711 107 732 119 q 666 83 689 95 q 620 64 643 72 q 574 48 598 56 q 526 37 549 41 q 477 30 502 33 q 429 27 453 27 m 465 161 q 499 163 481 161 q 533 168 517 165 q 568 176 551 171 q 601 187 585 182 q 633 201 616 193 q 665 218 650 210 q 695 237 680 227 q 726 259 711 248 q 752 281 738 269 q 777 307 766 294 q 802 334 789 320 q 823 363 814 349 q 843 393 834 377 q 860 426 852 410 q 873 459 867 442 q 884 492 880 476 q 891 526 888 509 q 895 559 894 543 q 896 591 897 575 q 892 621 895 606 q 887 650 891 635 q 878 677 883 665 q 865 703 872 690 q 850 726 857 715 q 832 747 842 736 q 812 766 822 758 q 789 782 802 774 q 764 796 776 789 q 736 808 751 802 q 708 817 722 814 q 675 821 692 819 q 642 823 659 823 q 608 821 625 823 q 574 817 591 819 q 540 808 556 814 q 507 798 524 803 q 475 783 491 791 q 444 766 458 774 q 412 747 429 758 q 382 726 396 736 q 355 703 369 715 q 328 678 340 690 q 306 650 317 665 q 283 621 294 635 q 264 591 274 606 q 247 559 254 575 q 233 526 240 543 q 222 492 227 509 q 216 459 218 476 q 212 426 213 442 q 211 393 210 410 q 213 363 212 377 q 220 334 216 349 q 229 308 225 320 q 242 281 235 294 q 258 259 250 269 q 275 237 266 248 q 296 218 285 227 q 319 202 307 210 q 343 189 331 194 q 370 176 355 182 q 400 168 384 171 q 432 163 415 165 q 465 161 449 161 m 412 723 l 712 723 q 734 721 724 723 q 749 718 743 719 q 762 709 757 715 q 769 697 768 703 q 774 682 773 690 q 776 663 776 674 q 774 654 774 659 q 773 646 774 650 q 771 636 772 642 q 769 625 770 631 l 743 530 q 742 524 743 528 q 741 517 741 519 q 737 510 739 514 q 734 503 735 506 q 731 496 732 500 q 728 491 730 492 q 723 484 726 488 q 718 479 720 480 q 709 472 715 475 q 703 468 707 469 q 699 465 700 467 q 692 464 696 465 q 685 463 688 463 q 677 462 682 463 q 669 461 673 461 l 694 262 l 540 262 l 528 461 l 483 461 l 429 262 l 289 262 l 412 723 m 533 647 l 505 538 l 591 538 q 599 540 595 538 q 605 544 602 541 q 606 547 605 545 q 608 551 608 548 q 610 555 609 552 q 612 560 612 557 l 631 631 q 631 634 632 632 q 632 637 631 636 q 631 641 632 639 q 629 644 629 643 q 628 645 629 644 q 625 646 627 646 q 622 646 624 646 q 618 647 620 647 l 533 647 z "},"´":{"ha":418,"x_min":-81,"x_max":429,"o":"m 429 1031 l 132 808 l -81 808 l 198 1031 l 429 1031 z "},"¶":{"ha":791,"x_min":64,"x_max":921,"o":"m 921 977 l 589 -263 l 427 -263 l 614 434 l 480 434 l 292 -267 l 126 -267 l 315 434 q 254 437 283 434 q 201 449 225 441 q 153 471 174 457 q 117 500 132 484 q 90 538 100 517 q 75 586 79 560 q 83 708 64 639 q 104 772 91 742 q 134 826 118 802 q 173 873 152 852 q 217 910 194 894 q 265 939 239 926 q 320 960 292 952 q 378 972 349 968 q 437 977 407 977 l 921 977 z "},"·":{"ha":480,"x_min":232,"x_max":463,"o":"m 317 374 q 296 376 307 374 q 275 382 285 378 q 260 393 267 387 q 247 408 252 400 q 239 424 243 415 q 233 444 235 433 q 233 465 232 454 q 236 487 233 476 q 256 530 241 510 q 272 550 263 541 q 290 566 281 559 q 309 578 298 572 q 331 589 320 585 q 354 595 342 593 q 377 598 366 598 q 399 596 388 598 q 418 590 410 594 q 435 579 427 586 q 448 566 442 572 q 456 550 452 559 q 461 530 460 541 q 462 509 463 519 q 458 487 461 498 q 450 465 456 476 q 438 444 445 454 q 422 424 431 433 q 404 408 414 415 q 385 394 396 400 q 363 384 374 388 q 340 377 351 380 q 317 374 328 374 z "},"¸":{"ha":407,"x_min":60,"x_max":396,"o":"m 60 -359 l 75 -305 l 202 -305 q 206 -304 203 -305 q 210 -304 209 -304 q 216 -300 213 -302 q 221 -297 218 -298 q 225 -294 222 -296 q 228 -290 228 -292 q 231 -286 229 -289 q 233 -282 232 -283 l 266 -157 q 267 -154 267 -156 q 264 -151 266 -152 q 263 -146 264 -148 q 262 -144 262 -145 q 258 -140 260 -141 q 255 -138 256 -138 q 251 -138 252 -138 q 247 -137 250 -137 l 119 -137 l 134 -81 l 167 -81 l 239 0 l 332 0 l 262 -83 l 340 -83 q 351 -83 346 -83 q 359 -84 355 -84 q 367 -87 362 -85 q 373 -91 372 -88 q 380 -94 377 -92 q 385 -99 384 -96 q 389 -104 387 -100 q 392 -111 391 -109 q 395 -123 395 -117 q 396 -136 396 -129 q 395 -149 396 -141 q 392 -163 393 -156 l 362 -277 q 359 -285 361 -281 q 357 -293 358 -289 q 354 -301 357 -297 q 349 -309 351 -305 q 345 -316 347 -312 q 338 -323 342 -320 q 332 -331 335 -327 q 326 -338 328 -335 q 319 -342 323 -339 q 312 -347 315 -345 q 305 -351 309 -349 q 296 -354 301 -353 q 290 -357 294 -355 q 285 -358 286 -358 q 277 -359 281 -358 q 270 -359 274 -359 l 60 -359 z "},"¼":{"ha":1621,"x_min":111,"x_max":1491,"o":"m 1195 974 l 427 0 l 236 0 l 1000 974 l 1195 974 m 468 974 l 312 392 l 111 392 l 220 796 l 145 796 l 172 899 l 420 974 l 468 974 m 1478 582 l 1397 282 l 1491 282 l 1450 130 l 1356 130 l 1321 0 l 1124 0 l 1160 130 l 802 130 l 840 274 l 1242 582 l 1478 582 m 1251 477 l 991 285 l 1199 285 l 1251 477 z "},"½":{"ha":1621,"x_min":111,"x_max":1544,"o":"m 468 974 l 312 392 l 111 392 l 220 796 l 145 796 l 174 899 l 420 974 l 468 974 m 1195 974 l 427 0 l 236 0 l 1000 974 l 1195 974 m 1028 583 l 1002 487 l 1320 487 q 1322 486 1321 487 q 1326 486 1324 486 q 1330 485 1328 486 q 1335 484 1332 484 q 1336 483 1335 484 q 1339 480 1337 481 q 1339 473 1340 477 l 1324 416 q 1322 412 1324 414 q 1318 408 1321 410 q 1315 404 1317 406 q 1312 401 1313 403 q 1307 398 1309 400 q 1302 395 1305 396 q 1297 394 1299 395 q 1294 393 1295 393 l 1039 380 q 1029 379 1035 380 q 1019 377 1024 378 q 1010 376 1015 377 q 1004 373 1006 374 q 993 368 998 372 q 983 362 987 365 q 977 356 981 359 q 970 350 972 353 q 964 343 967 347 q 958 335 960 339 q 954 327 956 331 q 949 319 951 323 q 944 308 947 313 q 940 297 941 302 q 937 286 939 292 q 933 275 935 281 l 860 0 l 1398 0 l 1424 96 l 1088 96 l 1109 179 q 1113 187 1111 183 q 1118 194 1115 191 q 1122 198 1119 195 q 1128 203 1126 201 q 1135 206 1131 205 q 1142 208 1138 208 q 1149 208 1145 208 q 1157 209 1153 209 l 1393 221 q 1402 222 1397 221 q 1412 225 1408 222 q 1423 229 1417 227 q 1432 233 1428 231 q 1440 237 1436 235 q 1449 243 1444 240 q 1455 248 1451 244 q 1461 255 1458 252 q 1466 260 1463 256 q 1473 267 1469 264 q 1478 274 1476 270 q 1482 282 1481 278 q 1487 289 1484 285 q 1491 297 1489 293 q 1493 306 1491 301 q 1496 315 1495 311 l 1538 471 q 1540 481 1539 476 q 1542 492 1541 487 q 1544 503 1544 498 q 1542 513 1544 509 q 1541 524 1542 518 q 1537 534 1539 529 q 1534 543 1537 538 q 1529 551 1531 548 q 1521 559 1525 555 q 1514 566 1518 563 q 1503 571 1508 568 q 1493 576 1499 574 q 1482 580 1488 578 q 1472 582 1477 582 q 1459 583 1465 582 q 1449 583 1454 583 l 1028 583 z "},"¾":{"ha":1621,"x_min":-31,"x_max":1491,"o":"m 1251 477 l 991 285 l 1199 285 l 1251 477 m 1478 582 l 1398 282 l 1491 282 l 1450 130 l 1356 130 l 1321 0 l 1124 0 l 1160 130 l 802 130 l 840 274 l 1242 582 l 1478 582 m 1195 974 l 427 0 l 236 0 l 1000 974 l 1195 974 m 96 878 l 122 972 l 517 972 q 528 972 522 972 q 538 972 533 972 q 549 971 544 972 q 560 968 555 970 q 570 965 566 967 q 579 962 575 963 q 587 956 583 959 q 594 949 591 952 q 600 943 597 947 q 604 937 602 940 q 608 930 606 935 q 610 921 609 925 q 611 912 610 917 q 610 902 612 907 q 609 890 610 897 q 606 878 608 883 l 574 755 q 568 742 572 749 q 562 730 564 735 q 551 720 557 724 q 538 711 545 715 q 529 705 534 708 q 518 700 524 701 q 506 694 513 697 q 492 689 499 690 q 505 685 499 688 q 515 680 511 682 q 525 672 521 677 q 530 662 529 667 q 536 652 534 658 q 537 640 537 646 q 537 626 537 633 q 536 612 537 618 l 500 481 q 497 471 499 476 q 494 463 495 467 q 489 454 492 458 q 484 445 486 449 q 472 431 479 438 q 458 418 465 423 q 451 412 456 415 q 442 407 446 408 q 433 402 438 404 q 426 399 429 400 q 407 394 416 396 q 389 392 397 392 l -31 392 l -5 488 l 279 488 q 284 489 282 488 q 286 490 286 490 q 296 496 292 492 q 300 499 298 498 q 302 503 302 500 q 304 507 304 505 q 305 510 305 509 l 336 621 q 336 624 336 623 q 336 627 335 625 q 334 630 335 628 q 332 633 332 632 q 328 635 330 633 q 326 636 327 636 q 322 638 324 637 q 319 639 320 639 l 117 639 l 142 734 l 343 734 q 347 734 345 734 q 350 735 349 735 q 354 736 351 735 q 359 739 357 738 q 363 742 361 741 q 365 745 365 743 q 368 747 366 746 q 369 751 369 749 l 397 859 q 398 862 399 860 q 399 865 397 864 q 397 869 397 867 q 395 872 396 871 q 392 875 393 873 q 389 876 391 876 q 385 877 387 876 q 381 878 384 878 l 96 878 z "},"¿":{"ha":960,"x_min":-39,"x_max":872,"o":"m 785 0 l 98 0 q 82 1 90 0 q 66 4 75 1 q 52 9 60 5 q 39 15 45 12 q 25 22 31 18 q 14 31 19 27 q 3 42 8 37 q -8 53 -3 47 q -16 65 -12 58 q -24 79 -20 72 q -31 93 -28 85 q -35 107 -34 100 q -39 122 -38 114 q -39 137 -39 130 q -39 153 -39 145 q -37 170 -39 161 l 11 354 q 16 367 14 359 q 22 381 19 374 q 31 396 26 388 q 41 411 35 404 q 50 424 43 416 q 61 438 56 431 q 73 451 66 444 q 87 464 80 458 q 100 475 92 469 q 115 486 107 481 q 130 496 122 491 q 144 503 137 500 q 159 510 151 507 q 175 515 167 513 q 189 518 180 517 q 202 519 197 519 l 345 519 q 355 520 349 519 q 366 522 361 521 q 379 526 373 524 q 391 532 385 529 q 401 538 395 534 q 411 547 407 543 q 418 556 415 551 q 422 566 422 562 l 446 654 l 787 654 l 749 511 q 744 498 746 506 q 739 486 742 491 q 732 471 736 479 q 723 458 727 464 q 714 445 720 453 q 704 431 708 437 q 692 418 699 425 q 680 407 685 412 q 667 396 674 401 q 654 387 661 391 q 640 376 647 381 q 627 369 633 372 q 613 363 620 366 q 600 358 606 359 q 586 355 593 355 q 574 354 579 354 l 404 354 q 395 353 400 354 q 385 351 389 353 q 375 346 381 349 q 365 340 369 343 q 356 334 361 338 q 349 328 351 331 q 342 320 345 324 q 338 312 339 316 l 302 176 q 302 168 301 172 q 304 161 302 164 q 308 155 305 159 q 315 149 311 151 q 323 144 319 146 q 331 141 328 142 q 340 139 335 140 q 350 138 346 138 l 822 138 l 785 0 m 804 719 l 475 719 l 543 974 l 872 974 l 804 719 z "},"À":{"ha":1194,"x_min":-165,"x_max":974,"o":"m 865 970 l 974 0 l 610 0 l 579 258 l 184 258 l -1 0 l -165 0 l 525 970 l 865 970 m 524 751 l 300 420 l 567 420 l 524 751 m 490 1223 l 720 1223 l 882 1000 l 666 1000 l 490 1223 z "},"Á":{"ha":1194,"x_min":-165,"x_max":1035,"o":"m 524 751 l 300 420 l 567 420 l 524 751 m 865 970 l 974 0 l 610 0 l 579 258 l 184 258 l -1 0 l -165 0 l 525 970 l 865 970 m 1035 1223 l 735 1000 l 519 1000 l 804 1223 l 1035 1223 z "},"Â":{"ha":1194,"x_min":-165,"x_max":989,"o":"m 865 970 l 974 0 l 610 0 l 579 258 l 184 258 l -1 0 l -165 0 l 525 970 l 865 970 m 524 751 l 300 420 l 567 420 l 524 751 m 624 1004 l 420 1004 l 646 1223 l 883 1223 l 989 1004 l 773 1004 l 734 1116 l 624 1004 z "},"Ã":{"ha":1194,"x_min":-164,"x_max":1031,"o":"m 525 751 l 301 420 l 568 420 l 525 751 m 865 970 l 975 0 l 612 0 l 581 258 l 186 258 l 0 0 l -164 0 l 525 970 l 865 970 m 853 1158 q 870 1162 861 1158 q 887 1173 879 1165 q 905 1192 897 1181 q 920 1217 913 1203 l 1031 1217 q 1024 1199 1028 1208 q 1017 1181 1020 1190 q 1010 1162 1015 1172 q 1001 1145 1005 1153 q 991 1128 997 1137 q 982 1111 986 1119 q 970 1094 977 1103 q 959 1080 964 1085 q 946 1065 954 1073 q 932 1053 939 1058 q 916 1041 924 1046 q 899 1032 907 1036 q 880 1024 890 1028 q 859 1019 869 1020 q 835 1015 848 1016 q 810 1013 822 1013 q 795 1014 803 1013 q 781 1015 788 1015 q 768 1017 774 1016 q 754 1021 761 1019 q 741 1025 749 1023 q 727 1029 734 1027 q 713 1034 720 1031 q 700 1039 707 1036 q 686 1044 693 1040 q 674 1050 680 1048 q 663 1054 669 1051 q 652 1059 656 1057 q 642 1063 647 1061 q 632 1066 636 1065 q 623 1068 628 1067 q 616 1069 618 1069 q 604 1067 610 1069 q 594 1065 598 1066 q 583 1057 589 1062 q 574 1048 578 1053 q 563 1037 568 1043 q 553 1025 557 1031 q 546 1014 551 1020 q 540 1002 541 1008 l 426 1002 q 431 1019 427 1010 q 438 1036 435 1028 q 448 1054 444 1044 q 457 1072 453 1063 q 469 1090 463 1081 q 481 1108 475 1100 q 495 1125 487 1116 q 510 1142 503 1134 q 526 1158 518 1150 q 541 1172 534 1165 q 559 1184 549 1177 q 576 1195 568 1191 q 596 1204 586 1200 q 614 1211 606 1208 q 635 1215 624 1213 q 655 1217 646 1217 q 682 1215 669 1217 q 708 1208 696 1213 q 735 1200 722 1204 q 761 1190 749 1195 q 786 1179 773 1184 q 810 1171 799 1175 q 831 1163 821 1166 q 853 1158 842 1160 z "},"Ä":{"ha":1194,"x_min":-163,"x_max":1032,"o":"m 528 751 l 302 420 l 570 420 l 528 751 m 868 970 l 977 0 l 613 0 l 582 258 l 187 258 l 0 0 l -163 0 l 528 970 l 868 970 m 981 1004 l 743 1004 l 795 1200 l 1032 1200 l 981 1004 m 662 1004 l 423 1004 l 475 1200 l 713 1200 l 662 1004 z "},"Å":{"ha":1194,"x_min":-168,"x_max":970,"o":"m 861 970 l 970 0 l 606 0 l 575 258 l 180 258 l -5 0 l -168 0 l 521 970 l 861 970 m 521 751 l 297 420 l 564 420 l 521 751 m 716 1070 q 728 1071 722 1070 q 739 1074 734 1072 q 750 1079 745 1076 q 761 1086 755 1082 q 770 1095 766 1090 q 777 1104 774 1100 q 784 1115 781 1109 q 788 1127 787 1120 q 790 1139 789 1133 q 789 1149 791 1145 q 787 1159 789 1154 q 783 1168 785 1164 q 776 1175 780 1172 q 768 1180 772 1177 q 758 1183 764 1181 q 747 1185 753 1185 q 734 1184 741 1185 q 723 1181 728 1183 q 711 1175 718 1179 q 701 1168 705 1172 q 692 1159 696 1164 q 685 1150 688 1154 q 677 1139 681 1145 q 673 1127 674 1133 q 671 1115 671 1120 q 671 1105 670 1109 q 673 1095 671 1100 q 678 1086 675 1090 q 685 1079 681 1082 q 693 1074 689 1076 q 704 1071 699 1072 q 716 1070 709 1070 m 699 1004 q 674 1006 686 1004 q 652 1013 662 1009 q 635 1025 643 1019 q 621 1040 627 1032 q 610 1058 614 1048 q 604 1078 605 1067 q 604 1102 604 1089 q 608 1127 605 1115 q 616 1152 610 1139 q 629 1175 623 1165 q 647 1196 637 1185 q 666 1214 656 1206 q 689 1230 677 1222 q 713 1241 701 1237 q 739 1248 726 1245 q 764 1251 751 1251 q 787 1248 776 1251 q 808 1241 799 1245 q 827 1230 819 1237 q 841 1215 836 1223 q 852 1196 848 1207 q 857 1176 856 1185 q 858 1152 859 1165 q 854 1127 857 1139 q 846 1103 852 1115 q 833 1080 840 1090 q 815 1059 825 1069 q 795 1040 806 1048 q 772 1025 784 1032 q 749 1015 761 1019 q 724 1006 736 1009 q 699 1004 711 1004 z "},"Æ":{"ha":1427,"x_min":-172,"x_max":1480,"o":"m 623 972 l 1480 972 l 1438 815 l 1031 815 l 968 582 l 1364 582 l 1322 423 l 926 423 l 854 159 l 1271 159 l 1229 1 l 469 1 l 540 258 l 209 258 l 9 0 l -172 0 l 623 972 m 583 419 l 697 846 l 326 419 l 583 419 z "},"Ç":{"ha":875,"x_min":28,"x_max":1000,"o":"m 1000 975 l 956 815 l 585 815 q 568 811 576 815 q 557 805 563 808 q 548 799 552 802 q 532 783 537 791 q 526 774 529 779 q 522 765 524 769 l 373 209 q 373 193 372 201 q 377 184 374 189 q 382 176 380 179 q 389 170 385 174 q 397 165 393 167 q 406 162 401 163 q 415 161 411 161 l 795 161 l 751 0 l 446 0 l 377 -81 l 461 -81 q 473 -83 467 -81 q 484 -88 479 -85 q 494 -96 490 -91 q 500 -106 498 -100 q 506 -119 503 -111 q 510 -133 509 -126 q 510 -149 510 -141 q 509 -163 510 -156 l 477 -279 q 472 -293 476 -285 q 464 -308 468 -301 q 454 -321 460 -315 q 442 -335 448 -328 q 431 -345 437 -340 q 418 -353 425 -350 q 406 -357 412 -355 q 393 -359 400 -359 l 175 -359 l 190 -305 l 323 -305 q 325 -304 323 -305 q 328 -304 327 -304 q 333 -301 331 -302 q 336 -298 335 -300 q 340 -296 338 -297 q 342 -293 342 -294 q 345 -289 343 -290 q 346 -286 346 -288 l 381 -155 q 382 -151 382 -152 q 381 -148 381 -149 q 379 -144 380 -145 q 377 -141 378 -142 q 374 -140 376 -141 q 370 -138 372 -138 q 365 -138 368 -138 q 361 -137 362 -137 l 236 -137 l 250 -81 l 282 -81 l 351 0 l 179 0 q 157 1 168 0 q 136 4 145 1 q 115 10 125 5 q 96 19 106 15 q 82 28 90 23 q 68 41 75 34 q 55 55 61 46 q 45 72 49 64 q 39 87 42 79 q 34 106 35 96 q 30 125 31 115 q 28 146 28 136 q 30 166 30 156 q 31 187 30 176 q 35 210 33 198 q 39 233 37 221 l 174 735 q 182 760 178 747 q 190 781 186 772 q 199 802 194 791 q 210 823 205 812 q 224 846 217 834 q 239 867 232 857 q 256 886 247 876 q 273 903 264 895 q 288 917 281 910 q 304 930 296 924 q 321 941 312 936 q 338 951 330 947 q 360 961 349 956 q 381 968 372 966 q 406 973 393 971 q 429 975 418 975 l 1000 975 z "},"È":{"ha":871,"x_min":-92,"x_max":917,"o":"m 167 972 l 917 972 l 875 815 l 468 815 l 406 582 l 802 582 l 758 423 l 362 423 l 292 159 l 708 159 l 666 1 l -92 1 l 167 972 m 393 1227 l 624 1227 l 788 1004 l 572 1004 l 393 1227 z "},"É":{"ha":871,"x_min":-92,"x_max":917,"o":"m 167 972 l 917 972 l 875 815 l 468 815 l 406 582 l 802 582 l 758 423 l 362 423 l 292 159 l 708 159 l 666 1 l -92 1 l 167 972 m 848 1227 l 549 1004 l 334 1004 l 617 1227 l 848 1227 z "},"Ê":{"ha":871,"x_min":-92,"x_max":917,"o":"m 167 972 l 917 972 l 875 815 l 468 815 l 406 582 l 802 582 l 760 423 l 363 423 l 292 159 l 708 159 l 666 1 l -92 1 l 167 972 m 490 1004 l 286 1004 l 511 1223 l 749 1223 l 854 1004 l 640 1004 l 601 1116 l 490 1004 z "},"Ë":{"ha":871,"x_min":-88,"x_max":920,"o":"m 170 972 l 920 972 l 878 815 l 471 815 l 408 582 l 804 582 l 762 423 l 366 423 l 296 159 l 712 159 l 670 1 l -88 1 l 170 972 m 830 1004 l 593 1004 l 644 1200 l 882 1200 l 830 1004 m 513 1004 l 274 1004 l 326 1200 l 564 1200 l 513 1004 z "},"Ì":{"ha":530,"x_min":-66,"x_max":610,"o":"m 191 970 l 534 972 l 274 0 l -66 0 l 191 970 m 217 1227 l 448 1227 l 610 1004 l 395 1004 l 217 1227 z "},"Í":{"ha":530,"x_min":-66,"x_max":670,"o":"m 191 970 l 534 972 l 274 0 l -66 0 l 191 970 m 670 1227 l 373 1004 l 157 1004 l 439 1227 l 670 1227 z "},"Î":{"ha":582,"x_min":-66,"x_max":659,"o":"m 193 970 l 534 972 l 274 0 l -66 0 l 193 970 m 294 1004 l 94 1004 l 316 1223 l 553 1223 l 659 1004 l 444 1004 l 406 1116 l 294 1004 z "},"Ï":{"ha":572,"x_min":-64,"x_max":705,"o":"m 195 970 l 537 972 l 277 0 l -64 0 l 195 970 m 654 1004 l 416 1004 l 468 1200 l 705 1200 l 654 1004 m 336 1004 l 99 1004 l 152 1200 l 388 1200 l 336 1004 z "},"Ð":{"ha":1043,"x_min":-58,"x_max":1074,"o":"m 201 972 l 903 972 q 923 972 913 972 q 941 970 933 971 q 961 966 952 968 q 979 962 970 963 q 1000 953 990 959 q 1020 941 1010 947 q 1038 926 1029 935 q 1051 909 1046 918 q 1060 892 1055 902 q 1066 873 1065 883 q 1072 852 1070 864 q 1074 829 1074 841 q 1073 808 1073 819 q 1072 788 1073 798 q 1068 765 1070 777 q 1062 741 1066 753 l 928 236 q 920 212 924 224 q 911 189 916 199 q 902 167 907 178 q 892 146 897 156 q 878 123 886 134 q 864 103 871 113 q 848 84 857 94 q 830 68 838 75 q 812 52 822 60 q 793 39 803 45 q 772 28 783 33 q 753 20 762 23 q 725 11 739 15 q 699 5 711 7 q 672 2 686 3 q 646 1 658 1 l -58 1 l 53 422 l -30 422 l 12 583 l 96 583 l 201 972 m 500 812 l 439 585 l 570 585 l 526 422 l 396 422 l 326 159 l 524 159 q 532 161 528 159 q 540 164 537 163 q 550 170 545 165 q 557 178 555 174 q 564 185 560 180 q 570 194 568 190 q 576 203 574 198 q 579 212 578 208 l 730 774 q 730 781 730 777 q 728 788 730 785 q 726 794 728 791 q 722 800 724 798 q 717 804 720 802 q 711 808 713 807 q 696 812 703 812 l 500 812 z "},"Ñ":{"ha":1089,"x_min":-88,"x_max":1135,"o":"m 171 974 l 614 974 l 770 179 l 983 974 l 1135 974 l 875 3 l 431 3 l 274 812 l 57 3 l -88 3 l 171 974 m 818 1158 q 836 1162 827 1158 q 853 1173 845 1165 q 870 1192 861 1181 q 886 1217 879 1203 l 997 1217 q 989 1199 993 1208 q 982 1181 985 1190 q 974 1162 978 1172 q 966 1145 970 1153 q 957 1128 962 1137 q 948 1111 952 1119 q 937 1094 943 1103 q 925 1080 930 1085 q 911 1065 918 1073 q 897 1053 903 1058 q 863 1032 882 1040 q 844 1024 854 1028 q 823 1019 834 1020 q 800 1015 812 1016 q 774 1013 788 1013 q 762 1014 769 1013 q 747 1015 754 1015 q 733 1017 741 1016 q 719 1021 726 1019 q 705 1025 712 1023 q 692 1029 699 1027 q 678 1034 685 1031 q 666 1039 671 1036 q 652 1044 659 1040 q 640 1050 646 1048 q 629 1054 635 1051 q 618 1059 623 1057 q 608 1063 613 1061 q 598 1066 602 1065 q 589 1068 593 1067 q 581 1069 585 1069 q 569 1067 575 1069 q 559 1065 563 1066 q 548 1057 553 1062 q 537 1048 543 1053 q 528 1037 533 1043 q 518 1025 522 1031 q 510 1014 514 1020 q 505 1002 506 1008 l 391 1002 q 397 1019 393 1010 q 404 1036 401 1028 q 412 1054 407 1044 q 422 1072 418 1063 q 434 1090 427 1081 q 446 1108 441 1100 q 460 1125 453 1116 q 475 1142 468 1134 q 490 1158 481 1150 q 507 1172 499 1165 q 525 1184 515 1177 q 541 1195 534 1191 q 561 1204 551 1200 q 581 1211 571 1208 q 599 1215 589 1213 q 620 1217 609 1217 q 674 1208 648 1217 q 701 1200 688 1204 q 726 1190 713 1195 q 751 1179 739 1184 q 774 1171 762 1175 q 797 1163 785 1166 q 818 1158 808 1160 z "},"Ò":{"ha":1076,"x_min":-47,"x_max":1067,"o":"m 374 974 l 905 974 q 951 970 929 974 q 973 964 963 967 q 991 956 983 960 q 1010 946 1001 952 q 1027 935 1020 940 q 1040 918 1034 928 q 1051 898 1047 907 q 1059 878 1055 888 q 1063 854 1062 867 q 1067 827 1066 842 q 1066 798 1067 812 q 1064 776 1066 788 q 1059 751 1062 764 q 1054 725 1057 739 q 1047 697 1051 711 l 936 279 q 927 250 932 264 q 917 221 922 235 q 907 195 913 208 q 895 170 901 182 q 882 142 890 155 q 865 117 873 129 q 846 93 856 104 q 829 72 837 81 q 796 45 814 57 q 762 24 779 33 q 739 14 751 19 q 715 8 727 9 q 690 5 703 7 q 663 3 677 3 l 94 3 q 72 3 83 3 q 53 7 61 4 q 35 12 43 8 q 19 20 26 16 q 1 33 9 26 q -12 47 -7 39 q -24 64 -19 56 q -34 84 -30 73 q -39 102 -37 92 q -43 121 -42 111 q -46 141 -45 130 q -46 163 -47 152 q -46 182 -46 172 q -43 203 -46 193 q -40 223 -42 213 q -37 243 -38 233 l 91 723 q 100 751 95 736 q 109 779 104 766 q 120 803 114 791 q 132 826 126 815 q 145 849 137 838 q 160 871 153 860 q 176 890 167 882 q 193 906 184 899 q 210 921 201 914 q 229 935 220 928 q 249 945 239 940 q 269 955 259 951 q 294 962 281 959 q 321 968 308 966 q 348 972 334 970 q 374 974 362 974 m 514 812 q 501 811 507 812 q 490 808 495 810 q 478 802 484 806 q 468 796 472 799 q 457 786 463 792 q 448 774 452 780 q 441 761 445 768 q 435 749 438 754 l 292 210 q 291 201 290 206 q 292 193 292 197 q 296 184 293 189 q 300 176 298 179 q 308 170 304 174 q 315 165 312 167 q 323 161 319 163 q 332 160 328 160 l 514 160 q 524 161 518 160 q 533 165 529 163 q 544 171 538 167 q 553 179 549 175 q 562 186 557 182 q 568 195 566 191 q 574 205 571 199 q 578 214 576 210 l 724 761 q 726 770 726 765 q 726 780 726 776 q 722 789 724 784 q 718 796 720 793 q 711 802 715 799 q 704 807 708 806 q 696 810 700 808 q 688 812 692 812 l 514 812 m 469 1227 l 701 1227 l 864 1004 l 648 1004 l 469 1227 z "},"Ó":{"ha":1076,"x_min":-47,"x_max":1067,"o":"m 514 812 q 501 811 507 812 q 490 808 495 810 q 478 802 484 806 q 468 796 472 799 q 457 786 463 792 q 448 774 452 780 q 441 761 445 768 q 435 749 438 754 l 292 210 q 291 201 290 206 q 293 193 292 197 q 296 184 293 189 q 300 176 298 179 q 308 170 304 174 q 315 165 312 167 q 323 161 319 163 q 332 160 328 160 l 514 160 q 524 161 518 160 q 533 165 529 163 q 544 171 538 167 q 553 179 549 175 q 562 186 557 182 q 568 195 566 191 q 574 205 571 199 q 578 214 576 210 l 724 761 q 726 770 726 765 q 726 780 726 776 q 722 789 724 784 q 718 796 720 793 q 711 802 715 799 q 704 807 708 806 q 696 810 700 808 q 688 812 692 812 l 514 812 m 374 974 l 905 974 q 951 970 929 974 q 973 964 963 967 q 991 956 983 960 q 1010 946 1001 952 q 1027 935 1020 940 q 1040 918 1034 928 q 1051 898 1047 907 q 1059 878 1055 888 q 1063 854 1062 867 q 1067 827 1066 842 q 1066 798 1067 812 q 1064 776 1066 788 q 1059 751 1062 764 q 1054 725 1057 739 q 1047 697 1051 711 l 936 279 q 927 250 932 264 q 917 221 922 235 q 907 195 913 208 q 895 170 901 182 q 882 142 890 155 q 865 117 873 129 q 846 93 856 104 q 829 72 837 81 q 796 45 814 57 q 762 24 779 33 q 739 14 751 19 q 715 8 727 9 q 690 5 703 7 q 663 3 677 3 l 94 3 q 72 3 83 3 q 53 7 61 4 q 35 12 43 8 q 19 20 26 16 q 1 33 9 26 q -12 47 -7 39 q -24 64 -18 56 q -34 84 -30 73 q -39 102 -37 92 q -43 121 -41 111 q -46 141 -45 130 q -46 163 -47 152 q -46 182 -46 172 q -43 203 -46 193 q -40 223 -42 213 q -35 243 -38 233 l 91 723 q 100 751 95 736 q 109 779 104 766 q 120 803 114 791 q 132 826 126 815 q 144 849 137 838 q 159 871 152 860 q 175 890 167 882 q 191 906 183 899 q 210 921 199 914 q 229 935 220 928 q 249 945 239 940 q 269 955 259 951 q 294 962 281 959 q 321 968 308 966 q 348 972 334 970 q 374 974 362 974 m 924 1227 l 627 1004 l 410 1004 l 693 1227 l 924 1227 z "},"Ô":{"ha":1076,"x_min":-46,"x_max":1067,"o":"m 374 974 l 905 974 q 952 970 929 974 q 973 964 963 967 q 993 956 983 960 q 1011 946 1002 952 q 1028 935 1020 940 q 1041 918 1035 928 q 1051 898 1047 907 q 1059 878 1055 888 q 1065 854 1062 867 q 1067 827 1066 842 q 1066 798 1067 812 q 1065 776 1066 788 q 1059 751 1063 764 q 1055 725 1058 739 q 1048 697 1051 711 l 936 279 q 927 250 932 264 q 918 221 922 235 q 907 195 913 208 q 895 170 901 182 q 882 142 890 155 q 865 117 873 129 q 847 93 857 104 q 829 72 837 81 q 797 45 814 57 q 764 24 780 33 q 739 14 751 19 q 715 8 727 9 q 690 5 704 7 q 663 3 677 3 l 94 3 q 73 3 83 3 q 53 7 62 4 q 35 12 43 8 q 19 20 26 16 q 2 33 9 26 q -12 47 -5 39 q -24 64 -18 56 q -33 84 -30 73 q -39 102 -37 92 q -42 121 -41 111 q -45 141 -43 130 q -46 163 -46 152 q -45 182 -45 172 q -43 203 -45 193 q -40 223 -42 213 q -35 243 -38 233 l 92 723 q 101 751 96 736 q 110 779 106 766 q 121 803 115 791 q 132 826 127 815 q 146 849 138 838 q 160 871 153 860 q 176 890 168 882 q 193 906 184 899 q 210 921 201 914 q 231 935 220 928 q 250 945 240 940 q 270 955 260 951 q 296 962 282 959 q 321 968 309 966 q 349 972 335 970 q 374 974 362 974 m 514 812 q 502 811 509 812 q 491 808 495 810 q 479 802 484 806 q 468 796 473 799 q 458 786 463 792 q 449 774 453 780 q 441 761 445 768 q 437 749 438 754 l 292 210 q 292 201 292 206 q 293 193 292 197 q 296 184 294 189 q 301 176 298 179 q 308 170 304 174 q 316 165 312 167 q 324 161 319 163 q 334 160 330 160 l 515 160 q 524 161 519 160 q 534 165 529 163 q 544 171 538 167 q 553 179 549 175 q 562 186 557 182 q 570 195 566 191 q 574 205 572 199 q 578 214 576 210 l 724 761 q 726 770 726 765 q 726 780 727 776 q 723 789 724 784 q 718 796 722 793 q 712 802 716 799 q 704 807 708 806 q 696 810 701 808 q 688 812 692 812 l 514 812 m 571 1004 l 368 1004 l 591 1223 l 829 1223 l 935 1004 l 720 1004 l 681 1116 l 571 1004 z "},"Õ":{"ha":1076,"x_min":-46,"x_max":1069,"o":"m 515 812 q 503 811 510 812 q 491 808 496 810 q 479 802 486 806 q 469 796 473 799 q 458 786 464 792 q 449 774 453 780 q 443 761 446 768 q 437 749 439 754 l 293 210 q 292 201 292 206 q 294 193 293 197 q 297 184 294 189 q 301 176 300 179 q 309 170 305 174 q 316 165 313 167 q 325 161 320 163 q 334 160 330 160 l 515 160 q 525 161 519 160 q 534 165 530 163 q 545 171 540 167 q 555 179 551 175 q 563 186 559 182 q 570 195 567 191 q 575 205 572 199 q 579 214 578 210 l 726 761 q 727 770 727 765 q 727 780 727 776 q 724 789 726 784 q 719 796 722 793 q 713 802 716 799 q 705 807 709 806 q 697 810 701 808 q 689 812 693 812 l 515 812 m 376 974 l 906 974 q 952 970 930 974 q 975 964 964 967 q 993 956 985 960 q 1012 946 1002 952 q 1028 935 1021 940 q 1042 918 1035 928 q 1053 898 1048 907 q 1060 878 1057 888 q 1065 854 1063 867 q 1068 827 1067 842 q 1067 798 1069 812 q 1065 776 1067 788 q 1061 751 1063 764 q 1055 725 1058 739 q 1048 697 1053 711 l 937 279 q 928 250 933 264 q 918 221 924 235 q 908 195 914 208 q 897 170 902 182 q 883 142 891 155 q 867 117 875 129 q 848 93 857 104 q 830 72 838 81 q 798 45 815 57 q 764 24 780 33 q 741 14 753 19 q 716 8 728 9 q 691 5 704 7 q 665 3 678 3 l 95 3 q 73 3 84 3 q 54 7 62 4 q 36 12 45 8 q 20 20 27 16 q 3 33 11 26 q -11 47 -5 39 q -22 64 -16 56 q -33 84 -28 73 q -37 102 -35 92 q -42 121 -39 111 q -45 141 -43 130 q -45 163 -46 152 q -44 182 -45 172 q -42 203 -43 193 q -39 223 -41 213 q -34 243 -37 233 l 92 723 q 101 751 96 736 q 110 779 106 766 q 121 803 115 791 q 133 826 127 815 q 146 849 138 838 q 160 871 153 860 q 176 890 168 882 q 193 906 184 899 q 211 921 201 914 q 231 935 221 928 q 250 945 240 940 q 270 955 260 951 q 296 962 282 959 q 323 968 309 966 q 349 972 335 970 q 376 974 363 974 m 799 1158 q 817 1162 808 1158 q 834 1173 826 1165 q 850 1192 842 1181 q 865 1217 859 1203 l 977 1217 q 970 1199 974 1208 q 963 1181 966 1190 q 955 1162 959 1172 q 947 1145 951 1153 q 937 1128 941 1137 q 928 1111 932 1119 q 918 1094 924 1103 q 906 1080 911 1085 q 892 1065 899 1073 q 878 1053 884 1058 q 844 1032 863 1040 q 825 1024 836 1028 q 804 1019 815 1020 q 781 1015 793 1016 q 755 1013 768 1013 q 741 1014 749 1013 q 728 1016 734 1015 q 714 1019 722 1017 q 700 1021 707 1020 q 686 1025 693 1023 q 673 1029 680 1027 q 659 1034 666 1031 q 647 1039 652 1036 q 633 1044 640 1040 q 621 1050 627 1048 q 610 1054 616 1051 q 598 1059 604 1057 q 587 1063 593 1061 q 578 1066 582 1065 q 570 1068 574 1067 q 562 1069 566 1069 q 550 1067 556 1069 q 540 1065 544 1066 q 529 1057 534 1062 q 519 1048 524 1053 q 509 1037 514 1043 q 499 1025 503 1031 q 491 1014 495 1020 q 484 1002 487 1008 l 372 1002 q 378 1019 374 1010 q 384 1036 381 1028 q 393 1055 388 1046 q 403 1073 399 1065 q 415 1090 408 1081 q 427 1108 422 1100 q 441 1125 434 1116 q 456 1142 449 1134 q 471 1158 463 1150 q 487 1172 479 1165 q 504 1184 495 1177 q 521 1195 513 1191 q 541 1204 532 1200 q 560 1211 551 1208 q 580 1215 570 1213 q 601 1217 590 1217 q 627 1215 614 1217 q 654 1208 640 1213 q 681 1200 667 1204 q 705 1190 694 1195 q 732 1179 719 1184 q 755 1171 745 1175 q 778 1163 766 1166 q 799 1158 789 1160 z "},"Ö":{"ha":1076,"x_min":-43,"x_max":1072,"o":"m 377 974 l 907 974 q 955 970 933 974 q 976 964 966 967 q 996 956 986 960 q 1014 946 1005 952 q 1031 935 1023 940 q 1044 918 1038 928 q 1055 898 1050 907 q 1062 878 1058 888 q 1067 854 1066 867 q 1070 827 1069 842 q 1070 798 1072 812 q 1067 776 1069 788 q 1063 751 1066 764 q 1058 725 1061 739 q 1051 697 1055 711 l 939 279 q 930 250 935 264 q 921 221 925 235 q 910 195 916 208 q 899 170 905 182 q 884 142 892 155 q 868 117 876 129 q 850 93 860 104 q 831 72 841 81 q 800 45 817 57 q 766 24 783 33 q 743 14 755 19 q 719 8 730 9 q 693 5 707 7 q 667 3 680 3 l 98 3 q 75 3 85 3 q 56 7 65 4 q 37 12 46 8 q 22 20 28 16 q 5 33 14 26 q -8 47 -3 39 q -21 64 -15 56 q -30 84 -27 73 q -35 102 -33 92 q -39 121 -38 111 q -42 141 -41 130 q -43 163 -43 152 q -42 182 -42 172 q -41 203 -42 193 q -37 223 -38 213 q -33 243 -35 233 l 95 723 q 104 751 99 736 q 113 779 109 766 q 124 803 118 791 q 134 826 130 815 q 149 849 141 838 q 163 871 156 860 q 179 890 171 882 q 195 906 187 899 q 214 921 203 914 q 233 935 224 928 q 253 945 243 940 q 273 955 263 951 q 298 962 285 959 q 324 968 312 966 q 351 972 338 970 q 377 974 365 974 m 518 812 q 505 811 511 812 q 494 808 498 810 q 482 802 488 806 q 471 796 476 799 q 461 786 467 792 q 452 774 456 780 q 444 761 448 768 q 439 749 441 754 l 296 210 q 294 201 294 206 q 296 193 294 197 q 299 184 297 189 q 304 176 301 179 q 311 170 307 174 q 319 165 315 167 q 327 161 321 163 q 336 160 332 160 l 518 160 q 527 161 522 160 q 537 165 532 163 q 547 171 541 167 q 557 179 552 175 q 564 186 560 182 q 572 195 568 191 q 578 205 575 199 q 581 214 581 210 l 727 761 q 729 770 728 765 q 728 780 730 776 q 726 789 727 784 q 720 796 724 793 q 715 802 719 799 q 708 807 711 806 q 700 810 704 808 q 692 812 696 812 l 518 812 m 921 1004 l 684 1004 l 736 1200 l 974 1200 l 921 1004 m 604 1004 l 365 1004 l 418 1200 l 656 1200 l 604 1004 z "},"×":{"ha":780,"x_min":0,"x_max":807,"o":"m 256 745 l 430 507 l 731 745 l 807 640 l 506 404 l 680 167 l 549 64 l 374 300 l 75 64 l 0 167 l 300 404 l 126 642 l 256 745 z "},"Ø":{"ha":1152,"x_min":-182,"x_max":1270,"o":"m 410 974 l 941 974 q 946 974 943 974 q 952 974 949 974 q 958 973 955 974 q 963 972 962 972 l 1111 1120 l 1270 1122 l 1070 925 q 1079 911 1074 918 q 1088 898 1084 905 q 1095 878 1090 888 q 1100 854 1099 867 q 1103 827 1101 842 q 1103 798 1104 812 q 1100 776 1101 788 q 1096 751 1099 764 q 1090 725 1093 739 q 1084 697 1088 711 l 971 279 q 962 250 967 264 q 954 221 958 235 q 943 195 948 208 q 932 170 937 182 q 917 142 925 155 q 901 117 909 129 q 883 93 892 104 q 864 72 873 81 q 849 58 857 65 q 833 45 841 50 q 816 33 825 38 q 799 24 807 28 q 775 14 788 19 q 751 8 762 9 q 726 5 739 7 q 700 3 713 3 l 138 3 l -30 -161 l -182 -161 l 24 46 q 18 55 22 50 q 12 64 15 60 q 6 73 9 68 q 1 84 3 79 q -3 102 0 92 q -7 121 -5 111 q -9 141 -8 130 q -11 163 -11 152 q -9 182 -9 172 q -8 203 -9 193 q -4 223 -5 213 q 0 243 -3 233 l 127 723 q 136 751 132 736 q 145 779 141 766 q 157 803 151 791 q 167 826 163 815 q 181 849 174 838 q 195 871 189 860 q 212 890 203 882 q 228 906 220 899 q 246 921 236 914 q 266 935 256 928 q 286 945 275 940 q 305 955 296 951 q 331 962 317 959 q 357 968 345 966 q 384 972 370 970 q 410 974 397 974 m 551 812 q 537 811 544 812 q 526 808 530 810 q 515 802 521 806 q 505 796 509 799 q 494 786 499 792 q 484 774 488 780 q 477 761 481 768 q 472 749 473 754 l 377 393 l 761 776 q 762 781 762 777 q 760 787 761 784 q 757 791 758 788 q 754 796 755 793 q 747 802 751 799 q 741 807 743 806 q 732 810 736 808 q 724 812 728 812 l 551 812 m 534 149 q 547 150 540 149 q 557 153 553 151 q 570 159 564 155 q 579 165 575 163 q 591 176 585 171 q 600 189 597 182 q 607 201 604 194 q 612 214 610 208 l 708 570 l 321 186 q 322 180 321 183 q 324 175 323 176 q 328 170 326 172 q 331 165 330 167 q 337 159 334 163 q 345 155 340 156 q 352 151 347 152 q 361 149 357 149 l 534 149 z "},"Ù":{"ha":1066,"x_min":-39,"x_max":1112,"o":"m 163 974 l 503 974 l 308 243 q 304 229 305 236 q 304 217 304 222 q 307 204 305 210 q 312 193 309 198 q 319 181 315 187 q 328 171 324 175 q 342 164 335 167 q 357 161 349 161 l 680 161 q 695 162 688 161 q 708 165 703 163 q 721 171 715 167 q 732 178 727 175 q 743 187 738 182 q 753 199 749 193 q 760 213 757 205 q 765 227 764 221 l 966 974 l 1112 974 l 921 258 q 914 235 918 247 q 907 213 910 224 q 898 189 903 201 q 887 165 892 176 q 876 142 883 155 q 863 121 869 130 q 846 99 854 110 q 829 77 837 88 q 814 61 822 69 q 796 47 806 53 q 777 35 788 42 q 757 24 766 28 q 731 14 745 19 q 704 7 718 8 q 673 2 689 4 q 640 0 656 0 l 125 0 q 94 1 109 0 q 69 5 80 3 q 45 12 57 7 q 26 22 34 16 q 9 34 16 27 q -3 47 3 41 q -14 64 -8 56 q -23 81 -19 73 q -31 102 -27 91 q -37 125 -35 114 q -38 149 -37 137 q -39 174 -39 161 q -37 198 -38 186 q -34 222 -37 210 q -30 248 -33 235 q -24 271 -27 260 l 163 974 m 467 1227 l 697 1227 l 860 1004 l 644 1004 l 467 1227 z "},"Ú":{"ha":1066,"x_min":-39,"x_max":1112,"o":"m 163 974 l 503 974 l 308 243 q 304 229 305 236 q 304 217 304 222 q 307 204 305 210 q 312 193 309 198 q 319 181 315 187 q 328 171 324 175 q 342 164 335 167 q 357 161 349 161 l 680 161 q 695 162 688 161 q 708 165 703 163 q 721 171 715 167 q 732 178 727 175 q 743 187 738 182 q 753 199 749 193 q 760 213 757 205 q 765 227 764 221 l 966 974 l 1112 974 l 921 258 q 914 235 918 247 q 907 213 910 224 q 898 189 903 201 q 887 165 892 176 q 876 142 883 155 q 863 121 869 130 q 846 99 854 110 q 829 77 837 88 q 814 61 822 69 q 796 47 806 53 q 777 35 788 42 q 757 24 766 28 q 731 14 745 19 q 704 7 718 8 q 673 2 689 4 q 640 0 656 0 l 125 0 q 94 1 109 0 q 69 5 80 3 q 45 12 57 7 q 26 22 34 16 q 9 34 16 27 q -3 47 3 41 q -14 64 -8 56 q -23 81 -19 73 q -31 102 -27 91 q -37 125 -35 114 q -38 149 -37 137 q -39 174 -39 161 q -37 198 -38 186 q -34 222 -37 210 q -30 248 -33 235 q -24 271 -27 260 l 163 974 m 920 1227 l 623 1004 l 407 1004 l 689 1227 l 920 1227 z "},"Û":{"ha":1066,"x_min":-39,"x_max":1112,"o":"m 163 974 l 503 974 l 308 243 q 306 229 307 236 q 305 217 305 222 q 307 204 305 210 q 312 193 309 198 q 319 181 315 187 q 330 171 324 175 q 342 164 335 167 q 357 161 350 161 l 680 161 q 695 162 688 161 q 709 165 703 163 q 722 171 716 167 q 732 178 728 175 q 745 187 739 182 q 753 199 750 193 q 761 213 757 205 q 766 227 765 221 l 966 974 l 1112 974 l 921 258 q 914 235 918 247 q 907 213 910 224 q 899 189 903 201 q 888 165 894 176 q 876 142 883 155 q 863 121 869 130 q 847 99 856 110 q 829 77 838 88 q 814 61 823 69 q 796 47 806 53 q 777 35 788 42 q 757 24 766 28 q 732 14 745 19 q 704 7 719 8 q 673 2 689 4 q 640 0 656 0 l 125 0 q 96 1 110 0 q 69 5 81 3 q 46 12 57 7 q 26 22 35 16 q 10 34 18 27 q -3 47 3 41 q -14 64 -8 56 q -23 81 -19 73 q -31 102 -27 91 q -35 125 -34 114 q -38 149 -37 137 q -39 174 -39 161 q -37 198 -38 186 q -34 222 -37 210 q -29 248 -31 235 q -23 271 -27 260 l 163 974 m 578 1004 l 374 1004 l 600 1223 l 837 1223 l 943 1004 l 727 1004 l 688 1116 l 578 1004 z "},"Ü":{"ha":1066,"x_min":-37,"x_max":1116,"o":"m 167 974 l 507 974 l 311 243 q 309 229 309 236 q 308 217 308 222 q 311 204 309 210 q 315 193 312 198 q 322 181 317 187 q 332 171 327 175 q 346 164 339 167 q 359 161 353 161 l 682 161 q 698 162 690 161 q 712 165 705 163 q 725 171 719 167 q 736 178 731 175 q 747 187 742 182 q 757 199 753 193 q 764 213 760 205 q 769 227 768 221 l 970 974 l 1116 974 l 924 258 q 918 235 921 247 q 910 213 914 224 q 901 189 906 201 q 891 165 897 176 q 879 142 886 155 q 865 121 872 130 q 850 99 859 110 q 833 77 841 88 q 817 61 826 69 q 800 47 808 53 q 781 35 791 42 q 760 24 770 28 q 735 14 749 19 q 708 7 722 8 q 676 2 693 4 q 643 0 659 0 l 127 0 q 98 1 113 0 q 72 5 84 3 q 50 12 61 7 q 30 22 38 16 q 13 34 20 27 q 0 47 5 41 q -11 64 -5 56 q -20 81 -16 73 q -28 102 -24 91 q -33 125 -31 114 q -35 149 -34 137 q -35 174 -37 161 q -33 198 -34 186 q -31 222 -33 210 q -26 248 -28 235 q -20 271 -23 260 l 167 974 m 916 1004 l 678 1004 l 730 1200 l 967 1200 l 916 1004 m 597 1004 l 357 1004 l 410 1200 l 648 1200 l 597 1004 z "},"Ý":{"ha":1078,"x_min":81,"x_max":1124,"o":"m 277 377 l 81 974 l 481 974 l 616 574 l 949 974 l 1124 974 l 612 362 l 515 0 l 176 0 l 277 377 m 916 1227 l 618 1004 l 403 1004 l 685 1227 l 916 1227 z "},"Þ":{"ha":1043,"x_min":-58,"x_max":1040,"o":"m 201 975 l 545 975 l 505 819 l 888 819 q 906 819 898 819 q 922 817 914 818 q 939 812 930 815 q 955 808 948 810 q 970 802 963 806 q 983 795 977 799 q 996 786 990 791 q 1008 776 1002 781 q 1021 762 1015 770 q 1029 743 1027 753 q 1036 722 1034 732 q 1040 699 1039 711 q 1040 683 1040 692 q 1039 666 1040 674 q 1036 648 1038 658 q 1032 629 1035 639 l 967 388 q 960 363 964 376 q 951 340 955 350 q 940 320 945 331 q 929 300 935 309 q 916 283 922 292 q 903 269 909 274 q 888 255 897 262 q 873 243 880 248 q 854 231 864 236 q 836 221 845 225 q 817 212 826 217 q 798 206 807 208 q 779 201 789 203 q 761 198 769 199 q 741 196 751 197 q 722 195 731 195 l 336 195 l 285 0 l -58 0 l 201 975 m 460 661 l 377 351 l 568 351 q 578 353 572 351 q 587 357 583 354 q 597 363 591 358 q 608 372 604 368 q 616 380 612 376 q 623 389 620 385 q 629 400 627 395 q 633 410 632 406 l 686 609 q 688 618 688 613 q 688 627 688 623 q 686 635 688 631 q 682 643 684 640 q 677 650 680 647 q 670 655 674 652 q 663 659 666 656 q 655 661 659 661 l 460 661 z "},"ß":{"ha":1025,"x_min":-31,"x_max":1015,"o":"m 897 972 q 908 972 902 972 q 921 971 914 971 q 932 970 926 971 q 944 967 939 968 q 955 963 949 966 q 966 959 960 960 q 977 953 971 956 q 985 947 982 949 q 1008 916 1000 935 q 1006 867 1015 895 l 971 735 q 963 714 968 724 q 952 697 958 704 q 934 683 944 690 q 911 670 924 675 q 895 663 905 667 q 878 656 886 659 q 855 650 867 654 q 831 643 844 646 q 853 642 842 643 q 872 640 864 642 q 891 637 883 639 q 907 633 899 635 q 928 626 918 631 q 944 617 937 621 q 957 605 951 612 q 967 593 963 598 q 975 576 971 585 q 979 557 978 567 q 981 537 981 547 q 979 517 981 528 q 976 494 978 506 q 971 473 974 483 q 966 452 968 464 q 962 430 964 441 l 898 195 q 892 174 895 184 q 884 153 888 163 q 876 134 880 142 q 868 117 872 125 q 857 96 863 106 q 844 79 850 87 q 830 62 838 71 q 814 49 822 54 q 802 37 808 42 q 788 28 795 33 q 772 20 780 24 q 757 15 764 16 q 736 9 747 12 q 715 5 726 7 q 692 2 704 3 q 670 1 681 1 l 357 1 l 393 137 l 518 137 q 524 138 519 137 q 529 140 528 138 q 537 143 533 141 q 544 148 541 145 q 549 153 547 149 q 553 159 552 157 q 558 164 556 160 q 562 171 560 168 l 650 500 q 651 509 651 505 q 650 518 651 514 q 648 528 650 524 q 646 536 647 533 q 640 543 643 540 q 633 549 637 547 q 626 553 631 551 q 617 555 621 555 l 496 555 l 534 694 l 629 694 q 642 696 635 694 q 654 703 648 699 q 666 713 659 707 q 677 724 673 719 q 684 734 680 728 q 690 745 688 739 q 696 755 693 750 q 700 765 699 761 q 702 774 701 769 q 703 787 703 780 q 701 798 703 792 q 700 808 700 804 q 696 819 699 814 q 690 826 693 823 q 682 831 688 829 q 673 833 677 833 l 557 833 q 551 832 555 833 q 544 830 547 831 q 536 827 540 829 q 530 823 532 825 q 524 818 528 821 q 519 814 521 815 q 515 807 517 811 q 511 802 513 803 l 297 0 l -31 0 l 122 578 l 26 578 l 62 713 l 157 713 l 174 776 q 180 795 176 785 q 189 817 184 806 q 200 836 194 826 q 213 856 206 846 q 223 869 217 861 q 235 883 229 876 q 249 897 241 890 q 264 910 256 905 q 280 922 271 916 q 298 935 289 929 q 319 945 309 940 q 339 955 330 951 q 361 962 350 959 q 384 967 373 964 q 407 970 395 968 q 431 972 419 972 l 897 972 z "},"à":{"ha":963,"x_min":-45,"x_max":929,"o":"m 913 469 l 788 3 l 498 3 l 498 79 q 494 71 496 75 q 490 65 491 66 q 484 58 487 62 q 480 53 481 54 q 473 45 476 49 q 467 39 469 41 q 459 33 464 37 q 453 27 454 28 q 434 16 444 20 q 416 8 425 11 q 397 5 407 7 q 378 3 387 3 l 76 3 q 33 7 50 3 q 16 12 24 8 q 0 19 7 15 q -12 28 -5 23 q -23 39 -19 33 q -32 53 -27 45 q -38 69 -37 61 q -43 87 -41 77 q -43 109 -45 98 q -43 131 -43 119 q -42 153 -43 142 q -37 176 -39 164 q -31 199 -35 189 q -26 222 -28 210 q -22 243 -24 233 q -16 263 -19 252 q -11 283 -14 274 q -4 304 -8 293 q 3 327 0 316 q 12 348 7 338 q 20 369 16 358 q 32 389 26 378 q 45 408 38 400 q 60 427 52 418 q 77 442 69 435 q 96 457 85 450 q 119 468 107 464 q 159 480 137 476 q 205 484 180 484 l 541 484 q 551 486 545 484 q 562 490 556 487 q 572 496 566 491 q 583 505 578 500 q 589 510 586 506 q 594 518 593 514 q 600 526 598 522 q 602 533 602 530 q 604 549 605 541 q 600 557 602 553 q 595 563 598 560 q 591 568 594 566 q 583 574 587 571 q 568 578 576 578 l 121 578 l 159 718 l 783 718 q 808 716 796 718 q 831 713 821 715 q 852 707 842 711 q 869 699 861 703 q 886 688 879 694 q 899 674 894 681 q 911 659 906 667 q 918 642 916 650 q 924 625 921 633 q 926 608 926 616 q 928 589 928 598 q 929 570 929 579 q 928 544 929 557 q 922 518 926 530 q 918 493 921 506 q 913 469 916 480 m 552 346 l 392 346 q 380 344 387 346 q 369 340 374 342 q 358 334 363 338 q 347 327 353 331 q 338 318 343 323 q 330 309 334 313 q 323 298 327 304 q 319 289 320 293 l 292 187 q 291 180 292 184 q 292 174 290 176 q 293 165 292 170 q 294 159 294 161 q 301 152 297 156 q 308 146 305 148 q 316 142 312 144 q 324 141 320 141 l 454 141 q 461 142 457 141 q 471 145 465 142 q 479 151 475 146 q 488 157 484 155 q 494 163 491 159 q 500 170 498 167 q 505 178 503 174 q 509 184 507 182 l 552 346 m 389 977 l 621 977 l 784 754 l 568 754 l 389 977 z "},"á":{"ha":963,"x_min":-45,"x_max":929,"o":"m 552 346 l 392 346 q 380 344 387 346 q 370 340 374 342 q 358 334 363 338 q 347 327 353 331 q 338 318 343 323 q 330 309 334 313 q 323 298 327 304 q 319 289 320 293 l 292 187 q 292 180 292 184 q 292 174 292 176 q 293 165 292 170 q 296 159 294 161 q 301 152 297 156 q 308 146 305 148 q 316 142 312 144 q 324 141 320 141 l 454 141 q 462 142 457 141 q 471 145 467 142 q 480 151 475 146 q 488 157 486 155 q 494 163 491 159 q 500 170 498 167 q 505 178 503 174 q 509 184 507 182 l 552 346 m 913 469 l 788 3 l 498 3 l 498 79 q 494 71 496 75 q 490 65 491 66 q 484 58 487 62 q 480 53 481 54 q 473 45 476 49 q 467 39 469 41 q 460 33 464 37 q 453 27 456 28 q 435 16 444 20 q 416 8 426 11 q 398 5 408 7 q 378 3 388 3 l 76 3 q 34 7 52 3 q 16 12 24 8 q 0 19 7 15 q -12 28 -5 23 q -23 39 -19 33 q -32 53 -27 45 q -38 69 -37 61 q -43 87 -41 77 q -43 109 -45 98 q -43 131 -43 119 q -41 153 -43 142 q -37 176 -39 164 q -31 199 -35 189 q -26 222 -28 210 q -22 243 -24 233 q -16 263 -19 252 q -11 283 -14 274 q -4 304 -8 293 q 3 327 0 316 q 12 348 7 338 q 20 369 16 358 q 32 389 26 378 q 45 408 38 400 q 60 427 52 418 q 77 442 69 435 q 96 457 85 450 q 119 468 107 464 q 159 480 137 476 q 205 484 180 484 l 541 484 q 551 486 545 484 q 562 490 556 487 q 572 496 566 491 q 583 505 578 500 q 589 510 586 506 q 595 518 593 514 q 600 526 598 522 q 602 533 602 530 q 604 549 605 541 q 600 557 602 553 q 595 563 598 560 q 591 568 594 566 q 583 574 587 571 q 568 578 576 578 l 121 578 l 159 718 l 783 718 q 808 716 796 718 q 831 713 821 715 q 852 707 842 711 q 869 699 861 703 q 887 688 879 694 q 899 674 895 681 q 911 659 906 667 q 918 642 916 650 q 924 625 921 633 q 926 608 926 616 q 928 589 928 598 q 929 570 929 579 q 928 544 929 557 q 924 518 926 530 q 918 493 921 506 q 913 469 916 480 m 844 977 l 547 754 l 330 754 l 613 977 l 844 977 z "},"â":{"ha":963,"x_min":-45,"x_max":929,"o":"m 913 469 l 788 3 l 498 3 l 498 79 q 494 71 496 75 q 490 65 491 66 q 484 58 487 62 q 480 53 481 54 q 473 45 477 49 q 467 39 469 41 q 460 33 464 37 q 453 27 456 28 q 435 16 444 20 q 416 8 426 11 q 398 5 408 7 q 378 3 388 3 l 76 3 q 34 7 52 3 q 16 12 24 8 q 0 19 7 15 q -12 28 -5 23 q -23 39 -19 33 q -31 53 -27 45 q -38 69 -35 61 q -43 87 -41 77 q -43 109 -45 98 q -43 131 -43 119 q -41 153 -43 142 q -37 176 -39 164 q -31 199 -34 189 q -26 222 -28 210 q -22 243 -24 233 q -16 263 -19 252 q -11 283 -14 274 q -4 304 -8 293 q 3 327 0 316 q 12 348 7 338 q 20 369 16 358 q 32 389 26 378 q 45 408 38 400 q 60 427 52 418 q 77 442 69 435 q 98 457 87 450 q 119 468 109 464 q 159 480 137 476 q 205 484 180 484 l 541 484 q 551 486 545 484 q 562 490 557 487 q 572 496 566 491 q 583 505 578 500 q 589 510 586 506 q 595 518 593 514 q 600 526 598 522 q 604 533 602 530 q 604 549 605 541 q 600 557 602 553 q 597 563 598 560 q 591 568 594 566 q 585 574 587 571 q 568 578 576 578 l 121 578 l 159 718 l 783 718 q 808 716 796 718 q 831 713 821 715 q 852 707 842 711 q 869 699 861 703 q 887 688 879 694 q 901 674 895 681 q 911 659 906 667 q 918 642 916 650 q 924 625 921 633 q 926 608 926 616 q 929 589 929 598 q 929 570 929 579 q 928 544 929 557 q 924 518 926 530 q 918 493 921 506 q 913 469 916 480 m 552 346 l 392 346 q 380 344 387 346 q 370 340 374 342 q 359 334 365 338 q 347 327 353 331 q 338 318 343 323 q 331 309 334 313 q 323 298 327 304 q 320 289 320 293 l 292 187 q 292 180 292 184 q 292 174 292 176 q 293 165 292 170 q 296 159 294 161 q 301 152 297 156 q 308 146 305 148 q 316 142 312 144 q 324 141 320 141 l 454 141 q 463 142 458 141 q 471 145 467 142 q 480 151 475 146 q 490 157 486 155 q 495 163 491 159 q 500 170 499 167 q 505 178 503 174 q 509 184 507 182 l 552 346 m 449 754 l 245 754 l 469 974 l 708 974 l 812 754 l 598 754 l 559 865 l 449 754 z "},"ã":{"ha":963,"x_min":-43,"x_max":930,"o":"m 553 346 l 392 346 q 382 344 388 346 q 372 340 376 342 q 359 334 365 338 q 349 327 354 331 q 340 318 345 323 q 331 309 335 313 q 325 298 328 304 q 320 289 321 293 l 293 187 q 292 180 293 184 q 293 174 292 176 q 294 165 293 170 q 297 159 296 161 q 302 152 298 156 q 309 146 307 148 q 317 142 313 144 q 326 141 321 141 l 456 141 q 463 142 458 141 q 472 145 467 142 q 481 151 476 146 q 490 157 487 155 q 496 163 492 159 q 502 170 499 167 q 507 178 505 174 q 510 184 509 182 l 553 346 m 914 469 l 789 3 l 499 3 l 499 79 q 495 71 498 75 q 491 65 492 66 q 486 58 488 62 q 481 53 483 54 q 474 45 477 49 q 468 39 471 41 q 460 33 465 37 q 454 27 456 28 q 435 16 445 20 q 418 8 426 11 q 399 5 408 7 q 380 3 389 3 l 77 3 q 34 7 53 3 q 17 12 26 8 q 1 19 8 15 q -11 28 -4 23 q -22 39 -18 33 q -31 53 -26 45 q -37 69 -35 61 q -41 87 -39 77 q -42 109 -43 98 q -42 131 -42 119 q -41 153 -42 142 q -36 176 -38 164 q -30 199 -34 189 q -25 222 -27 210 q -20 243 -23 233 q -15 263 -18 252 q -9 283 -12 274 q -3 304 -7 293 q 4 327 0 316 q 12 348 8 338 q 22 369 16 358 q 33 389 27 378 q 46 408 39 400 q 62 427 53 418 q 77 442 71 435 q 98 457 87 450 q 121 468 109 464 q 160 480 138 476 q 206 484 182 484 l 543 484 q 552 486 547 484 q 563 490 557 487 q 573 496 567 491 q 585 505 579 500 q 591 510 587 506 q 597 518 594 514 q 602 526 600 522 q 604 533 604 530 q 605 549 606 541 q 602 557 604 553 q 597 563 600 560 q 592 568 595 566 q 585 574 589 571 q 570 578 578 578 l 122 578 l 160 718 l 784 718 q 810 716 798 718 q 833 713 822 715 q 853 707 844 711 q 871 699 863 703 q 888 688 880 694 q 901 674 895 681 q 912 659 907 667 q 920 642 917 650 q 925 625 922 633 q 928 608 928 616 q 930 589 929 598 q 930 570 930 579 q 929 544 930 557 q 924 518 928 530 q 920 493 922 506 q 914 469 917 480 m 693 909 q 710 912 701 909 q 728 924 719 916 q 745 943 736 932 q 760 967 753 954 l 871 967 q 863 948 868 958 q 856 930 859 939 q 848 911 852 921 q 841 894 844 902 q 831 877 837 886 q 822 860 826 868 q 810 844 817 852 q 799 829 804 836 q 785 815 792 822 q 772 803 779 808 q 738 783 755 791 q 718 774 728 779 q 697 769 708 770 q 674 765 686 766 q 650 764 662 764 q 636 764 644 764 q 621 765 628 765 q 607 768 614 766 q 593 770 600 769 q 580 774 587 772 q 566 779 572 776 q 552 784 559 780 q 540 789 545 788 q 526 793 533 791 q 514 799 519 796 q 503 803 509 800 q 492 808 496 806 q 481 812 487 810 q 472 815 476 814 q 463 818 468 817 q 454 819 458 819 q 444 818 449 819 q 433 815 438 817 q 422 808 429 812 q 412 799 416 803 q 402 787 407 793 q 393 776 397 781 q 386 764 391 770 q 380 753 381 758 l 266 753 q 271 770 267 761 q 279 787 275 779 q 288 804 283 795 q 298 822 293 814 q 309 841 302 831 q 321 859 315 850 q 334 876 327 867 q 349 891 342 884 q 365 907 357 899 q 381 921 373 916 q 399 935 389 928 q 416 945 408 941 q 435 954 426 949 q 454 960 445 958 q 474 965 464 963 q 494 967 484 967 q 549 959 522 967 q 575 949 562 955 q 601 940 589 944 q 626 929 613 935 q 650 920 639 924 q 671 912 661 916 q 693 909 682 909 z "},"ä":{"ha":963,"x_min":-41,"x_max":933,"o":"m 916 469 l 791 3 l 500 3 l 500 79 q 498 71 500 75 q 494 65 495 66 q 488 58 491 62 q 483 53 484 54 q 476 45 480 49 q 471 39 472 41 q 463 33 467 37 q 456 27 458 28 q 438 16 448 20 q 419 8 429 11 q 401 5 411 7 q 381 3 391 3 l 79 3 q 37 7 54 3 q 19 12 27 8 q 4 19 11 15 q -9 28 -3 23 q -19 39 -15 33 q -28 53 -24 45 q -35 69 -33 61 q -39 87 -38 77 q -41 109 -41 98 q -40 131 -41 119 q -38 153 -39 142 q -33 176 -35 164 q -28 199 -31 189 q -23 222 -26 210 q -18 243 -20 233 q -12 263 -15 252 q -7 283 -9 274 q -1 304 -4 293 q 5 327 3 316 q 14 348 9 338 q 24 369 19 358 q 35 389 28 378 q 47 408 42 400 q 63 427 54 418 q 80 442 72 435 q 100 457 90 450 q 122 468 111 464 q 163 480 141 476 q 208 484 184 484 l 544 484 q 554 486 548 484 q 564 490 560 487 q 576 496 570 491 q 586 505 582 500 q 592 510 589 506 q 598 518 595 514 q 603 526 601 522 q 606 533 605 530 q 606 549 609 541 q 604 557 605 553 q 600 563 602 560 q 594 568 597 566 q 587 574 591 571 q 572 578 581 578 l 125 578 l 163 718 l 785 718 q 812 716 799 718 q 836 713 825 715 q 856 707 846 711 q 873 699 865 703 q 890 688 882 694 q 903 674 898 681 q 913 659 909 667 q 921 642 918 650 q 927 625 925 633 q 930 608 929 616 q 932 589 932 598 q 932 570 933 579 q 930 544 932 557 q 926 518 929 530 q 922 493 924 506 q 916 469 920 480 m 555 346 l 395 346 q 383 344 389 346 q 373 340 377 342 q 361 334 368 338 q 350 327 355 331 q 341 318 346 323 q 334 309 336 313 q 327 298 330 304 q 323 289 324 293 l 296 187 q 294 180 294 184 q 294 174 294 176 q 296 165 296 170 q 298 159 297 161 q 304 152 301 156 q 312 146 308 148 q 319 142 315 144 q 328 141 324 141 l 458 141 q 465 142 461 141 q 473 145 469 142 q 484 151 479 146 q 492 157 488 155 q 498 163 495 159 q 503 170 502 167 q 509 178 507 174 q 511 184 511 182 l 555 346 m 803 753 l 566 753 l 618 951 l 856 951 l 803 753 m 486 753 l 245 753 l 298 951 l 538 951 l 486 753 z "},"å":{"ha":963,"x_min":-47,"x_max":926,"o":"m 548 346 l 388 346 q 377 344 382 346 q 366 340 372 342 q 355 334 361 338 q 345 327 349 331 q 334 318 339 323 q 327 309 330 313 q 321 298 324 304 q 316 289 317 293 l 289 187 q 288 180 288 184 q 288 174 288 176 q 290 165 289 170 q 292 159 290 161 q 298 152 294 156 q 305 146 301 148 q 313 142 309 144 q 321 141 317 141 l 452 141 q 458 142 454 141 q 468 145 463 142 q 477 151 472 146 q 486 157 481 155 q 492 163 488 159 q 496 170 495 167 q 503 178 500 174 q 505 184 505 182 l 548 346 m 910 469 l 784 3 l 494 3 l 495 79 q 491 71 494 75 q 487 65 488 66 q 481 58 484 62 q 476 53 477 54 q 470 45 473 49 q 464 39 467 41 q 456 33 461 37 q 449 27 452 28 q 431 16 441 20 q 414 8 422 11 q 394 5 404 7 q 374 3 384 3 l 72 3 q 30 7 47 3 q 12 12 20 8 q -1 19 4 15 q -15 28 -8 23 q -26 39 -22 33 q -35 53 -31 45 q -41 69 -39 61 q -45 87 -43 77 q -47 109 -47 98 q -47 131 -47 119 q -45 153 -46 142 q -40 176 -42 164 q -35 199 -38 189 q -29 222 -31 210 q -24 243 -27 233 q -19 263 -22 252 q -14 283 -16 274 q -7 304 -11 293 q 0 327 -3 316 q 7 348 3 338 q 18 369 12 358 q 28 389 22 378 q 42 408 35 400 q 56 427 47 418 q 73 442 65 435 q 94 457 83 450 q 115 468 104 464 q 156 480 134 476 q 201 484 178 484 l 537 484 q 547 486 541 484 q 559 490 553 487 q 569 496 563 491 q 579 505 575 500 q 586 510 582 506 q 591 518 590 514 q 597 526 595 522 q 600 533 600 530 q 600 549 602 541 q 597 557 600 553 q 593 563 595 560 q 587 568 590 566 q 581 574 585 571 q 566 578 574 578 l 118 578 l 156 718 l 780 718 q 805 716 792 718 q 829 713 818 715 q 849 707 840 711 q 867 699 859 703 q 884 688 876 694 q 897 674 891 681 q 907 659 903 667 q 916 642 911 650 q 920 625 918 633 q 924 608 922 616 q 926 589 925 598 q 925 570 926 579 q 924 544 925 557 q 920 518 924 530 q 916 493 918 506 q 910 469 913 480 m 522 754 q 498 757 510 754 q 477 764 486 760 q 458 774 467 768 q 445 789 450 781 q 435 808 438 798 q 430 829 431 818 q 428 852 427 840 q 431 878 429 865 q 441 901 435 890 q 453 924 446 913 q 471 945 461 935 q 491 963 481 955 q 513 979 502 971 q 536 990 525 986 q 562 997 548 994 q 587 1000 575 1000 q 612 997 600 1000 q 632 990 624 994 q 651 979 643 986 q 665 964 659 972 q 676 945 671 956 q 682 925 681 935 q 682 902 682 914 q 678 878 682 890 q 669 853 675 865 q 656 830 663 841 q 640 809 650 819 q 620 791 631 799 q 597 775 610 783 q 574 764 585 768 q 548 757 562 760 q 522 754 534 754 m 540 819 q 551 820 545 819 q 562 823 557 821 q 574 829 568 825 q 585 836 579 833 q 594 844 590 840 q 602 854 598 849 q 608 865 605 860 q 613 878 612 871 q 615 888 614 883 q 616 899 616 894 q 612 909 614 905 q 606 917 609 914 q 600 924 604 921 q 591 929 595 926 q 582 932 587 930 q 570 935 576 935 q 558 933 564 935 q 548 930 552 932 q 536 924 543 928 q 525 918 530 921 q 515 909 519 914 q 507 899 511 905 q 501 888 505 894 q 496 878 498 883 q 495 854 494 865 q 498 844 495 849 q 503 837 500 840 q 510 829 506 833 q 518 825 514 826 q 528 821 522 822 q 540 819 533 819 z "},"æ":{"ha":1415,"x_min":-12,"x_max":1407,"o":"m 1294 716 q 1301 716 1297 716 q 1312 716 1306 716 q 1321 715 1316 716 q 1332 713 1326 713 q 1343 710 1337 712 q 1354 707 1348 708 q 1362 701 1358 704 q 1369 697 1366 699 q 1374 692 1371 696 q 1379 686 1377 688 q 1383 680 1381 684 q 1388 674 1386 675 q 1393 667 1390 671 q 1397 661 1396 663 q 1400 652 1398 656 q 1402 644 1402 648 q 1405 631 1404 639 q 1407 616 1407 623 q 1406 600 1407 609 q 1404 583 1405 591 q 1401 559 1404 572 q 1396 534 1398 547 l 1328 281 l 831 281 l 811 203 q 810 193 810 198 q 811 182 811 187 q 814 171 811 176 q 819 161 817 165 q 825 153 822 157 q 833 146 829 148 q 842 142 837 144 q 852 141 846 141 l 1260 141 l 1222 1 l 612 1 q 593 2 602 1 q 575 4 583 3 q 559 9 567 5 q 544 18 551 14 q 538 22 541 19 q 530 27 534 24 q 524 34 528 30 q 518 41 521 38 q 513 49 515 45 q 507 57 510 53 q 503 66 506 61 q 500 75 500 71 q 489 61 494 68 q 481 49 484 54 q 472 37 477 42 q 463 27 467 31 q 456 21 460 24 q 450 16 453 18 q 444 12 448 14 q 435 8 439 9 q 425 5 430 7 q 415 3 419 3 q 401 1 408 1 q 385 0 393 0 l 109 0 q 91 1 100 0 q 75 3 81 1 q 56 7 65 4 q 41 15 47 11 q 29 20 35 16 q 19 28 23 24 q 9 38 14 33 q 3 50 5 43 q -3 62 0 56 q -8 76 -5 69 q -11 93 -9 84 q -12 111 -12 102 q -12 126 -12 118 q -9 142 -11 134 q -6 160 -8 151 q -3 179 -4 170 l 28 297 q 35 318 31 308 q 41 338 38 328 q 48 356 43 347 q 57 373 53 365 q 69 393 62 384 q 81 411 76 403 q 96 426 88 419 q 111 439 103 433 q 139 458 123 449 q 170 471 155 467 q 186 474 178 472 q 202 476 194 476 q 220 478 210 477 q 239 479 231 479 l 526 479 q 534 480 530 479 q 544 484 538 481 q 554 490 548 486 q 564 498 560 494 q 572 505 568 500 q 581 514 576 510 q 587 525 583 519 q 591 534 590 530 q 592 541 591 537 q 591 548 593 545 q 589 554 590 551 q 586 560 587 557 q 579 566 583 563 q 572 571 575 568 q 564 574 568 572 q 557 575 560 575 l 155 575 l 193 716 l 1294 716 m 1078 419 l 1108 532 q 1109 538 1109 534 q 1109 545 1109 543 q 1108 553 1109 549 q 1105 560 1107 557 q 1102 566 1104 563 q 1099 571 1100 568 q 1093 574 1096 572 q 1086 575 1089 575 l 947 575 q 939 574 943 575 q 933 571 936 572 q 927 566 930 568 q 921 562 924 563 q 915 555 918 559 q 909 548 911 551 q 905 540 907 544 q 902 533 903 536 l 872 419 l 1078 419 m 538 340 l 395 340 q 388 340 392 340 q 381 338 384 339 q 372 333 376 336 q 365 328 368 330 q 355 321 359 326 q 349 312 351 316 q 342 302 345 308 q 338 293 339 297 l 309 189 q 309 180 309 184 q 309 171 308 175 q 312 163 311 167 q 316 156 313 159 q 322 150 319 153 q 330 145 326 146 q 345 141 336 141 l 441 141 q 450 142 445 141 q 458 144 454 142 q 469 148 464 145 q 476 153 473 151 q 484 162 480 157 q 490 174 487 167 q 497 189 494 180 q 503 208 500 198 l 538 340 z "},"ç":{"ha":802,"x_min":42,"x_max":907,"o":"m 907 713 l 869 574 l 541 574 q 530 572 537 574 q 518 568 524 570 q 507 562 513 566 q 496 555 500 559 q 485 546 491 551 q 476 537 479 541 q 470 526 473 532 q 465 517 467 521 l 378 194 q 378 184 378 190 q 380 175 378 179 q 384 165 381 170 q 389 157 387 160 q 397 150 392 153 q 407 145 401 146 q 416 142 411 142 q 427 141 422 141 l 754 141 l 716 0 l 445 0 l 372 -83 l 454 -83 q 467 -83 461 -83 q 477 -87 472 -84 q 488 -92 483 -88 q 496 -100 492 -96 q 503 -111 500 -106 q 507 -123 506 -117 q 511 -136 510 -129 q 509 -149 511 -142 l 472 -289 q 467 -300 471 -294 q 460 -312 464 -305 q 450 -324 456 -317 q 439 -336 445 -331 q 429 -345 435 -340 q 416 -353 423 -350 q 404 -357 411 -355 q 392 -359 397 -359 l 172 -359 l 186 -307 l 317 -307 q 321 -306 319 -307 q 323 -305 323 -305 q 328 -304 326 -305 q 331 -301 330 -302 q 334 -298 332 -300 q 336 -296 336 -297 q 339 -293 338 -294 q 340 -290 340 -292 l 377 -156 q 377 -152 377 -153 q 377 -149 377 -151 q 376 -145 377 -146 q 374 -142 374 -144 q 370 -140 372 -141 q 366 -138 369 -138 q 363 -138 365 -138 q 359 -137 361 -137 l 231 -137 l 244 -83 l 275 -83 l 351 0 l 187 0 q 160 1 172 0 q 137 5 148 3 q 117 12 126 7 q 99 20 107 16 q 85 32 92 26 q 73 45 79 38 q 62 59 66 50 q 54 76 57 68 q 50 90 52 81 q 46 106 47 98 q 42 138 42 122 q 43 155 43 146 q 45 172 43 164 q 47 189 46 180 q 52 206 49 198 l 130 503 q 137 522 133 513 q 144 543 141 532 q 155 563 149 552 q 165 583 160 574 q 178 603 171 593 q 193 623 186 613 q 210 641 201 632 q 227 658 218 650 q 243 670 235 663 q 260 682 252 677 q 279 693 269 688 q 300 703 289 699 q 315 707 307 704 q 331 711 323 709 q 350 713 340 712 q 368 713 359 713 l 907 713 z "},"è":{"ha":970,"x_min":-45,"x_max":947,"o":"m 817 716 q 839 715 827 716 q 861 712 850 713 q 883 706 872 709 q 902 697 894 703 q 916 687 909 693 q 926 675 922 681 q 935 661 930 669 q 943 644 939 652 q 945 631 944 639 q 947 616 947 623 q 947 600 947 609 q 945 583 947 591 q 941 559 944 572 q 936 534 939 547 l 868 281 l 316 281 l 294 203 q 294 193 293 198 q 294 182 294 187 q 298 171 294 176 q 304 161 301 165 q 311 153 307 157 q 320 146 316 148 q 330 142 326 144 q 340 141 335 141 l 798 141 l 761 1 l 77 1 q 57 2 68 1 q 37 4 46 3 q 18 9 27 5 q 1 18 8 14 q -12 26 -5 20 q -23 37 -18 31 q -31 50 -27 42 q -39 66 -35 58 q -43 79 -41 72 q -45 95 -45 87 q -45 113 -45 103 q -43 133 -45 123 q -43 147 -43 140 q -41 161 -42 155 q -37 178 -38 170 q -33 195 -35 187 l 52 517 q 57 533 54 525 q 62 548 60 541 q 67 562 64 555 q 72 576 71 570 q 83 598 77 587 q 94 618 88 609 q 107 637 100 628 q 119 654 114 647 q 136 670 127 662 q 152 684 145 678 q 171 694 161 689 q 190 703 180 700 q 209 708 199 705 q 228 712 218 711 q 248 715 237 713 q 267 716 258 716 l 817 716 m 586 419 l 616 532 q 617 538 617 534 q 617 545 617 543 q 614 553 616 549 q 612 560 613 557 q 608 566 610 563 q 602 571 605 568 q 596 574 600 572 q 590 575 593 575 l 433 575 q 426 574 430 575 q 419 571 422 572 q 411 566 415 568 q 404 562 407 563 q 398 555 401 559 q 392 548 395 551 q 385 533 387 540 l 354 419 l 586 419 m 328 977 l 559 977 l 723 754 l 507 754 l 328 977 z "},"é":{"ha":970,"x_min":-45,"x_max":947,"o":"m 783 977 l 484 754 l 269 754 l 552 977 l 783 977 m 586 419 l 616 532 q 617 538 617 534 q 617 545 617 543 q 614 553 616 549 q 612 560 613 557 q 608 566 610 563 q 602 571 605 568 q 596 574 600 572 q 590 575 593 575 l 433 575 q 426 574 430 575 q 419 571 422 572 q 412 566 416 568 q 404 562 407 563 q 398 555 401 559 q 393 548 395 551 q 387 540 389 544 q 385 533 385 536 l 354 419 l 586 419 m 817 716 q 839 715 827 716 q 861 712 850 713 q 883 706 872 709 q 902 697 894 703 q 916 687 909 693 q 926 675 922 681 q 935 661 930 669 q 943 644 939 652 q 945 631 944 639 q 947 616 947 623 q 947 600 947 609 q 947 583 947 591 q 941 559 944 572 q 936 534 939 547 l 868 281 l 316 281 l 294 203 q 294 193 293 198 q 294 182 294 187 q 298 171 296 176 q 304 161 301 165 q 311 153 307 157 q 320 146 316 148 q 331 142 326 144 q 340 141 336 141 l 798 141 l 761 1 l 79 1 q 57 2 68 1 q 37 4 46 3 q 18 9 27 5 q 1 18 8 14 q -12 26 -5 20 q -22 37 -18 31 q -31 50 -27 42 q -38 66 -35 58 q -43 79 -41 72 q -45 95 -45 87 q -45 113 -45 103 q -43 133 -45 123 q -43 147 -43 140 q -41 161 -42 155 q -37 178 -38 170 q -33 195 -35 187 l 52 517 q 57 533 54 525 q 62 548 60 541 q 67 562 64 555 q 72 576 71 570 q 83 598 77 587 q 95 618 88 609 q 107 637 100 628 q 119 654 114 647 q 136 670 127 662 q 152 684 145 678 q 172 694 161 689 q 190 703 182 700 q 209 708 199 705 q 228 712 218 711 q 248 715 237 713 q 267 716 258 716 l 817 716 z "},"ê":{"ha":970,"x_min":-45,"x_max":948,"o":"m 817 716 q 839 715 827 716 q 861 712 850 713 q 883 706 872 709 q 902 697 894 703 q 916 687 909 693 q 926 675 922 681 q 935 661 930 669 q 943 644 940 652 q 945 631 944 639 q 947 616 947 623 q 947 600 947 609 q 947 583 948 591 q 942 559 944 572 q 936 534 940 547 l 868 281 l 316 281 l 296 203 q 294 193 294 198 q 294 182 294 187 q 298 171 296 176 q 304 161 301 165 q 312 153 308 157 q 320 146 316 148 q 331 142 326 144 q 340 141 336 141 l 798 141 l 761 1 l 79 1 q 58 2 68 1 q 37 4 47 3 q 18 9 27 5 q 1 18 8 14 q -11 26 -4 20 q -22 37 -18 31 q -31 50 -26 42 q -38 66 -35 58 q -43 79 -41 72 q -45 95 -45 87 q -44 113 -43 103 q -43 133 -45 123 q -43 147 -43 140 q -41 161 -42 155 q -36 178 -38 170 q -33 195 -34 187 l 53 517 q 58 533 54 525 q 62 548 61 541 q 67 562 64 555 q 72 576 71 570 q 83 598 77 587 q 95 618 90 609 q 107 637 100 628 q 121 654 114 647 q 136 670 127 662 q 153 684 145 678 q 172 694 161 689 q 190 703 182 700 q 209 708 199 705 q 228 712 218 711 q 248 715 237 713 q 267 716 258 716 l 817 716 m 586 419 l 617 532 q 617 538 617 534 q 617 545 617 543 q 615 553 617 549 q 612 560 613 557 q 608 566 610 563 q 602 571 605 568 q 597 574 601 572 q 590 575 593 575 l 433 575 q 426 574 430 575 q 419 571 422 572 q 412 566 416 568 q 404 562 407 563 q 398 555 401 559 q 393 548 395 551 q 385 533 387 540 l 354 419 l 586 419 m 449 754 l 245 754 l 469 974 l 708 974 l 812 754 l 598 754 l 559 865 l 449 754 z "},"ë":{"ha":970,"x_min":-41,"x_max":951,"o":"m 590 419 l 620 532 q 621 538 621 534 q 621 545 621 543 q 618 553 620 549 q 616 560 616 557 q 611 566 614 563 q 606 571 608 568 q 600 574 604 572 q 593 575 597 575 l 435 575 q 429 574 433 575 q 423 571 426 572 q 415 566 419 568 q 408 562 411 563 q 401 555 406 559 q 396 548 397 551 q 388 533 389 540 l 358 419 l 590 419 m 819 716 q 843 715 831 716 q 865 712 854 713 q 886 706 875 709 q 906 697 897 703 q 919 687 913 693 q 929 675 925 681 q 939 661 935 669 q 945 644 943 652 q 948 631 947 639 q 951 616 949 623 q 951 600 951 609 q 949 583 951 591 q 945 559 948 572 q 939 534 943 547 l 871 281 l 319 281 l 298 203 q 297 193 297 198 q 298 182 297 187 q 302 171 298 176 q 308 161 305 165 q 315 153 311 157 q 324 146 320 148 q 334 142 328 144 q 345 141 339 141 l 802 141 l 764 1 l 81 1 q 61 2 72 1 q 41 4 50 3 q 22 9 31 5 q 4 18 12 14 q -7 26 -1 20 q -19 37 -14 31 q -28 50 -23 42 q -35 66 -33 58 q -39 79 -38 72 q -41 95 -41 87 q -41 113 -41 103 q -41 133 -41 123 q -39 147 -39 140 q -37 161 -38 155 q -33 178 -35 170 q -28 195 -31 187 l 56 517 q 61 533 58 525 q 65 548 64 541 q 71 562 68 555 q 76 576 73 570 q 86 598 80 587 q 98 618 92 609 q 111 637 103 628 q 123 654 118 647 q 139 670 130 662 q 156 684 148 678 q 174 694 164 689 q 194 703 184 700 q 212 708 202 705 q 231 712 222 711 q 252 715 241 713 q 270 716 262 716 l 819 716 m 812 753 l 575 753 l 628 951 l 865 951 l 812 753 m 494 753 l 254 753 l 308 951 l 547 951 l 494 753 z "},"ì":{"ha":479,"x_min":-49,"x_max":528,"o":"m 468 718 l 275 0 l -49 0 l 141 718 l 468 718 m 133 977 l 363 977 l 528 754 l 312 754 l 133 977 z "},"í":{"ha":479,"x_min":-49,"x_max":587,"o":"m 587 977 l 290 754 l 73 754 l 357 977 l 587 977 m 468 718 l 277 0 l -49 0 l 141 718 l 468 718 z "},"î":{"ha":553,"x_min":-49,"x_max":600,"o":"m 468 718 l 277 0 l -49 0 l 142 718 l 468 718 m 235 754 l 33 754 l 255 974 l 492 974 l 600 754 l 385 754 l 346 865 l 235 754 z "},"ï":{"ha":548,"x_min":-46,"x_max":650,"o":"m 472 718 l 279 0 l -46 0 l 145 718 l 472 718 m 597 753 l 359 753 l 412 951 l 650 951 l 597 753 m 279 753 l 42 753 l 95 951 l 332 951 l 279 753 z "},"ð":{"ha":972,"x_min":-39,"x_max":982,"o":"m 544 434 l 397 434 q 391 433 395 434 q 382 430 387 431 q 374 425 378 427 q 366 419 369 422 q 359 412 363 416 q 354 404 355 408 q 349 395 351 400 q 345 387 346 391 l 290 183 q 290 176 290 180 q 289 168 289 172 q 292 160 290 164 q 297 155 294 156 q 300 149 297 152 q 305 144 304 145 q 321 140 313 140 l 465 140 q 472 140 468 140 q 479 144 476 141 q 488 149 483 145 q 495 155 492 152 q 501 161 498 157 q 507 170 505 165 q 512 178 510 174 q 514 184 514 182 l 570 391 q 571 397 571 393 q 571 406 571 401 q 568 414 570 410 q 566 419 567 418 q 562 425 564 422 q 556 430 559 427 q 550 433 553 431 q 544 434 547 434 m 534 977 l 694 899 l 827 981 l 940 901 l 812 838 l 955 769 q 963 763 959 766 q 970 755 967 760 q 975 745 972 751 q 979 734 978 739 q 981 722 981 728 q 981 711 982 716 q 981 697 982 704 q 978 685 979 690 l 795 0 l 100 0 q 76 1 87 0 q 57 1 65 1 q 44 4 50 3 q 34 7 38 5 q 28 10 31 8 q 26 14 26 12 q 23 16 24 15 q 22 18 22 18 q 7 26 14 22 q -4 38 0 31 q -15 50 -9 43 q -23 64 -20 57 q -30 77 -27 69 q -34 94 -33 85 q -38 110 -37 102 q -39 126 -39 118 q -39 143 -39 134 q -38 160 -39 152 q -35 177 -37 168 q -33 194 -34 186 l 15 372 q 22 395 18 384 q 30 418 26 407 q 39 438 34 427 q 50 458 45 449 q 63 475 56 467 q 76 491 71 484 q 90 506 83 499 q 104 519 98 513 q 121 532 111 525 q 138 544 130 538 q 158 554 148 549 q 178 562 168 559 q 201 569 190 566 q 217 574 212 572 q 231 576 225 575 q 240 576 237 576 q 247 576 244 576 q 251 576 250 576 q 253 576 252 576 q 254 575 254 575 q 346 575 300 575 q 437 575 392 575 q 528 575 481 575 q 618 575 574 575 l 647 685 q 648 693 648 689 q 648 700 648 697 q 646 706 647 703 q 643 712 644 709 q 638 716 642 713 q 633 722 635 719 q 626 726 629 723 q 618 731 623 728 l 444 639 l 342 727 l 477 795 l 324 865 l 534 977 z "},"ñ":{"ha":993,"x_min":-71,"x_max":958,"o":"m 403 533 l 259 0 l -71 0 l 119 713 l 812 713 q 860 707 838 713 q 899 690 882 701 q 927 667 916 681 q 945 635 939 652 q 950 620 948 628 q 955 604 952 612 q 957 585 956 594 q 958 564 958 575 q 956 543 956 553 q 954 521 956 532 q 949 497 952 510 q 944 472 947 484 l 818 0 l 490 0 l 632 532 q 633 542 633 537 q 633 549 633 547 q 631 557 632 553 q 628 563 629 560 q 622 568 625 566 q 616 572 618 571 q 607 574 612 574 q 598 575 602 575 l 456 575 q 449 574 453 575 q 441 572 445 574 q 431 568 435 571 q 425 564 427 566 q 418 559 422 562 q 412 552 415 556 q 406 543 408 548 q 403 533 404 538 m 681 909 q 700 912 690 909 q 718 924 709 916 q 734 943 726 932 q 749 967 742 954 l 859 967 q 853 948 857 958 q 845 930 849 939 q 838 911 842 921 q 829 894 833 902 q 819 877 825 886 q 810 860 814 868 q 800 844 806 852 q 788 829 795 836 q 775 815 783 822 q 761 803 768 808 q 727 783 746 791 q 707 774 718 779 q 686 769 697 770 q 663 765 675 766 q 637 764 650 764 q 625 764 632 764 q 612 765 617 765 q 597 768 605 766 q 583 770 590 769 q 569 774 576 772 q 555 779 562 776 q 542 784 548 780 q 529 789 536 788 q 516 793 524 791 q 503 799 509 796 q 492 803 498 800 q 480 808 486 806 q 469 812 475 810 q 460 815 464 814 q 452 818 456 817 q 444 819 448 819 q 433 818 439 819 q 423 815 427 817 q 412 808 418 812 q 401 799 406 803 q 391 787 396 793 q 382 776 385 781 q 374 764 378 770 q 368 753 370 758 l 255 753 q 261 770 258 761 q 267 787 264 779 q 277 804 271 795 q 286 822 282 814 q 298 841 292 831 q 311 859 304 850 q 324 876 317 867 q 339 891 331 884 q 354 907 346 899 q 369 921 362 916 q 387 935 377 928 q 404 945 396 941 q 424 954 414 949 q 442 960 434 958 q 463 965 453 963 q 483 967 473 967 q 510 965 496 967 q 537 959 524 963 q 564 949 551 955 q 589 940 576 944 q 614 929 602 935 q 637 920 627 924 q 659 912 648 916 q 681 909 670 909 z "},"ò":{"ha":981,"x_min":-49,"x_max":958,"o":"m 829 713 q 848 713 838 713 q 865 711 857 712 q 882 707 873 709 q 898 703 891 704 q 912 697 906 701 q 922 689 918 693 q 933 678 928 685 q 943 666 939 671 q 949 652 947 661 q 954 635 951 643 q 956 614 955 625 q 956 591 958 604 q 956 576 956 585 q 952 560 955 568 q 948 542 949 552 q 944 522 947 532 l 853 184 q 847 164 850 175 q 841 145 844 153 q 833 127 837 136 q 825 110 829 118 q 814 92 821 100 q 802 75 808 83 q 789 60 796 66 q 776 47 783 53 q 763 37 770 42 q 749 27 755 31 q 733 18 742 23 q 718 12 724 14 q 698 7 708 9 q 678 3 688 4 q 657 1 667 1 q 637 0 647 0 l 80 0 q 60 1 71 0 q 39 4 49 1 q 20 9 30 5 q 3 18 11 14 q -9 26 -3 22 q -19 37 -15 31 q -29 48 -24 42 q -38 61 -34 54 q -42 75 -39 66 q -46 91 -45 83 q -48 108 -47 99 q -47 127 -49 117 q -47 138 -47 133 q -46 151 -47 144 q -43 164 -45 156 q -39 179 -42 172 l 52 524 q 57 542 54 533 q 62 559 60 551 q 68 575 64 567 q 75 590 72 583 q 87 612 80 601 q 99 632 94 623 q 113 649 106 642 q 126 663 119 656 q 143 677 134 670 q 159 688 152 684 q 176 696 167 692 q 193 703 186 701 q 211 707 202 704 q 228 711 220 709 q 245 713 236 712 q 262 713 254 713 l 829 713 m 594 572 l 415 572 q 406 568 411 572 q 399 563 403 566 q 395 559 396 560 q 391 553 393 556 q 388 548 388 549 q 385 541 387 545 q 382 536 384 537 l 289 184 q 288 176 288 180 q 289 170 288 172 q 292 161 290 165 q 294 156 293 157 q 298 150 296 153 q 304 145 301 146 q 317 141 311 141 l 473 141 q 481 142 477 141 q 488 145 484 142 q 497 149 492 146 q 505 155 502 152 q 512 160 509 156 q 517 167 515 164 q 523 175 521 171 q 525 182 525 179 l 620 534 q 621 541 621 537 q 621 548 621 545 q 618 554 620 551 q 614 560 616 557 q 610 564 613 562 q 605 568 608 567 q 599 571 602 570 q 594 572 595 572 m 389 977 l 621 977 l 784 754 l 568 754 l 389 977 z "},"ó":{"ha":981,"x_min":-49,"x_max":958,"o":"m 594 572 l 415 572 q 406 568 411 572 q 399 563 403 566 q 395 559 396 560 q 391 553 393 556 q 388 548 388 549 q 385 541 387 545 q 382 536 384 537 l 289 184 q 288 176 288 180 q 289 170 288 172 q 292 161 290 165 q 294 156 293 157 q 298 150 296 153 q 304 145 301 146 q 317 141 311 141 l 473 141 q 481 142 477 141 q 488 145 486 142 q 498 149 494 146 q 505 155 502 152 q 512 160 509 156 q 517 167 515 164 q 523 175 521 171 q 525 182 525 179 l 620 534 q 621 541 621 537 q 621 548 621 545 q 618 554 620 551 q 614 560 616 557 q 610 564 613 562 q 605 568 608 567 q 599 571 602 570 q 594 572 595 572 m 829 713 q 848 713 838 713 q 865 711 857 712 q 882 707 873 709 q 898 703 891 704 q 912 697 906 701 q 922 689 918 693 q 933 678 928 685 q 943 666 939 671 q 949 652 947 661 q 954 635 951 643 q 956 614 955 625 q 956 591 958 604 q 956 576 956 585 q 952 560 955 568 q 949 542 951 552 q 944 522 947 532 l 853 184 q 847 164 850 175 q 841 145 844 153 q 833 127 838 136 q 825 110 829 118 q 814 92 821 100 q 802 75 808 83 q 789 60 796 66 q 776 47 783 53 q 763 37 770 42 q 749 27 755 31 q 733 18 742 23 q 718 12 724 14 q 698 7 708 9 q 678 3 688 4 q 657 1 667 1 q 639 0 647 0 l 80 0 q 60 1 71 0 q 39 4 49 1 q 20 9 30 5 q 3 18 11 14 q -8 26 -1 22 q -19 37 -15 31 q -29 48 -24 42 q -37 61 -34 54 q -42 75 -39 66 q -46 91 -45 83 q -48 108 -47 99 q -47 127 -49 117 q -47 138 -47 133 q -46 151 -47 144 q -43 164 -45 156 q -39 179 -42 172 l 52 524 q 57 542 54 533 q 62 559 60 551 q 68 575 65 567 q 75 590 72 583 q 87 612 80 601 q 99 632 94 623 q 113 649 106 642 q 126 663 119 656 q 143 677 134 670 q 159 688 152 684 q 176 696 167 692 q 193 703 186 701 q 211 707 202 704 q 228 711 220 709 q 245 713 236 712 q 262 713 254 713 l 829 713 m 844 977 l 547 754 l 330 754 l 613 977 l 844 977 z "},"ô":{"ha":981,"x_min":-49,"x_max":958,"o":"m 830 713 q 848 713 838 713 q 865 711 857 712 q 883 707 875 709 q 899 703 891 704 q 912 697 906 701 q 924 689 918 693 q 934 678 929 685 q 943 666 939 671 q 949 652 947 661 q 954 635 952 643 q 956 614 955 625 q 958 591 958 604 q 956 576 956 585 q 952 560 955 568 q 949 542 951 552 q 944 522 947 532 l 853 184 q 847 164 850 175 q 841 145 844 153 q 834 127 838 136 q 825 110 830 118 q 814 92 821 100 q 802 75 808 83 q 789 60 796 66 q 776 47 783 53 q 763 37 770 42 q 749 27 755 31 q 733 18 742 23 q 718 12 724 14 q 699 7 709 9 q 678 3 688 4 q 658 1 669 1 q 639 0 647 0 l 81 0 q 60 1 71 0 q 39 4 50 1 q 20 9 30 5 q 3 18 11 14 q -7 26 -1 22 q -19 37 -14 31 q -29 48 -24 42 q -37 61 -34 54 q -42 75 -39 66 q -45 91 -45 83 q -48 108 -47 99 q -47 127 -49 117 q -47 138 -47 133 q -46 151 -47 144 q -42 164 -43 156 q -39 179 -41 172 l 52 524 q 57 542 54 533 q 62 559 60 551 q 68 575 65 567 q 75 590 72 583 q 87 612 80 601 q 100 632 94 623 q 113 649 106 642 q 127 663 121 656 q 144 677 136 670 q 160 688 152 684 q 177 696 168 692 q 194 703 186 701 q 211 707 202 704 q 228 711 220 709 q 245 713 236 712 q 263 713 255 713 l 830 713 m 594 572 l 415 572 q 406 568 411 572 q 399 563 403 566 q 395 559 396 560 q 391 553 393 556 q 388 548 388 549 q 385 541 387 545 q 384 536 384 537 l 289 184 q 288 176 288 180 q 289 170 288 172 q 292 161 290 165 q 294 156 293 157 q 299 150 296 153 q 304 145 302 146 q 317 141 312 141 l 475 141 q 481 142 477 141 q 488 145 486 142 q 498 149 494 146 q 505 155 502 152 q 512 160 509 156 q 518 167 515 164 q 523 175 521 171 q 526 182 525 179 l 620 534 q 621 541 621 537 q 621 548 621 545 q 618 554 620 551 q 614 560 617 557 q 610 564 613 562 q 605 568 608 567 q 599 571 602 570 q 594 572 595 572 m 484 754 l 281 754 l 505 974 l 742 974 l 849 754 l 633 754 l 594 865 l 484 754 z "},"õ":{"ha":981,"x_min":-47,"x_max":959,"o":"m 595 572 l 416 572 q 407 568 412 572 q 401 563 404 566 q 396 559 397 560 q 392 553 395 556 q 389 548 389 549 q 387 541 388 545 q 384 536 385 537 l 290 184 q 289 176 289 180 q 290 170 289 172 q 293 161 292 165 q 296 156 294 157 q 300 150 297 153 q 305 145 302 146 q 319 141 313 141 l 475 141 q 483 142 479 141 q 490 145 487 142 q 499 149 495 146 q 506 155 503 152 q 513 160 510 156 q 518 167 517 164 q 524 175 522 171 q 528 182 526 179 l 621 534 q 623 541 623 537 q 623 548 623 545 q 619 554 621 551 q 616 560 617 557 q 612 564 614 562 q 606 568 609 567 q 600 571 604 570 q 595 572 597 572 m 830 713 q 849 713 840 713 q 867 711 859 712 q 884 707 875 709 q 899 703 892 704 q 913 697 907 701 q 924 689 920 693 q 935 678 929 685 q 944 666 940 671 q 950 652 948 661 q 955 635 952 643 q 958 614 956 625 q 958 591 959 604 q 957 576 958 585 q 954 560 956 568 q 950 542 952 552 q 945 522 948 532 l 854 184 q 848 164 852 175 q 842 145 845 153 q 835 127 840 136 q 826 110 830 118 q 816 92 822 100 q 803 75 810 83 q 791 60 798 66 q 777 47 784 53 q 764 37 772 42 q 750 27 757 31 q 734 18 743 23 q 719 12 726 14 q 699 7 709 9 q 680 3 689 4 q 659 1 669 1 q 640 0 648 0 l 83 0 q 61 1 72 0 q 41 4 50 1 q 22 9 31 5 q 4 18 12 14 q -7 26 0 22 q -18 37 -14 31 q -28 48 -23 42 q -35 61 -33 54 q -41 75 -38 66 q -43 91 -43 83 q -47 108 -46 99 q -46 127 -47 117 q -46 138 -46 133 q -45 151 -46 144 q -42 164 -43 156 q -38 179 -41 172 l 53 524 q 58 542 56 533 q 64 559 61 551 q 70 575 66 567 q 76 590 73 583 q 88 612 81 601 q 100 632 95 623 q 114 649 107 642 q 129 663 121 656 q 144 677 136 670 q 160 688 153 684 q 178 696 168 692 q 194 703 187 701 q 212 707 203 704 q 229 711 221 709 q 246 713 237 712 q 263 713 255 713 l 830 713 m 716 909 q 734 912 726 909 q 751 924 743 916 q 768 943 760 932 q 784 967 777 954 l 894 967 q 887 948 891 958 q 879 930 883 939 q 871 911 876 921 q 864 894 867 902 q 854 877 860 886 q 845 860 849 868 q 835 844 841 852 q 822 829 829 836 q 810 815 817 822 q 795 803 803 808 q 761 783 779 791 q 741 774 751 779 q 720 769 731 770 q 698 765 711 766 q 673 764 685 764 q 660 764 667 764 q 646 765 652 765 q 631 768 639 766 q 617 770 624 769 q 603 774 610 772 q 589 779 595 776 q 576 784 582 780 q 563 789 570 788 q 550 793 557 791 q 537 799 543 796 q 526 803 532 800 q 515 808 519 806 q 505 812 510 810 q 495 815 499 814 q 486 818 491 817 q 477 819 481 819 q 467 818 473 819 q 456 815 461 817 q 446 808 452 812 q 435 799 439 803 q 425 787 430 793 q 418 776 420 781 q 410 764 414 770 q 403 753 406 758 l 289 753 q 296 770 292 761 q 302 787 300 779 q 312 804 307 795 q 321 822 317 814 q 332 841 326 831 q 345 859 338 850 q 358 876 351 867 q 372 891 365 884 q 389 907 380 899 q 404 921 397 916 q 422 935 412 928 q 439 945 431 941 q 459 954 449 949 q 477 960 469 958 q 497 965 487 963 q 517 967 507 967 q 572 959 547 967 q 599 949 586 955 q 624 940 612 944 q 650 929 637 935 q 673 920 662 924 q 694 912 684 916 q 716 909 705 909 z "},"ö":{"ha":981,"x_min":-45,"x_max":962,"o":"m 833 713 q 852 713 842 713 q 868 711 861 712 q 886 707 878 709 q 902 703 894 704 q 915 697 909 701 q 926 689 921 693 q 937 678 932 685 q 947 666 941 671 q 952 652 949 661 q 956 635 955 643 q 960 614 959 625 q 960 591 962 604 q 958 576 959 585 q 956 560 958 568 q 951 542 954 552 q 947 522 949 532 l 856 184 q 850 164 853 175 q 845 145 846 153 q 837 127 841 136 q 829 110 833 118 q 817 92 823 100 q 806 75 811 83 q 792 60 799 66 q 779 47 785 53 q 766 37 773 42 q 751 27 760 31 q 736 18 745 23 q 720 12 727 14 q 701 7 712 9 q 681 3 690 4 q 661 1 671 1 q 642 0 651 0 l 84 0 q 63 1 73 0 q 43 4 53 1 q 24 9 34 5 q 5 18 14 14 q -5 26 0 22 q -16 37 -11 31 q -25 48 -20 42 q -34 61 -30 54 q -39 75 -37 66 q -42 91 -41 83 q -44 108 -43 99 q -45 127 -45 117 q -44 138 -45 133 q -42 151 -43 144 q -39 164 -41 156 q -37 179 -38 172 l 54 524 q 60 542 57 533 q 65 559 64 551 q 71 575 68 567 q 79 590 75 583 q 90 612 83 601 q 103 632 96 623 q 117 649 110 642 q 130 663 123 656 q 146 677 138 670 q 163 688 155 684 q 180 696 171 692 q 197 703 189 701 q 214 707 205 704 q 231 711 222 709 q 249 713 240 712 q 266 713 258 713 l 833 713 m 597 572 l 418 572 q 408 568 414 572 q 403 563 406 566 q 397 559 400 560 q 394 553 396 556 q 391 548 392 549 q 389 541 391 545 q 387 536 387 537 l 292 184 q 292 176 292 180 q 292 170 292 172 q 295 161 293 165 q 298 156 297 157 q 302 150 300 153 q 308 145 305 146 q 321 141 315 141 l 477 141 q 484 142 480 141 q 492 145 488 142 q 501 149 496 146 q 509 155 506 152 q 515 160 511 156 q 521 167 519 164 q 526 175 524 171 q 529 182 528 179 l 624 534 q 624 541 624 537 q 624 548 624 545 q 621 554 623 551 q 618 560 620 557 q 614 564 617 562 q 608 568 610 567 q 602 571 605 570 q 597 572 600 572 m 826 753 l 589 753 l 643 951 l 880 951 l 826 753 m 510 753 l 270 753 l 323 951 l 563 951 l 510 753 z "},"÷":{"ha":810,"x_min":37,"x_max":791,"o":"m 75 433 q 166 433 121 433 q 255 433 212 433 q 345 433 300 433 q 433 433 389 433 q 522 433 477 433 q 609 433 566 433 q 700 433 654 433 q 791 433 746 433 l 753 290 q 574 290 663 290 q 395 290 484 290 q 216 290 305 290 q 37 290 126 290 l 75 433 m 245 189 l 490 189 l 439 0 l 195 0 l 245 189 m 388 719 l 632 719 l 582 530 l 338 530 l 388 719 z "},"ø":{"ha":1005,"x_min":-109,"x_max":1095,"o":"m 629 572 l 450 572 q 442 568 448 572 q 436 563 439 566 q 431 559 433 560 q 427 553 430 556 q 425 548 425 549 q 422 541 423 545 q 419 536 420 537 l 355 294 l 642 568 q 637 571 640 570 q 629 572 633 572 m 355 132 l 533 132 q 538 132 536 132 q 544 134 541 133 q 549 138 547 136 q 553 144 552 141 q 557 149 555 145 q 560 155 560 152 q 562 161 560 157 q 564 167 564 164 l 629 408 l 343 134 q 349 132 346 133 q 355 132 353 132 m 944 865 l 1095 865 l 926 704 q 928 704 926 704 q 930 704 930 704 q 933 703 932 704 q 935 703 935 703 q 949 697 943 701 q 959 689 955 693 q 970 678 964 685 q 979 666 975 671 q 985 652 982 661 q 990 635 987 643 q 993 614 991 625 q 993 591 994 604 q 991 576 991 585 q 989 560 991 568 q 985 542 986 552 q 981 522 983 532 l 890 184 q 884 164 887 175 q 878 145 880 153 q 869 127 873 136 q 861 110 865 118 q 851 92 857 100 q 838 75 845 83 q 825 60 831 66 q 812 47 819 53 q 800 37 807 42 q 785 27 792 31 q 769 18 777 23 q 754 12 761 14 q 734 7 745 9 q 715 3 724 4 q 694 1 704 1 q 674 0 684 0 l 208 0 l 46 -159 l -109 -159 l 62 7 q 56 9 60 8 q 50 12 53 11 q 44 15 47 14 q 39 18 41 16 q 26 25 33 20 q 15 35 20 30 q 6 47 11 41 q -1 61 1 54 q -5 75 -3 66 q -9 91 -8 83 q -12 108 -11 99 q -12 127 -12 117 q -11 138 -11 133 q -9 151 -11 144 q -7 164 -8 156 q -3 179 -5 172 l 88 524 q 94 542 91 533 q 99 559 96 551 q 104 575 100 567 q 111 590 109 583 q 123 612 117 601 q 136 632 129 623 q 149 649 142 642 q 163 663 156 656 q 180 677 171 670 q 195 688 189 684 q 212 696 203 692 q 229 703 221 701 q 246 707 237 704 q 264 711 255 709 q 281 713 273 712 q 298 713 290 713 l 791 713 l 944 865 z "},"ù":{"ha":993,"x_min":-19,"x_max":1008,"o":"m 448 716 l 304 179 q 302 172 302 176 q 304 165 302 168 q 307 157 305 161 q 309 152 308 153 q 315 147 312 149 q 321 144 319 145 q 329 140 326 141 q 335 140 332 140 l 483 140 q 490 140 486 140 q 498 142 494 141 q 506 146 502 144 q 513 151 510 148 q 519 155 515 152 q 525 161 522 159 q 530 168 528 164 q 533 175 532 172 l 678 715 l 1008 715 l 815 0 l 123 0 q 100 1 111 0 q 80 4 90 1 q 62 9 71 5 q 46 18 53 14 q 32 27 39 22 q 19 39 24 33 q 9 53 14 45 q 0 68 4 61 q -6 83 -3 75 q -12 100 -9 92 q -17 119 -15 110 q -19 138 -19 129 q -19 157 -19 148 q -18 176 -19 167 q -11 216 -16 197 l 122 716 l 448 716 m 406 977 l 636 977 l 799 754 l 583 754 l 406 977 z "},"ú":{"ha":993,"x_min":-19,"x_max":1008,"o":"m 448 716 l 304 179 q 302 172 302 176 q 304 165 302 168 q 307 157 305 161 q 309 152 308 153 q 315 147 312 149 q 321 144 319 145 q 329 140 326 141 q 335 140 332 140 l 483 140 q 490 140 486 140 q 498 142 494 141 q 506 146 502 144 q 513 151 510 148 q 519 155 515 152 q 525 161 522 159 q 530 168 528 164 q 533 175 532 172 l 678 715 l 1008 715 l 815 0 l 123 0 q 100 1 111 0 q 80 4 90 1 q 62 9 71 5 q 46 18 53 14 q 32 27 39 22 q 19 39 24 33 q 9 53 14 45 q 0 68 4 61 q -6 83 -3 75 q -12 100 -9 92 q -17 119 -15 110 q -19 138 -19 129 q -19 157 -19 148 q -18 176 -19 167 q -11 216 -16 197 l 122 716 l 448 716 m 859 977 l 562 754 l 346 754 l 628 977 l 859 977 z "},"û":{"ha":993,"x_min":-19,"x_max":1008,"o":"m 448 716 l 304 179 q 304 172 304 176 q 304 165 304 168 q 307 157 305 161 q 311 152 309 153 q 316 147 313 149 q 321 144 319 145 q 329 140 326 141 q 335 140 332 140 l 483 140 q 490 140 487 140 q 498 142 494 141 q 507 146 502 144 q 513 151 511 148 q 520 155 517 152 q 526 161 524 159 q 531 168 529 164 q 533 175 533 172 l 678 715 l 1008 715 l 817 0 l 123 0 q 102 1 113 0 q 81 4 91 1 q 62 9 72 5 q 46 18 53 14 q 33 27 39 22 q 20 39 26 33 q 9 53 14 45 q 0 68 4 61 q -6 83 -3 75 q -11 100 -9 92 q -16 119 -14 110 q -19 138 -18 129 q -18 157 -19 148 q -16 176 -18 167 q -11 216 -15 197 l 122 716 l 448 716 m 492 754 l 289 754 l 511 974 l 750 974 l 856 754 l 642 754 l 602 865 l 492 754 z "},"ü":{"ha":993,"x_min":-16,"x_max":1010,"o":"m 450 716 l 307 179 q 307 172 307 176 q 308 165 307 168 q 311 157 309 161 q 313 152 312 153 q 319 147 316 149 q 324 144 321 145 q 332 140 328 141 q 339 140 335 140 l 487 140 q 494 140 490 140 q 500 142 498 141 q 509 146 505 144 q 517 151 514 148 q 523 155 519 152 q 529 161 526 159 q 534 168 532 164 q 537 175 536 172 l 681 715 l 1010 715 l 819 0 l 126 0 q 104 1 115 0 q 84 4 94 1 q 66 9 75 5 q 50 18 57 14 q 35 27 42 22 q 23 39 28 33 q 13 53 18 45 q 3 68 8 61 q -3 83 0 75 q -8 100 -7 92 q -13 119 -11 110 q -16 138 -15 129 q -15 157 -15 148 q -14 176 -15 167 q -7 216 -12 197 l 125 716 l 450 716 m 859 753 l 621 753 l 674 951 l 911 951 l 859 753 m 540 753 l 301 753 l 354 951 l 593 951 l 540 753 z "},"ý":{"ha":978,"x_min":-64,"x_max":1027,"o":"m 486 716 l 343 184 q 343 178 343 182 q 343 171 343 174 q 345 163 343 167 q 347 157 346 159 q 351 150 349 153 q 358 145 354 146 q 372 141 365 141 l 519 141 q 526 142 522 141 q 532 144 530 142 q 538 149 534 145 q 544 155 541 152 q 549 160 547 156 q 553 167 552 164 q 557 174 555 171 q 560 180 559 178 l 703 712 l 1027 712 l 810 -98 q 806 -111 808 -103 q 800 -126 803 -119 q 793 -141 798 -133 q 785 -156 789 -149 q 776 -170 781 -163 q 765 -184 770 -178 q 753 -197 760 -190 q 741 -210 746 -203 q 728 -222 735 -216 q 713 -232 720 -228 q 697 -242 705 -237 q 681 -251 689 -247 q 664 -257 673 -254 q 647 -262 655 -260 q 629 -264 639 -263 q 608 -266 618 -266 l -64 -266 l -26 -127 l 427 -127 q 439 -127 433 -127 q 449 -125 445 -126 q 458 -119 453 -122 q 468 -115 464 -117 q 474 -109 471 -113 q 479 -103 477 -106 q 484 -96 481 -100 q 487 -88 487 -92 l 511 0 l 157 0 q 134 1 145 0 q 113 5 122 3 q 94 12 103 7 q 76 22 84 16 q 61 34 68 27 q 49 47 54 41 q 38 63 43 54 q 28 81 33 72 q 23 95 26 87 q 20 111 20 103 q 17 128 19 119 q 16 145 15 137 q 16 163 16 153 q 18 182 16 172 q 21 201 19 191 q 26 221 23 210 l 157 716 l 486 716 m 911 977 l 613 754 l 397 754 l 681 977 l 911 977 z "},"þ":{"ha":983,"x_min":-109,"x_max":987,"o":"m 547 974 l 479 719 l 840 719 q 857 718 848 719 q 873 715 865 716 q 890 709 882 712 q 905 701 898 705 q 932 681 920 693 q 945 667 939 674 q 955 654 951 661 q 964 640 959 647 q 971 624 968 632 q 979 607 975 616 q 983 590 982 598 q 987 572 986 582 q 986 555 987 563 q 985 537 986 547 q 982 519 983 528 l 895 195 q 889 178 892 187 q 880 159 886 168 q 869 138 876 148 q 854 119 861 129 q 844 105 850 113 q 831 92 837 98 q 819 78 826 85 q 806 65 811 71 q 789 52 798 58 q 772 39 780 45 q 753 27 762 33 q 735 18 743 22 q 718 10 727 14 q 701 5 709 7 q 684 1 693 3 q 666 0 674 0 l 286 0 l 216 -263 l -109 -263 l 221 974 l 547 974 m 484 574 q 475 573 480 574 q 468 571 471 572 q 458 566 463 568 q 452 562 454 563 q 444 555 448 559 q 438 548 441 552 q 430 532 431 540 l 336 183 q 335 174 335 179 q 335 167 335 170 q 338 159 336 163 q 342 153 339 155 q 347 149 343 151 q 353 145 350 146 q 360 142 355 142 q 369 141 365 141 l 509 141 q 517 142 513 141 q 525 144 521 142 q 534 148 530 145 q 541 153 538 151 q 547 159 544 155 q 553 165 551 163 q 558 174 556 170 q 562 183 560 179 l 655 532 q 656 540 656 536 q 656 547 656 544 q 654 555 655 551 q 651 562 652 559 q 646 566 650 563 q 639 570 643 568 q 624 574 632 574 l 484 574 z "},"ÿ":{"ha":978,"x_min":-60,"x_max":1031,"o":"m 490 716 l 347 184 q 346 178 346 182 q 346 171 346 174 q 347 163 346 167 q 350 157 349 159 q 355 150 351 153 q 361 145 358 146 q 374 141 368 141 l 522 141 q 530 142 526 141 q 536 144 533 142 q 542 149 538 145 q 548 155 545 152 q 553 160 551 156 q 556 167 556 164 q 561 174 559 171 q 563 180 563 178 l 705 712 l 1031 712 l 814 -98 q 809 -111 812 -103 q 803 -126 806 -119 q 796 -141 800 -133 q 788 -156 792 -149 q 779 -170 785 -163 q 769 -184 773 -178 q 757 -197 764 -190 q 745 -210 750 -203 q 731 -222 738 -216 q 716 -232 724 -228 q 701 -242 709 -237 q 685 -251 693 -247 q 668 -257 677 -254 q 650 -262 659 -260 q 631 -264 642 -263 q 612 -266 621 -266 l -60 -266 l -23 -127 l 431 -127 q 442 -127 437 -127 q 453 -125 448 -126 q 463 -119 457 -122 q 471 -115 468 -117 q 477 -109 473 -113 q 483 -103 481 -106 q 488 -96 486 -100 q 491 -88 490 -92 l 514 0 l 160 0 q 137 1 148 0 q 117 5 126 3 q 97 12 106 7 q 80 22 88 16 q 65 34 72 27 q 53 47 58 41 q 41 63 46 54 q 33 81 35 72 q 27 95 30 87 q 23 111 24 103 q 20 128 22 119 q 19 145 19 137 q 19 163 19 153 q 20 182 19 172 q 24 201 22 191 q 28 221 26 210 l 161 716 l 490 716 m 894 753 l 656 753 l 709 951 l 947 951 l 894 753 m 575 753 l 336 753 l 389 951 l 628 951 l 575 753 z "},"¤":{"ha":864,"x_min":11,"x_max":823,"o":"m 11 315 l 148 315 q 180 309 165 315 q 208 295 195 304 q 230 273 220 286 q 247 245 240 260 q 262 203 258 222 q 265 163 266 183 q 260 125 264 144 q 247 84 255 106 q 210 28 236 49 q 146 7 183 8 q 113 7 129 7 q 79 7 96 7 q 45 7 62 7 q 11 7 28 7 l 11 315 m 53 279 l 53 42 q 96 39 75 42 q 135 38 117 37 q 169 47 153 39 q 197 75 184 54 q 218 121 210 95 q 226 173 227 146 q 215 224 225 199 q 184 263 205 248 q 154 277 170 274 q 122 281 138 281 q 89 281 106 282 q 53 279 72 279 m 534 221 q 528 242 530 233 q 520 258 525 251 q 507 269 515 264 q 483 278 499 273 q 458 285 471 282 q 433 286 446 288 q 409 280 420 285 q 385 266 397 275 q 366 248 374 259 q 352 224 358 237 q 342 196 346 210 q 336 166 338 182 q 336 136 335 151 q 342 106 338 121 q 353 80 346 92 q 372 60 361 68 q 405 37 387 45 q 443 31 423 30 q 481 39 463 31 q 514 61 499 46 q 527 77 522 69 q 535 94 532 85 q 539 112 538 102 q 540 134 540 122 l 445 134 l 445 170 l 578 170 l 578 7 l 552 7 l 541 46 q 529 33 536 39 q 515 20 522 26 q 501 11 509 15 q 483 5 494 7 q 463 1 472 3 q 444 0 453 0 q 424 1 434 0 q 403 3 414 1 q 358 18 377 7 q 324 52 339 30 q 304 102 311 76 q 297 157 297 129 q 306 218 297 190 q 335 271 315 245 q 361 297 349 288 q 387 312 373 307 q 417 319 401 317 q 453 321 433 321 q 487 317 471 320 q 517 306 503 313 q 542 286 530 298 q 562 258 553 274 q 569 239 566 250 q 572 221 572 229 q 553 221 563 221 q 534 221 544 221 m 666 315 l 666 43 l 823 43 l 823 7 l 625 7 l 625 315 l 666 315 z "}}}
